{
.formatVersion = 3;
axes = (
{
name = Weight;
tag = wght;
}
);
familyName = Reijima;
customParameters = (
{
name = glyphOrder;
value = (
A,
Aacute,
Abreve,
Abreveacute,
Abrevedotbelow,
Abrevegrave,
Abrevehoi,
Abrevetilde,
Acircumflex,
Acircumflexacute,
Acircumflexdotbelow,
Acircumflexgrave,
Acircumflexhoi,
Acircumflextilde,
Adblgrave,
Adieresis,
Adotaccent,
Adotbelow,
Agrave,
Ahoi,
Ainvertedbreve,
Amacron,
Aogonek,
Aring,
Aringacute,
Atilde,
AE,
AEacute,
B,
C,
Cacute,
Ccaron,
Ccedilla,
Ccircumflex,
Cdotaccent,
D,
DZcaron,
Eth,
Dcaron,
Dcroat,
Dzcaron,
E,
Eacute,
Ebreve,
Ecaron,
Ecircumflex,
Ecircumflexacute,
Ecircumflexdotbelow,
Ecircumflexgrave,
Ecircumflexhoi,
Ecircumflextilde,
Edblgrave,
Edieresis,
Edotaccent,
Edotbelow,
Egrave,
Ehoi,
Einvertedbreve,
Emacron,
Eogonek,
Etilde,
F,
G,
Gbreve,
Gcaron,
Gcircumflex,
Gcommaaccent,
Gdotaccent,
H,
Hbar,
Hcircumflex,
I,
Iacute,
Ibreve,
Icircumflex,
Idblgrave,
Idieresis,
Idotaccent,
Idotbelow,
Igrave,
Ihoi,
Iinvertedbreve,
Imacron,
Iogonek,
Itilde,
J,
Jcircumflex,
K,
Kcommaaccent,
L,
LJ,
Lacute,
Lcaron,
Lcommaaccent,
Ldot,
Lj,
Lslash,
M,
N,
NJ,
Nacute,
Ncaron,
Ncommaaccent,
Eng,
Nj,
Ntilde,
O,
Oacute,
Obreve,
Ocircumflex,
Ocircumflexacute,
Ocircumflexdotbelow,
Ocircumflexgrave,
Ocircumflexhoi,
Ocircumflextilde,
Odblgrave,
Odieresis,
Odieresismacron,
Odotaccent,
Odotaccentmacron,
Odotbelow,
Ograve,
Ohoi,
Ohorn,
Ohornacute,
Ohorndotbelow,
Ohorngrave,
Ohornhoi,
Ohorntilde,
Ohungarumlaut,
Oinvertedbreve,
Omacron,
Oogonek,
Oslash,
Oslashacute,
Otilde,
Otildemacron,
OE,
P,
Thorn,
Q,
R,
Racute,
Rcaron,
Rcommaaccent,
Rdblgrave,
Rinvertedbreve,
S,
Sacute,
Scaron,
Scedilla,
Scircumflex,
Scommaaccent,
Germandbls,
Schwa,
T,
Tbar,
Tcaron,
Tcedilla,
Tcommaaccent,
U,
Uacute,
Ubreve,
Ucircumflex,
Udblgrave,
Udieresis,
Udotbelow,
Ugrave,
Uhoi,
Uhorn,
Uhornacute,
Uhorndotbelow,
Uhorngrave,
Uhornhoi,
Uhorntilde,
Uhungarumlaut,
Uinvertedbreve,
Umacron,
Uogonek,
Uring,
Utilde,
V,
W,
Wacute,
Wcircumflex,
Wdieresis,
Wgrave,
X,
Y,
Yacute,

glyphs = (
{
color = 10;
glyphname = A;
layers = (
{
anchors = (
{
name = bottom;
position = "{316, 0}";
},
{
name = ogonek;
position = "{667, 0}";
},
{
name = top;
position = "{316, 730}";
},
{
name = top_ring;
position = "{317, 665}";
}
);
layerId = "6AE7522C-F5AE-4477-8831-CE4DC346C7C6";
shapes = (
{
closed = 1;
nodes = (
(179,0,l),
(395,560,l),
(397,560,l),
(452,0,l),
(667,0,l),
(552,730,l),
(289,730,l),
(-35,0,l)
);
},
{
closed = 1;
nodes = (
(525,135,l),
(549,300,l),
(169,300,l),
(145,135,l)
);
}
);
width = 715;
},
{
anchors = (
{
name = bottom;
position = "{311, 0}";
},
{
name = ogonek;
position = "{648, 0}";
},
{
name = top;
position = "{311, 730}";
},
{
name = top_ring;
position = "{312, 682}";
}
);
layerId = "11CDF5B9-5D39-499F-A086-8A564624B78D";
shapes = (
{
closed = 1;
nodes = (
(123,0,l),
(397,611,l),
(399,611,l),
(499,0,l),
(649,0,l),
(508,730,l),
(324,730,l),
(-27,0,l)
);
},
{
closed = 1;
nodes = (
(530,167,l),
(547,289,l),
(157,289,l),
(140,167,l)
);
}
);
width = 706;
},
{
anchors = (
{
name = bottom;
position = "{300, 0}";
},
{
name = ogonek;
position = "{625, 0}";
},
{
name = top;
position = "{300, 730}";
},
{
name = top_ring;
position = "{300, 698}";
}
);
layerId = "BBD4F1D4-C528-4189-A814-DA4A859CEB77";
shapes = (
{
closed = 1;
nodes = (
(60,0,l),
(394,661,l),
(396,661,l),
(539,0,l),
(625,0,l),
(457,730,l),
(352,730,l),
(-25,0,l)
);
},
{
closed = 1;
nodes = (
(529,201,l),
(539,274,l),
(139,274,l),
(129,201,l)
);
}
);
width = 683;
},
{
anchors = (
{
name = bottom;
position = "{289, 0}";
},
{
name = ogonek;
position = "{601, 0}";
},
{
name = top;
position = "{289, 730}";
},
{
name = top_ring;
position = "{289, 715}";
}
);
layerId = "8CC5B2A3-F3A2-43C7-BF8D-A4D4BD884141";
shapes = (
{
closed = 1;
nodes = (
(-2,0,l),
(389,711,l),
(391,711,l),
(579,0,l),
(601,0,l),
(406,730,l),
(379,730,l),
(-23,0,l)
);
},
{
closed = 1;
nodes = (
(527,237,l),
(530,257,l),
(120,257,l),
(118,237,l)
);
}
);
width = 661;
}
);
leftKerningGroup = A;
rightKerningGroup = A;
unicode = 65;
},
{
color = 11;
glyphname = AE;
layers = (
{
anchors = (
{
name = bottom;
position = "{426, 0}";
},
{
name = top;
position = "{426, 730}";
}
);
layerId = "6AE7522C-F5AE-4477-8831-CE4DC346C7C6";
shapes = (
{
closed = 1;
nodes = (
(179,0,l),
(407,570,l),
(436,570,l),
(355,0,l),
(794,0,l),
(816,160,l),
(573,160,l),
(592,298,l),
(817,298,l),
(839,453,l),
(615,453,l),
(631,570,l),
(875,570,l),
(898,730,l),
(303,730,l),
(-35,0,l)
);
},
{
closed = 1;
nodes = (
(481,135,l),
(505,300,l),
(159,300,l),
(135,135,l)
);
}
);
width = 889;
},
{
anchors = (
{
name = bottom;
position = "{417, 0}";
},
{
name = top;
position = "{417, 730}";
}
);
layerId = "11CDF5B9-5D39-499F-A086-8A564624B78D";
shapes = (
{
closed = 1;
nodes = (
(123,0,l),
(424,617,l),
(449,617,l),
(361,0,l),
(758,0,l),
(775,119,l),
(514,119,l),
(543,323,l),
(784,323,l),
(801,438,l),
(560,438,l),
(585,611,l),
(845,611,l),
(862,730,l),
(351,730,l),
(-27,0,l)
);
},
{
closed = 1;
nodes = (
(460,167,l),
(477,289,l),
(159,289,l),
(142,167,l)
);
}
);
width = 854;
},
{
anchors = (
{
name = bottom;
position = "{403, 0}";
},
{
name = top;
position = "{403, 730}";
}
);
layerId = "BBD4F1D4-C528-4189-A814-DA4A859CEB77";
shapes = (
{
closed = 1;
nodes = (
(61,0,l),
(433,663,l),
(455,663,l),
(361,0,l),
(716,0,l),
(726,72,l),
(449,72,l),
(489,350,l),
(746,350,l),
(756,420,l),
(499,420,l),
(533,658,l),
(810,658,l),
(820,730,l),
(393,730,l),
(-25,0,l)
);
},
{
closed = 1;
nodes = (
(432,201,l),
(443,274,l),
(152,274,l),
(142,201,l)
);
}
);
width = 820;
},
{
anchors = (
{
name = bottom;
position = "{387, 0}";
},
{
name = top;
position = "{387, 730}";
}
);
layerId = "8CC5B2A3-F3A2-43C7-BF8D-A4D4BD884141";
shapes = (
{
closed = 1;
nodes = (
(-1,0,l),
(443,710,l),
(462,710,l),
(361,0,l),
(673,0,l),
(676,20,l),
(383,20,l),
(434,380,l),
(707,380,l),
(710,400,l),
(437,400,l),
(482,710,l),
(774,710,l),
(777,730,l),
(434,730,l),
(-23,0,l)
);
},
{
closed = 1;
nodes = (
(404,237,l),
(407,257,l),
(144,257,l),
(141,237,l)
);
}
);
width = 784;
}
);
leftKerningGroup = A;
rightKerningGroup = E;
unicode = 198;
},
{
color = 10;
glyphname = B;
layers = (
{
layerId = "6AE7522C-F5AE-4477-8831-CE4DC346C7C6";
shapes = (
{
closed = 1;
nodes = (
(294,0,ls),
(497,0,o),
(617,73,o),
(636,210,cs),
(651,310,o),
(602,370,o),
(495,384,c),
(496,386,l),
(589,400,o),
(653,461,o),
(665,550,cs),
(682,668,o),
(587,730,o),
(389,730,cs),
(126,730,l),
(21,0,l)
);
},
{
closed = 1;
nodes = (
(299,575,l),
(377,575,ls),
(448,575,o),
(472,558,o),
(465,512,cs),
(458,466,o),
(431,450,o),
(359,450,cs),
(183,450,l),
(162,300,l),
(337,300,ls),
(415,300,o),
(446,278,o),
(439,228,cs),
(432,178,o),
(394,155,o),
(317,155,cs),
(239,155,l)
);
}
);
width = 680;
},
{
layerId = "11CDF5B9-5D39-499F-A086-8A564624B78D";
shapes = (
{
closed = 1;
nodes = (
(291,0,ls),
(494,0,o),
(606,69,o),
(626,207,cs),
(641,309,o),
(593,370,o),
(488,386,c),
(488,388,l),
(577,405,o),
(637,464,o),
(649,552,cs),
(666,671,o),
(580,730,o),
(389,730,cs),
(135,730,l),
(31,0,l)
);
},
{
closed = 1;
nodes = (
(255,613,l),
(379,613,ls),
(480,613,o),
(518,588,o),
(509,527,cs),
(500,464,o),
(453,437,o),
(354,437,cs),
(162,437,l),
(146,323,l),
(338,323,ls),
(452,323,o),
(499,291,o),
(489,220,cs),
(478,149,o),
(422,117,o),
(308,117,cs),
(184,117,l)
);
}
);
width = 668;
},
{
layerId = "BBD4F1D4-C528-4189-A814-DA4A859CEB77";
shapes = (
{
closed = 1;
nodes = (
(288,0,ls),
(489,0,o),
(596,66,o),
(616,203,cs),
(631,308,o),
(583,370,o),
(474,388,c),
(474,390,l),
(564,409,o),
(621,466,o),
(634,554,cs),
(651,672,o),
(570,730,o),
(389,730,cs),
(145,730,l),
(41,0,l)
);
},
{
closed = 1;
nodes = (
(213,658,l),
(382,658,ls),
(513,658,o),
(566,622,o),
(554,541,cs),
(542,459,o),
(477,420,o),
(348,420,cs),
(140,420,l),
(130,350,l),
(338,350,ls),
(489,350,o),
(552,307,o),
(538,211,cs),
(524,115,o),
(450,72,o),
(298,72,cs),
(129,72,l)
);
}
);
width = 662;
},
{
layerId = "8CC5B2A3-F3A2-43C7-BF8D-A4D4BD884141";
shapes = (
{
closed = 1;
nodes = (
(285,0,ls),
(484,0,o),
(586,63,o),
(606,200,cs),
(621,308,o),
(572,369,o),
(453,390,c),
(454,392,l),
(550,414,o),
(605,467,o),
(617,555,cs),
(634,673,o),
(558,730,o),
(389,730,cs),
(155,730,l),
(51,0,l)
);
},
{
closed = 1;
nodes = (
(172,710,l),
(386,710,ls),
(545,710,o),
(613,660,o),
(598,555,cs),
(583,450,o),
(501,400,o),
(342,400,cs),
(118,400,l),
(115,380,l),
(339,380,ls),
(527,380,o),
(604,324,o),
(586,200,cs),
(568,76,o),
(476,20,o),
(287,20,cs),
(73,20,l)
);
}
);
width = 657;
}
);
leftKerningGroup = H;
rightKerningGroup = B;
unicode = 66;
},
{
color = 10;
glyphname = C;
layers = (
{
anchors = (
{
name = bottom;
position = "{346, 0}";
},
{
name = top;
position = "{346, 730}";
}
);
layerId = "6AE7522C-F5AE-4477-8831-CE4DC346C7C6";
shapes = (
{
closed = 1;
nodes = (
(460,-10,o),
(543,8,o),
(620,46,c),
(602,216,l),
(526,178,o),
(460,160,o),
(401,160,cs),
(282,160,o),
(225,234,o),
(244,365,cs),
(263,496,o),
(341,570,o),
(460,570,cs),
(518,570,o),
(580,552,o),
(645,514,c),
(711,684,l),
(645,722,o),
(567,740,o),
(476,740,cs),
(231,740,o),
(76,606,o),
(41,365,cs),
(7,124,o),
(124,-10,o),
(369,-10,cs)
);
}
);
width = 694;
},
{
anchors = (
{
name = bottom;
position = "{348, 0}";
},
{
name = top;
position = "{348, 730}";
}
);
layerId = "11CDF5B9-5D39-499F-A086-8A564624B78D";
shapes = (
{
closed = 1;
nodes = (
(455,-10,o),
(536,9,o),
(611,49,c),
(598,171,l),
(523,132,o),
(455,113,o),
(389,113,cs),
(241,113,o),
(165,207,o),
(188,365,cs),
(210,523,o),
(313,617,o),
(461,617,cs),
(528,617,o),
(591,598,o),
(653,559,c),
(702,681,l),
(638,721,o),
(562,740,o),
(473,740,cs),
(238,740,o),
(80,601,o),
(46,365,cs),
(12,129,o),
(131,-10,o),
(366,-10,cs)
);
}
);
width = 690;
},
{
anchors = (
{
name = bottom;
position = "{351, 0}";
},
{
name = top;
position = "{351, 730}";
}
);
layerId = "BBD4F1D4-C528-4189-A814-DA4A859CEB77";
shapes = (
{
closed = 1;
nodes = (
(451,-10,o),
(532,11,o),
(605,52,c),
(594,123,l),
(522,83,o),
(451,63,o),
(378,63,cs),
(201,63,o),
(105,179,o),
(132,365,cs),
(159,551,o),
(287,667,o),
(465,667,cs),
(538,667,o),
(604,647,o),
(663,607,c),
(694,678,l),
(633,719,o),
(558,740,o),
(472,740,cs),
(246,740,o),
(85,596,o),
(52,365,cs),
(19,134,o),
(139,-10,o),
(365,-10,cs)
);
}
);
width = 689;
},
{
anchors = (
{
name = bottom;
position = "{354, 0}";
},
{
name = top;
position = "{354, 730}";
}
);
layerId = "8CC5B2A3-F3A2-43C7-BF8D-A4D4BD884141";
shapes = (
{
closed = 1;
nodes = (
(447,-10,o),
(526,12,o),
(598,55,c),
(589,72,l),
(521,31,o),
(446,10,o),
(366,10,cs),
(159,10,o),
(46,150,o),
(76,365,cs),
(107,580,o),
(261,720,o),
(467,720,cs),
(547,720,o),
(617,699,o),
(673,658,c),
(686,675,l),
(627,718,o),
(554,740,o),
(470,740,cs),
(253,740,o),
(89,591,o),
(57,365,cs),
(25,139,o),
(146,-10,o),
(363,-10,cs)
);
}
);
width = 687;
}
);
leftKerningGroup = O;
rightKerningGroup = C;
unicode = 67;
},
{
color = 10;
glyphname = D;
layers = (
{
anchors = (
{
name = bottom;
position = "{308, 0}";
},
{
name = center;
position = "{308, 365}";
},
{
name = top;
position = "{308, 730}";
}
);
layerId = "6AE7522C-F5AE-4477-8831-CE4DC346C7C6";
shapes = (
{
closed = 1;
nodes = (
(265,0,ls),
(518,0,o),
(641,109,o),
(678,365,cs),
(715,621,o),
(622,730,o),
(369,730,c),
(126,730,l),
(21,0,l)
);
},
{
closed = 1;
nodes = (
(298,570,l),
(359,570,ls),
(474,570,o),
(501,524,o),
(478,365,cs),
(455,206,o),
(416,160,o),
(301,160,cs),
(239,160,l)
);
}
);
width = 699;
},
{
anchors = (
{
name = bottom;
position = "{305, 0}";
},
{
name = center;
position = "{305, 365}";
},
{
name = top;
position = "{305, 730}";
}
);
layerId = "11CDF5B9-5D39-499F-A086-8A564624B78D";
shapes = (
{
closed = 1;
nodes = (
(249,0,ls),
(500,0,o),
(633,115,o),
(668,365,cs),
(704,615,o),
(604,730,o),
(353,730,cs),
(135,730,l),
(31,0,l)
);
},
{
closed = 1;
nodes = (
(255,610,l),
(344,610,ls),
(501,610,o),
(554,541,o),
(529,365,cs),
(504,189,o),
(431,120,o),
(274,120,cs),
(185,120,l)
);
}
);
width = 695;
},
{
anchors = (
{
name = bottom;
position = "{303, 0}";
},
{
name = center;
position = "{303, 365}";
},
{
name = top;
position = "{303, 730}";
}
);
layerId = "BBD4F1D4-C528-4189-A814-DA4A859CEB77";
shapes = (
{
closed = 1;
nodes = (
(233,0,ls),
(483,0,o),
(624,121,o),
(659,365,cs),
(693,609,o),
(587,730,o),
(337,730,cs),
(145,730,l),
(41,0,l)
);
},
{
closed = 1;
nodes = (
(213,657,l),
(331,657,ls),
(529,657,o),
(608,564,o),
(580,365,cs),
(551,166,o),
(445,73,o),
(247,73,cs),
(129,73,l)
);
}
);
width = 690;
},
{
anchors = (
{
name = bottom;
position = "{300, 0}";
},
{
name = center;
position = "{300, 365}";
},
{
name = top;
position = "{300, 730}";
}
);
layerId = "8CC5B2A3-F3A2-43C7-BF8D-A4D4BD884141";
shapes = (
{
closed = 1;
nodes = (
(216,0,ls),
(465,0,o),
(615,126,o),
(649,365,cs),
(683,604,o),
(569,730,o),
(321,730,cs),
(155,730,l),
(51,0,l)
);
},
{
closed = 1;
nodes = (
(172,710,l),
(318,710,ls),
(557,710,o),
(662,592,o),
(629,365,cs),
(597,138,o),
(458,20,o),
(219,20,cs),
(73,20,l)
);
}
);
width = 685;
}
);
leftKerningGroup = H;
rightKerningGroup = O;
unicode = 68;
},
{
color = 11;
glyphname = Eth;
layers = (
{
anchors = (
{
name = bottom;
position = "{367, 0}";
},
{
name = center;
position = "{367, 365}";
},
{
name = top;
position = "{367, 730}";
}
);
layerId = "6AE7522C-F5AE-4477-8831-CE4DC346C7C6";
shapes = (
{
closed = 1;
nodes = (
(446,295,l),
(466,435,l),
(40,435,l),
(20,295,l)
);
},
{
closed = 1;
nodes = (
(333,0,ls),
(592,0,o),
(719,109,o),
(755,365,cs),
(792,621,o),
(696,730,o),
(437,730,c),
(187,730,l),
(83,0,l)
);
},
{
closed = 1;
nodes = (
(364,570,l),
(427,570,ls),
(545,570,o),
(573,524,o),
(550,365,cs),
(527,206,o),
(487,160,o),
(369,160,cs),
(306,160,l)
);
}
);
width = 776;
},
{
anchors = (
{
name = bottom;
position = "{358, 0}";
},
{
name = center;
position = "{358, 365}";
},
{
name = top;
position = "{358, 730}";
}
);
layerId = "11CDF5B9-5D39-499F-A086-8A564624B78D";
shapes = (
{
closed = 1;
nodes = (
(446.571,312,l),
(461.714,418,l),
(40.714,418,l),
(25.571,312,l)
);
},
{
closed = 1;
nodes = (
(311,0,ls),
(569,0,o),
(704.428,115,o),
(740.142,365,cs),
(775.856,615,o),
(673.284,730,o),
(415.284,730,cs),
(192.284,730,l),
(88,0,l)
);
},
{
closed = 1;
nodes = (
(315.142,610,l),
(407.142,610,ls),
(568.142,610,o),
(622.285,541,o),
(597.142,365,cs),
(572.,189,o),
(498.143,120,o),
(337.143,120,cs),
(245.143,120,l)
);
}
);
width = 766;
},
{
anchors = (
{
name = bottom;
position = "{348, 0}";
},
{
name = center;
position = "{348, 365}";
},
{
name = top;
position = "{348, 730}";
}
);
layerId = "BBD4F1D4-C528-4189-A814-DA4A859CEB77";
shapes = (
{
closed = 1;
nodes = (
(446,332,l),
(456,398,l),
(41,398,l),
(31,332,l)
);
},
{
closed = 1;
nodes = (
(289,0,ls),
(545,0,o),
(689.285,121,o),
(724.142,365,cs),
(758.999,609,o),
(649.284,730,o),
(393.284,730,cs),
(196.284,730,l),
(92,0,l)
);
},
{
closed = 1;
nodes = (
(265.856,657,l),
(386.856,657,ls),
(589.856,657,o),
(671.57,564,o),
(643.142,365,cs),
(614.714,166,o),
(506.428,73,o),
(303.428,73,cs),
(182.428,73,l)
);
}
);
width = 755;
},
{
anchors = (
{
name = bottom;
position = "{339, 0}";
},
{
name = center;
position = "{339, 365}";
},
{
name = top;
position = "{339, 730}";
}
);
layerId = "8CC5B2A3-F3A2-43C7-BF8D-A4D4BD884141";
shapes = (
{
closed = 1;
nodes = (
(449,355,l),
(452,375,l),
(42,375,l),
(39,355,l)
);
},
{
alignment = -1;
pos = (45,0);
ref = D;
}
);
width = 746;
}
);
leftKerningGroup = f;
rightKerningGroup = O;
unicode = 208;
},
{
color = 10;
glyphname = E;
layers = (
{
anchors = (
{
name = bottom;
position = "{285, 0}";
},
{
name = ogonek;
position = "{548, 0}";
},
{
name = top;
position = "{315, 730}";
},
{
name = topleft;
position = "{-22, 730}";
}
);
layerId = "6AE7522C-F5AE-4477-8831-CE4DC346C7C6";
shapes = (
{
closed = 1;
nodes = (
(548,0,l),
(571,160,l),
(239,160,l),
(259,298,l),
(571,298,l),
(593,452,l),
(281,452,l),
(298,570,l),
(629,570,l),
(652,730,l),
(126,730,l),
(21,0,l)
);
}
);
width = 643;
},
{
anchors = (
{
name = bottom;
position = "{287, 0}";
},
{
name = ogonek;
position = "{539, 0}";
},
{
name = top;
position = "{287, 730}";
},
{
name = topleft;
position = "{-26, 730}";
}
);
layerId = "11CDF5B9-5D39-499F-A086-8A564624B78D";
shapes = (
{
closed = 1;
nodes = (
(538,0,l),
(555,119,l),
(185,119,l),
(214,322,l),
(565,322,l),
(581,437,l),
(230,437,l),
(255,611,l),
(625,611,l),
(642,730,l),
(135,730,l),
(31,0,l)
);
}
);
width = 635;
},
{
anchors = (
{
name = bottom;
position = "{289, 0}";
},
{
name = ogonek;
position = "{529, 0}";
},
{
name = top;
position = "{289, 730}";
},
{
name = topleft;
position = "{-32, 730}";
}
);
layerId = "BBD4F1D4-C528-4189-A814-DA4A859CEB77";
shapes = (
{
closed = 1;
nodes = (
(528,0,l),
(539,72,l),
(129,72,l),
(169,349,l),
(559,349,l),
(569,420,l),
(179,420,l),
(213,658,l),
(622,658,l),
(633,730,l),
(145,730,l),
(41,0,l)
);
}
);
width = 633;
},
{
anchors = (
{
name = bottom;
position = "{290, 0}";
},
{
name = ogonek;
position = "{520, 0}";
},
{
name = top;
position = "{290, 730}";
},
{
name = topleft;
position = "{-39, 730}";
}
);
layerId = "8CC5B2A3-F3A2-43C7-BF8D-A4D4BD884141";
shapes = (
{
closed = 1;
nodes = (
(519,0,l),
(521,20,l),
(73,20,l),
(124,380,l),
(553,380,l),
(556,400,l),
(127,400,l),
(172,710,l),
(620,710,l),
(623,730,l),
(155,730,l),
(51,0,l)
);
}
);
width = 630;
}
);
leftKerningGroup = H;
rightKerningGroup = E;
unicode = 69;
},
{
color = 10;
glyphname = F;
layers = (
{
layerId = "6AE7522C-F5AE-4477-8831-CE4DC346C7C6";
shapes = (
{
closed = 1;
nodes = (
(216,0,l),
(255,270,l),
(567,270,l),
(589,430,l),
(277,430,l),
(297,565,l),
(629,565,l),
(652,730,l),
(125,730,l),
(21,0,l)
);
}
);
width = 637;
},
{
layerId = "11CDF5B9-5D39-499F-A086-8A564624B78D";
shapes = (
{
closed = 1;
nodes = (
(168,0,l),
(210,296,l),
(561,296,l),
(578,415,l),
(227,415,l),
(255,608,l),
(625,608,l),
(642,730,l),
(135,730,l),
(31,0,l)
);
}
);
width = 620;
},
{
layerId = "BBD4F1D4-C528-4189-A814-DA4A859CEB77";
shapes = (
{
closed = 1;
nodes = (
(119,0,l),
(165,324,l),
(555,324,l),
(566,396,l),
(176,396,l),
(213,657,l),
(622,657,l),
(632,730,l),
(145,730,l),
(41,0,l)
);
}
);
width = 615;
},
{
layerId = "8CC5B2A3-F3A2-43C7-BF8D-A4D4BD884141";
shapes = (
{
closed = 1;
nodes = (
(70,0,l),
(121,355,l),
(550,355,l),
(553,375,l),
(124,375,l),
(171,710,l),
(620,710,l),
(623,730,l),
(155,730,l),
(51,0,l)
);
}
);
width = 611;
}
);
leftKerningGroup = H;
rightKerningGroup = F;
unicode = 70;
},
{
color = 10;
glyphname = G;
layers = (
{
anchors = (
{
name = bottom;
position = "{368, 0}";
},
{
name = top;
position = "{368, 730}";
}
);
layerId = "6AE7522C-F5AE-4477-8831-CE4DC346C7C6";
shapes = (
{
closed = 1;
nodes = (
(510,-10,o),
(618,12,o),
(698,50,c),
(756,452,l),
(375,452,l),
(352,287,l),
(537,287,l),
(515,131,l),
(544,177,l),
(505,161,o),
(472,155,o),
(429,155,cs),
(284,155,o),
(221,225,o),
(241,365,cs),
(261,503,o),
(342,575,o),
(478,575,cs),
(549,575,o),
(625,556,o),
(679,524,c),
(743,684,l),
(683,720,o),
(597,740,o),
(501,740,cs),
(246,740,o),
(75,601,o),
(41,365,cs),
(8,129,o),
(142,-10,o),
(405,-10,cs)
);
}
);
width = 787;
},
{
anchors = (
{
name = bottom;
position = "{368, 0}";
},
{
name = top;
position = "{368, 730}";
}
);
layerId = "11CDF5B9-5D39-499F-A086-8A564624B78D";
shapes = (
{
closed = 1;
nodes = (
(502,-10,o),
(610,11,o),
(689,48,c),
(745,435,l),
(368,435,l),
(351,317,l),
(591,317,l),
(560,102,l),
(585,144,l),
(535,122,o),
(478,112,o),
(419,112,cs),
(246,112,o),
(162,202,o),
(186,365,cs),
(209,526,o),
(317,618,o),
(483,618,cs),
(560,618,o),
(637,599,o),
(693,566,c),
(740,683,l),
(680,720,o),
(595,740,o),
(501,740,cs),
(251,740,o),
(80,599,o),
(46,365,cs),
(13,130,o),
(145,-10,o),
(401,-10,cs)
);
}
);
width = 787;
},
{
anchors = (
{
name = bottom;
position = "{371, 0}";
},
{
name = top;
position = "{371, 730}";
}
);
layerId = "BBD4F1D4-C528-4189-A814-DA4A859CEB77";
shapes = (
{
closed = 1;
nodes = (
(496,-10,o),
(604,11,o),
(682,46,c),
(735,417,l),
(362,417,l),
(352,348,l),
(647,348,l),
(608,74,l),
(627,105,l),
(566,79,o),
(485,63,o),
(409,63,cs),
(206,63,o),
(105,174,o),
(132,365,cs),
(159,553,o),
(294,667,o),
(491,667,cs),
(573,667,o),
(652,647,o),
(709,612,c),
(739,681,l),
(679,719,o),
(595,740,o),
(502,740,cs),
(259,740,o),
(85,598,o),
(52,365,cs),
(19,131,o),
(149,-10,o),
(398,-10,cs)
);
}
);
width = 788;
},
{
anchors = (
{
name = bottom;
position = "{373, 0}";
},
{
name = top;
position = "{373, 730}";
}
);
layerId = "8CC5B2A3-F3A2-43C7-BF8D-A4D4BD884141";
shapes = (
{
closed = 1;
nodes = (
(490,-10,o),
(598,11,o),
(674,44,c),
(725,400,l),
(354,400,l),
(352,380,l),
(703,380,l),
(655,45,l),
(669,62,l),
(595,30,o),
(490,10,o),
(398,10,cs),
(164,10,o),
(45,142,o),
(76,365,cs),
(107,582,o),
(271,720,o),
(500,720,cs),
(586,720,o),
(667,700,o),
(725,663,c),
(738,680,l),
(678,718,o),
(594,740,o),
(502,740,cs),
(269,740,o),
(90,599,o),
(57,365,cs),
(24,131,o),
(151,-10,o),
(395,-10,cs)
);
}
);
width = 788;
}
);
leftKerningGroup = O;
rightKerningGroup = G;
unicode = 71;
},
{
color = 10;
glyphname = H;
layers = (
{
anchors = (
{
name = bottom;
position = "{329, 0}";
},
{
name = center;
position = "{329, 365}";
},
{
name = top;
position = "{329, 730}";
},
{
name = topleft;
position = "{-22, 730}";
}
);
layerId = "6AE7522C-F5AE-4477-8831-CE4DC346C7C6";
shapes = (
{
closed = 1;
nodes = (
(636,0,l),
(740,730,l),
(545,730,l),
(441,0,l)
);
},
{
closed = 1;
nodes = (
(216,0,l),
(321,730,l),
(126,730,l),
(21,0,l)
);
},
{
closed = 1;
nodes = (
(580,290,l),
(604,460,l),
(185,460,l),
(160,290,l)
);
}
);
width = 741;
},
{
anchors = (
{
name = bottom;
position = "{326, 0}";
},
{
name = center;
position = "{326, 365}";
},
{
name = top;
position = "{326, 730}";
},
{
name = topleft;
position = "{-22, 730}";
}
);
layerId = "11CDF5B9-5D39-499F-A086-8A564624B78D";
shapes = (
{
closed = 1;
nodes = (
(619,0,l),
(723,730,l),
(587,730,l),
(483,0,l)
);
},
{
closed = 1;
nodes = (
(168,0,l),
(272,730,l),
(135,730,l),
(31,0,l)
);
},
{
closed = 1;
nodes = (
(596,318,l),
(614,441,l),
(162,441,l),
(145,318,l)
);
}
);
width = 735;
},
{
anchors = (
{
name = bottom;
position = "{322, 0}";
},
{
name = center;
position = "{322, 365}";
},
{
name = top;
position = "{322, 730}";
},
{
name = topleft;
position = "{-22, 730}";
}
);
layerId = "BBD4F1D4-C528-4189-A814-DA4A859CEB77";
shapes = (
{
closed = 1;
nodes = (
(603,0,l),
(708,730,l),
(630,730,l),
(525,0,l)
);
},
{
closed = 1;
nodes = (
(119,0,l),
(223,730,l),
(145,730,l),
(41,0,l)
);
},
{
closed = 1;
nodes = (
(614,348,l),
(625,421,l),
(140,421,l),
(130,348,l)
);
}
);
width = 728;
},
{
anchors = (
{
name = bottom;
position = "{319, 0}";
},
{
name = center;
position = "{319, 365}";
},
{
name = top;
position = "{319, 730}";
},
{
name = topleft;
position = "{-22, 730}";
}
);
layerId = "8CC5B2A3-F3A2-43C7-BF8D-A4D4BD884141";
shapes = (
{
closed = 1;
nodes = (
(587,0,l),
(691,730,l),
(672,730,l),
(567,0,l)
);
},
{
closed = 1;
nodes = (
(70,0,l),
(174,730,l),
(155,730,l),
(51,0,l)
);
},
{
closed = 1;
nodes = (
(631,380,l),
(634,400,l),
(118,400,l),
(115,380,l)
);
}
);
width = 721;
}
);
leftKerningGroup = H;
rightKerningGroup = H;
unicode = 72;
},
{
color = 11;
glyphname = Hbar;
layers = (
{
layerId = "6AE7522C-F5AE-4477-8831-CE4DC346C7C6";
shapes = (
{
closed = 1;
nodes = (
(828,526,l),
(848,666,l),
(68,666,l),
(48,526,l)
);
},
{
alignment = -1;
pos = (40,0);
ref = H;
}
);
width = 810;
},
{
anchors = (
{
name = bottom;
position = "{373, 0}";
},
{
name = center;
position = "{373, 365}";
},
{
name = top;
position = "{373, 730}";
},
{
name = topleft;
position = "{17, 730}";
}
);
layerId = "11CDF5B9-5D39-499F-A086-8A564624B78D";
shapes = (
{
closed = 1;
nodes = (
(812,543,l),
(827,649,l),
(73,649,l),
(58,543,l)
);
},
{
alignment = -1;
pos = (39,0);
ref = H;
}
);
width = 798;
},
{
anchors = (
{
name = bottom;
position = "{366, 0}";
},
{
name = center;
position = "{366, 365}";
},
{
name = top;
position = "{366, 730}";
},
{
name = topleft;
position = "{13, 730}";
}
);
layerId = "BBD4F1D4-C528-4189-A814-DA4A859CEB77";
shapes = (
{
closed = 1;
nodes = (
(792,563,l),
(802,629,l),
(75,629,l),
(65,563,l)
);
},
{
alignment = -1;
pos = (35,0);
ref = H;
}
);
width = 781;
},
{
layerId = "8CC5B2A3-F3A2-43C7-BF8D-A4D4BD884141";
shapes = (
{
closed = 1;
nodes = (
(771,586,l),
(774,606,l),
(74,606,l),
(71,586,l)
);
},
{
alignment = -1;
pos = (29,0);
ref = H;
}
);
width = 758;
}
);
leftKerningGroup = W;
rightKerningGroup = W;
unicode = 294;
},
{
color = 10;
glyphname = I;
layers = (
{
anchors = (
{
name = bottom;
position = "{130, 0}";
},
{
name = ogonek;
position = "{232, 0}";
},
{
name = top;
position = "{130, 730}";
},
{
name = topleft;
position = "{-23, 730}";
}
);
layerId = "6AE7522C-F5AE-4477-8831-CE4DC346C7C6";
shapes = (
{
closed = 1;
nodes = (
(232,0,l),
(336,730,l),
(131,730,l),
(27,0,l)
);
}
);
width = 343;
},
{
anchors = (
{
name = bottom;
position = "{110, 0}";
},
{
name = ogonek;
position = "{181, 0}";
},
{
name = top;
position = "{110, 730}";
},
{
name = topleft;
position = "{-21, 730}";
}
);
layerId = "11CDF5B9-5D39-499F-A086-8A564624B78D";
shapes = (
{
closed = 1;
nodes = (
(181,0,l),
(286,730,l),
(143,730,l),
(39,0,l)
);
}
);
width = 304;
},
{
anchors = (
{
name = bottom;
position = "{90, 0}";
},
{
name = ogonek;
position = "{130, 0}";
},
{
name = top;
position = "{90, 730}";
},
{
name = topleft;
position = "{-22, 730}";
}
);
layerId = "BBD4F1D4-C528-4189-A814-DA4A859CEB77";
shapes = (
{
closed = 1;
nodes = (
(130,0,l),
(234,730,l),
(154,730,l),
(50,0,l)
);
}
);
width = 263;
},
{
anchors = (
{
name = bottom;
position = "{69, 0}";
},
{
name = ogonek;
position = "{79, 0}";
},
{
name = top;
position = "{69, 730}";
},
{
name = topleft;
position = "{-23, 730}";
}
);
layerId = "8CC5B2A3-F3A2-43C7-BF8D-A4D4BD884141";
shapes = (
{
closed = 1;
nodes = (
(79,0,l),
(183,730,l),
(163,730,l),
(59,0,l)
);
}
);
width = 222;
}
);
leftKerningGroup = I;
rightKerningGroup = I;
unicode = 73;
},
{
color = 10;
glyphname = J;
layers = (
{
anchors = (
{
name = bottom;
position = "{246, 0}";
},
{
name = top;
position = "{246, 730}";
}
);
layerId = "6AE7522C-F5AE-4477-8831-CE4DC346C7C6";
shapes = (
{
closed = 1;
nodes = (
(397,-10,o),
(500,78,o),
(528,280,cs),
(593,730,l),
(393,730,l),
(329,280,ls),
(318,203,o),
(276,165,o),
(204,165,cs),
(162,165,o),
(93,178,o),
(20,199,c),
(-34,29,l),
(33,4,o),
(112,-10,o),
(192,-10,cs)
);
}
);
width = 588;
},
{
anchors = (
{
name = bottom;
position = "{251, 0}";
},
{
name = top;
position = "{251, 730}";
}
);
layerId = "11CDF5B9-5D39-499F-A086-8A564624B78D";
shapes = (
{
closed = 1;
nodes = (
(391,-10,o),
(494,81,o),
(523,280,cs),
(587,730,l),
(446,730,l),
(382,280,ls),
(366,169,o),
(309,115,o),
(206,115,cs),
(151,115,o),
(81,131,o),
(15,160,c),
(-26,36,l),
(38,6,o),
(115,-10,o),
(196,-10,cs)
);
}
);
width = 590;
},
{
anchors = (
{
name = bottom;
position = "{251, 0}";
},
{
name = top;
position = "{251, 730}";
}
);
layerId = "BBD4F1D4-C528-4189-A814-DA4A859CEB77";
shapes = (
{
closed = 1;
nodes = (
(382,-10,o),
(483,84,o),
(511,280,cs),
(575,730,l),
(495,730,l),
(431,280,ls),
(410,133,o),
(337,63,o),
(203,63,cs),
(135,63,o),
(63,82,o),
(4,116,c),
(-23,43,l),
(35,9,o),
(114,-10,o),
(196,-10,cs)
);
}
);
width = 587;
},
{
anchors = (
{
name = bottom;
position = "{251, 0}";
},
{
name = top;
position = "{251, 730}";
}
);
layerId = "8CC5B2A3-F3A2-43C7-BF8D-A4D4BD884141";
shapes = (
{
closed = 1;
nodes = (
(372,-10,o),
(471,85,o),
(499,280,cs),
(563,730,l),
(544,730,l),
(480,280,ls),
(453,96,o),
(364,10,o),
(199,10,cs),
(117,10,o),
(42,31,o),
(-8,67,c),
(-21,50,l),
(32,12,o),
(112,-10,o),
(196,-10,cs)
);
}
);
width = 585;
}
);
leftKerningGroup = J;
rightKerningGroup = U;
unicode = 74;
},
{
color = 10;
glyphname = K;
layers = (
{
anchors = (
{
name = bottom;
position = "{304, 0}";
},
{
name = top;
position = "{304, 730}";
}
);
layerId = "6AE7522C-F5AE-4477-8831-CE4DC346C7C6";
shapes = (
{
closed = 1;
nodes = (
(216,0,l),
(264,335,l),
(266,335,l),
(441,0,l),
(665,0,l),
(470,375,l),
(759,730,l),
(535,730,l),
(278,415,l),
(276,415,l),
(321,730,l),
(126,730,l),
(21,0,l)
);
}
);
width = 719;
},
{
anchors = (
{
name = bottom;
position = "{290, 0}";
},
{
name = top;
position = "{290, 730}";
}
);
layerId = "11CDF5B9-5D39-499F-A086-8A564624B78D";
shapes = (
{
closed = 1;
nodes = (
(168,0,l),
(217,346,l),
(219,346,l),
(470,0,l),
(636,0,l),
(360,380,l),
(730,730,l),
(564,730,l),
(229,414,l),
(227,414,l),
(272,730,l),
(135,730,l),
(31,0,l)
);
}
);
width = 699;
},
{
anchors = (
{
name = bottom;
position = "{275, 0}";
},
{
name = top;
position = "{275, 730}";
}
);
layerId = "BBD4F1D4-C528-4189-A814-DA4A859CEB77";
shapes = (
{
closed = 1;
nodes = (
(119,0,l),
(170,359,l),
(172,359,l),
(505,0,l),
(606,0,l),
(251,385,l),
(701,730,l),
(599,730,l),
(179,410,l),
(177,410,l),
(223,730,l),
(145,730,l),
(41,0,l)
);
}
);
width = 673;
},
{
anchors = (
{
name = bottom;
position = "{260, 0}";
},
{
name = top;
position = "{260, 730}";
}
);
layerId = "8CC5B2A3-F3A2-43C7-BF8D-A4D4BD884141";
shapes = (
{
closed = 1;
nodes = (
(70,0,l),
(124,376,l),
(126,376,l),
(546,0,l),
(577,0,l),
(141,390,l),
(672,730,l),
(639,730,l),
(130,404,l),
(128,404,l),
(174,730,l),
(155,730,l),
(51,0,l)
);
}
);
width = 647;
}
);
leftKerningGroup = H;
rightKerningGroup = K;
unicode = 75;
},
{
color = 10;
glyphname = L;
layers = (
{
anchors = (
{
name = bottom;
position = "{266, 0}";
},
{
name = center;
position = "{266, 375}";
},
{
name = pdcenter;
position = "{548, 375}";
},
{
name = top;
position = "{266, 730}";
},
{
name = topright;
position = "{554, 730}";
}
);
layerId = "6AE7522C-F5AE-4477-8831-CE4DC346C7C6";
shapes = (
{
closed = 1;
nodes = (
(548,0,l),
(572,170,l),
(246,170,l),
(326,730,l),
(126,730,l),
(21,0,l)
);
}
);
width = 615;
},
{
anchors = (
{
name = bottom;
position = "{264, 0}";
},
{
name = center;
position = "{264, 375}";
},
{
name = pdcenter;
position = "{538, 375}";
},
{
name = top;
position = "{264, 730}";
},
{
name = topright;
position = "{551, 730}";
}
);
layerId = "11CDF5B9-5D39-499F-A086-8A564624B78D";
shapes = (
{
closed = 1;
nodes = (
(538,0,l),
(556,123,l),
(189,123,l),
(276,730,l),
(135,730,l),
(31,0,l)
);
}
);
width = 617;
},
{
anchors = (
{
name = bottom;
position = "{263, 0}";
},
{
name = center;
position = "{263, 375}";
},
{
name = pdcenter;
position = "{522, 375}";
},
{
name = top;
position = "{263, 730}";
},
{
name = topright;
position = "{541, 730}";
}
);
layerId = "BBD4F1D4-C528-4189-A814-DA4A859CEB77";
shapes = (
{
closed = 1;
nodes = (
(528,0,l),
(539,73,l),
(131,73,l),
(225,730,l),
(145,730,l),
(41,0,l)
);
}
);
width = 612;
},
{
anchors = (
{
name = bottom;
position = "{262, 0}";
},
{
name = center;
position = "{262, 375}";
},
{
name = pdcenter;
position = "{499, 375}";
},
{
name = top;
position = "{262, 730}";
},
{
name = topright;
position = "{526, 730}";
}
);
layerId = "8CC5B2A3-F3A2-43C7-BF8D-A4D4BD884141";
shapes = (
{
closed = 1;
nodes = (
(519,0,l),
(521,20,l),
(73,20,l),
(174,730,l),
(155,730,l),
(51,0,l)
);
}
);
width = 607;
}
);
leftKerningGroup = H;
rightKerningGroup = L;
unicode = 76;
},
{
color = 11;
glyphname = Lslash;
layers = (
{
layerId = "6AE7522C-F5AE-4477-8831-CE4DC346C7C6";
shapes = (
{
closed = 1;
nodes = (
(544,393,l),
(508,523,l),
(12,337,l),
(49,207,l)
);
},
{
alignment = -1;
pos = (98,0);
ref = L;
}
);
width = 728;
},
{
anchors = (
{
name = bottom;
position = "{369, 0}";
},
{
name = center;
position = "{369, 375}";
},
{
name = pdcenter;
position = "{650, 375}";
},
{
name = top;
position = "{369, 730}";
},
{
name = topright;
position = "{662, 730}";
}
);
layerId = "11CDF5B9-5D39-499F-A086-8A564624B78D";
shapes = (
{
closed = 1;
nodes = (
(493,402,l),
(466,502,l),
(18,328,l),
(46,228,l)
);
},
{
alignment = -1;
pos = (97,0);
ref = L;
}
);
width = 728;
},
{
anchors = (
{
name = bottom;
position = "{360, 0}";
},
{
name = center;
position = "{360, 375}";
},
{
name = pdcenter;
position = "{626, 375}";
},
{
name = top;
position = "{360, 730}";
},
{
name = topright;
position = "{646, 730}";
}
);
layerId = "BBD4F1D4-C528-4189-A814-DA4A859CEB77";
shapes = (
{
closed = 1;
nodes = (
(435,415,l),
(418,477,l),
(18,315,l),
(36,253,l)
);
},
{
alignment = -1;
pos = (90,0);
ref = L;
}
);
width = 716;
},
{
layerId = "8CC5B2A3-F3A2-43C7-BF8D-A4D4BD884141";
shapes = (
{
closed = 1;
nodes = (
(375,431,l),
(369,449,l),
(18,299,l),
(23,281,l)
);
},
{
alignment = -1;
pos = (81,0);
ref = L;
}
);
width = 702;
}
);
leftKerningGroup = t;
rightKerningGroup = L;
unicode = 321;
},
{
glyphname = M;
leftMetricsKey = "=A*4.2";
rightMetricsKey = "=|";
layers = (
{
layerId = "6AE7522C-F5AE-4477-8831-CE4DC346C7C6";
shapes = (
{
closed = 1;
nodes = (
(182,0,l),
(276,460,l),
(278,460,l),
(310,80,l),
(505,80,l),
(646,460,l),
(648,460,l),
(611,0,l),
(806,0,l),
(824,730,l),
(590,730,l),
(437,280,l),
(435,280,l),
(410,730,l),
(176,730,l),
(-13,0,l)
);
}
);
width = 877;
},
{
layerId = "11CDF5B9-5D39-499F-A086-8A564624B78D";
shapes = (
{
closed = 1;
nodes = (
(162,0,l),
(281,524,l),
(283,524,l),
(354,80,l),
(498,80,l),
(695,524,l),
(697,524,l),
(667,0,l),
(809,0,l),
(825,730,l),
(654,730,l),
(450,242,l),
(448,242,l),
(381,730,l),
(211,730,l),
(21,0,l)
);
}
);
width = 914;
},
{
layerId = "BBD4F1D4-C528-4189-A814-DA4A859CEB77";
shapes = (
{
closed = 1;
nodes = (
(110,0,l),
(260,607,l),
(261,607,l),
(373,80,l),
(461,80,l),
(720,607,l),
(722,607,l),
(702,0,l),
(783,0,l),
(799,730,l),
(697,730,l),
(432,181,l),
(430,181,l),
(321,730,l),
(220,730,l),
(29,0,l)
);
}
);
width = 896;
},
{
layerId = "8CC5B2A3-F3A2-43C7-BF8D-A4D4BD884141";
leftMetricsKey = "=A*3.0";
shapes = (
{
closed = 1;
nodes = (
(35,0,l),
(220,704,l),
(221,704,l),
(371,80,l),
(402,80,l),
(728,704,l),
(729,704,l),
(716,0,l),
(736,0,l),
(749,730,l),
(720,730,l),
(390,97,l),
(388,97,l),
(237,730,l),
(207,730,l),
(15,0,l)
);
}
);
width = 835;
}
);
leftKerningGroup = H;
rightKerningGroup = H;
unicode = 77;
},
{
color = 10;
glyphname = N;
layers = (
{
anchors = (
{
name = bottom;
position = "{324, 0}";
},
{
name = top;
position = "{324, 730}";
}
);
layerId = "6AE7522C-F5AE-4477-8831-CE4DC346C7C6";
shapes = (
{
closed = 1;
nodes = (
(216,0,l),
(272,390,l),
(274,390,l),
(431,0,l),
(626,0,l),
(730,730,l),
(535,730,l),
(479,340,l),
(477,340,l),
(321,730,l),
(126,730,l),
(21,0,l)
);
}
);
width = 731;
},
{
anchors = (
{
name = bottom;
position = "{321, 0}";
},
{
name = top;
position = "{321, 730}";
}
);
layerId = "11CDF5B9-5D39-499F-A086-8A564624B78D";
shapes = (
{
closed = 1;
nodes = (
(168,0,l),
(239,497,l),
(241,497,l),
(467,0,l),
(609,0,l),
(714,730,l),
(577,730,l),
(506,233,l),
(504,233,l),
(279,730,l),
(135,730,l),
(31,0,l)
);
}
);
width = 725;
},
{
anchors = (
{
name = bottom;
position = "{317, 0}";
},
{
name = top;
position = "{317, 730}";
}
);
layerId = "BBD4F1D4-C528-4189-A814-DA4A859CEB77";
shapes = (
{
closed = 1;
nodes = (
(119,0,l),
(205,603,l),
(207,603,l),
(505,0,l),
(594,0,l),
(698,730,l),
(620,730,l),
(534,127,l),
(532,127,l),
(233,730,l),
(145,730,l),
(41,0,l)
);
}
);
width = 718;
},
{
anchors = (
{
name = bottom;
position = "{314, 0}";
},
{
name = top;
position = "{314, 730}";
}
);
layerId = "8CC5B2A3-F3A2-43C7-BF8D-A4D4BD884141";
shapes = (
{
closed = 1;
nodes = (
(70,0,l),
(171,709,l),
(173,709,l),
(547,0,l),
(577,0,l),
(681,730,l),
(662,730,l),
(561,21,l),
(559,21,l),
(185,730,l),
(155,730,l),
(51,0,l)
);
}
);
width = 712;
}
);
leftKerningGroup = H;
rightKerningGroup = H;
unicode = 78;
},
{
color = 11;
glyphname = Eng;
layers = (
{
anchors = (
{
name = bottom;
position = "{319, 0}";
},
{
name = top;
position = "{319, 730}";
}
);
layerId = "6AE7522C-F5AE-4477-8831-CE4DC346C7C6";
shapes = (
{
closed = 1;
nodes = (
(530,-229,o),
(592,-169,o),
(616,0,cs),
(720,730,l),
(525,730,l),
(468,330,l),
(466,330,l),
(320,730,l),
(125,730,l),
(21,0,l),
(216,0,l),
(273,400,l),
(275,400,l),
(421,0,l),
(421,0,l),
(413,-55,o),
(399,-70,o),
(358,-70,cs),
(337,-70,o),
(305,-66,o),
(279,-59,c),
(236,-214,l),
(282,-223,o),
(330,-229,o),
(376,-229,cs)
);
}
);
width = 722;
},
{
anchors = (
{
name = bottom;
position = "{314, 0}";
},
{
name = top;
position = "{314, 730}";
}
);
layerId = "11CDF5B9-5D39-499F-A086-8A564624B78D";
shapes = (
{
closed = 1;
nodes = (
(513,-224,o),
(573,-165,o),
(595,-17,cs),
(701,730,l),
(564,730,l),
(493,230,l),
(491,230,l),
(278,730,l),
(135,730,l),
(31,0,l),
(168,0,l),
(239,500,l),
(241,500,l),
(459,-14,l),
(459,-17,l),
(449,-83,o),
(426,-107,o),
(370,-107,cs),
(347,-107,o),
(319,-103,o),
(295,-96,c),
(261,-208,l),
(301,-218,o),
(341,-224,o),
(381,-224,cs)
);
}
);
width = 712;
},
{
anchors = (
{
name = bottom;
position = "{309, 0}";
},
{
name = top;
position = "{309, 730}";
}
);
layerId = "BBD4F1D4-C528-4189-A814-DA4A859CEB77";
shapes = (
{
closed = 1;
nodes = (
(498,-218,o),
(554,-163,o),
(572,-38,cs),
(681,730,l),
(603,730,l),
(517,127,l),
(515,127,l),
(234,730,l),
(145,730,l),
(41,0,l),
(119,0,l),
(205,603,l),
(207,603,l),
(497,-20,l),
(495,-38,l),
(483,-116,o),
(451,-148,o),
(382,-148,cs),
(357,-148,o),
(333,-143,o),
(311,-135,c),
(288,-202,l),
(320,-212,o),
(353,-218,o),
(386,-218,cs)
);
}
);
width = 702;
},
{
anchors = (
{
name = bottom;
position = "{304, 0}";
},
{
name = top;
position = "{304, 730}";
}
);
layerId = "8CC5B2A3-F3A2-43C7-BF8D-A4D4BD884141";
shapes = (
{
closed = 1;
nodes = (
(486,-211,o),
(535,-164,o),
(549,-61,cs),
(662,730,l),
(642,730,l),
(541,21,l),
(539,21,l),
(186,730,l),
(155,730,l),
(51,0,l),
(70,0,l),
(171,709,l),
(173,709,l),
(535,-18,l),
(529,-61,ls),
(516,-153,o),
(477,-191,o),
(394,-191,cs),
(370,-191,o),
(344,-186,o),
(325,-177,c),
(315,-196,l),
(338,-205,o),
(365,-211,o),
(391,-211,cs)
);
}
);
width = 692;
}
);
leftKerningGroup = H;
rightKerningGroup = H;
unicode = 330;
},
{
color = 10;
glyphname = O;
layers = (
{
anchors = (
{
name = bottom;
position = "{360, 0}";
},
{
name = center;
position = "{360, 365}";
},
{
name = ogonek;
position = "{441, 0}";
},
{
name = top;
position = "{360, 730}";
},
{
name = topleft;
position = "{-18, 730}";
},
{
name = topright;
position = "{552, 690}";
}
);
layerId = "6AE7522C-F5AE-4477-8831-CE4DC346C7C6";
shapes = (
{
closed = 1;
nodes = (
(591,-10,o),
(749,129,o),
(782,365,cs),
(816,601,o),
(698,740,o),
(465,740,cs),
(232,740,o),
(75,601,o),
(41,365,cs),
(8,129,o),
(125,-10,o),
(358,-10,cs)
);
},
{
closed = 1;
nodes = (
(269,160,o),
(222,229,o),
(241,365,cs),
(261,501,o),
(328,570,o),
(441,570,cs),
(554,570,o),
(602,501,o),
(582,365,cs),
(563,229,o),
(496,160,o),
(383,160,cs)
);
}
);
width = 804;
},
{
anchors = (
{
name = bottom;
position = "{361, 0}";
},
{
name = center;
position = "{361, 365}";
},
{
name = ogonek;
position = "{431, 0}";
},
{
name = top;
position = "{361, 730}";
},
{
name = topleft;
position = "{-14, 730}";
},
{
name = topright;
position = "{550, 690}";
}
);
layerId = "11CDF5B9-5D39-499F-A086-8A564624B78D";
shapes = (
{
closed = 1;
nodes = (
(586,-10,o),
(747,134,o),
(780,365,cs),
(813,596,o),
(694,740,o),
(466,740,cs),
(240,740,o),
(79,596,o),
(46,365,cs),
(13,134,o),
(133,-10,o),
(359,-10,cs)
);
},
{
closed = 1;
nodes = (
(233,113,o),
(163,206,o),
(186,365,cs),
(208,524,o),
(305,617,o),
(449,617,cs),
(592,617,o),
(663,524,o),
(640,365,cs),
(617,206,o),
(520,113,o),
(377,113,cs)
);
}
);
width = 807;
},
{
anchors = (
{
name = bottom;
position = "{363, 0}";
},
{
name = center;
position = "{363, 365}";
},
{
name = ogonek;
position = "{422, 0}";
},
{
name = top;
position = "{363, 730}";
},
{
name = topleft;
position = "{-8, 730}";
},
{
name = topright;
position = "{549, 690}";
}
);
layerId = "BBD4F1D4-C528-4189-A814-DA4A859CEB77";
shapes = (
{
closed = 1;
nodes = (
(583,-10,o),
(747,138,o),
(779,365,cs),
(812,592,o),
(690,740,o),
(469,740,cs),
(249,740,o),
(84,592,o),
(52,365,cs),
(20,138,o),
(142,-10,o),
(362,-10,cs)
);
},
{
closed = 1;
nodes = (
(198,63,o),
(106,181,o),
(132,365,cs),
(158,549,o),
(284,667,o),
(459,667,cs),
(632,667,o),
(726,549,o),
(699,365,cs),
(673,181,o),
(546,63,o),
(373,63,cs)
);
}
);
width = 811;
},
{
anchors = (
{
name = bottom;
position = "{365, 0}";
},
{
name = center;
position = "{365, 365}";
},
{
name = ogonek;
position = "{412, 0}";
},
{
name = top;
position = "{365, 730}";
},
{
name = topleft;
position = "{-3, 730}";
},
{
name = topright;
position = "{547, 690}";
}
);
layerId = "8CC5B2A3-F3A2-43C7-BF8D-A4D4BD884141";
shapes = (
{
closed = 1;
nodes = (
(579,-10,o),
(746,142,o),
(777,365,cs),
(809,588,o),
(686,740,o),
(470,740,cs),
(257,740,o),
(89,588,o),
(57,365,cs),
(25,142,o),
(150,-10,o),
(363,-10,cs)
);
},
{
closed = 1;
nodes = (
(162,10,o),
(46,153,o),
(76,365,cs),
(107,577,o),
(264,720,o),
(468,720,cs),
(672,720,o),
(789,577,o),
(759,365,cs),
(729,153,o),
(571,10,o),
(367,10,cs)
);
}
);
width = 814;
}
);
leftKerningGroup = O;
rightKerningGroup = O;
unicode = 79;
},
{
color = 11;
glyphname = Oslash;
layers = (
{
anchors = (
{
name = bottom;
position = "{365, 0}";
},
{
name = top;
position = "{365, 730}";
}
);
layerId = "6AE7522C-F5AE-4477-8831-CE4DC346C7C6";
shapes = (
{
closed = 1;
nodes = (
(211,28,l),
(200,37,l),
(720,621,l),
(730,612,l),
(804,695,l),
(697,785,l),
(623,702,l),
(634,693,l),
(115,109,l),
(104,118,l),
(30,35,l),
(137,-55,l)
);
},
{
alignment = -1;
pos = (1,0);
ref = O;
}
);
width = 814;
},
{
anchors = (
{
name = bottom;
position = "{362, 0}";
},
{
name = top;
position = "{362, 730}";
}
);
layerId = "11CDF5B9-5D39-499F-A086-8A564624B78D";
shapes = (
{
closed = 1;
nodes = (
(191.286,37,l),
(187.714,40,l),
(709.427,626,l),
(712.999,623,l),
(786.999,707,l),
(707.57,774,l),
(636.999,693,l),
(640.57,690,l),
(118.857,104,l),
(115.286,107,l),
(40.429,24,l),
(119.714,-44,l)
);
},
{
alignment = -1;
pos = (1,0);
ref = O;
}
);
width = 807;
},
{
anchors = (
{
name = bottom;
position = "{358, 0}";
},
{
name = top;
position = "{358, 730}";
}
);
layerId = "BBD4F1D4-C528-4189-A814-DA4A859CEB77";
shapes = (
{
closed = 1;
nodes = (
(171,48,l),
(171,48,l),
(695,638,l),
(695,638,l),
(768,720,l),
(720,761,l),
(650,682,l),
(650,682,l),
(126,92,l),
(126,92,l),
(53,11,l),
(101,-31,l)
);
},
{
alignment = -1;
pos = (1,0);
ref = O;
}
);
width = 801;
},
{
anchors = (
{
name = bottom;
position = "{355, 0}";
},
{
name = top;
position = "{355, 730}";
}
);
layerId = "8CC5B2A3-F3A2-43C7-BF8D-A4D4BD884141";
shapes = (
{
closed = 1;
nodes = (
(151,63,l),
(151,63,l),
(678,655,l),
(678,655,l),
(748,734,l),
(734,746,l),
(663,667,l),
(663,667,l),
(137,75,l),
(137,75,l),
(66,-4,l),
(81,-16,l)
);
},
{
alignment = -1;
pos = (1,0);
ref = O;
}
);
width = 794;
}
);
leftKerningGroup = O;
rightKerningGroup = O;
unicode = 216;
},
{
color = 11;
glyphname = OE;
layers = (
{
layerId = "6AE7522C-F5AE-4477-8831-CE4DC346C7C6";
shapes = (
{
closed = 1;
nodes = (
(485,-10,o),
(587,27,o),
(661,96,c),
(541,235,l),
(506,185,o),
(455,160,o),
(387,160,cs),
(274,160,o),
(227,229,o),
(246,365,cs),
(266,501,o),
(332,570,o),
(445,570,cs),
(513,570,o),
(558,545,o),
(578,495,c),
(738,634,l),
(683,703,o),
(592,740,o),
(470,740,cs),
(234,740,o),
(75,601,o),
(41,365,cs),
(7,129,o),
(127,-10,o),
(363,-10,cs)
);
},
{
alignment = -1;
pos = (444,0);
ref = E;
}
);
width = 1102;
},
{
anchors = (
{
name = bottom;
position = "{722, 0}";
},
{
name = ogonek;
position = "{980, 0}";
},
{
name = top;
position = "{722, 730}";
},
{
name = topleft;
position = "{401, 730}";
}
);
layerId = "11CDF5B9-5D39-499F-A086-8A564624B78D";
shapes = (
{
closed = 1;
nodes = (
(448,-10,o),
(524,12,o),
(586,53,c),
(519,159,l),
(481,129,o),
(433,113,o),
(377,113,cs),
(236,113,o),
(167,205,o),
(190,365,cs),
(213,525,o),
(308,617,o),
(449,617,cs),
(505,617,o),
(549,601,o),
(578,571,c),
(675,677,l),
(625,718,o),
(555,740,o),
(467,740,cs),
(240,740,o),
(79,597,o),
(46,365,cs),
(13,133,o),
(133,-10,o),
(360,-10,cs)
);
},
{
alignment = -1;
pos = (427,0);
ref = E;
}
);
width = 1076;
},
{
anchors = (
{
name = bottom;
position = "{706, 0}";
},
{
name = ogonek;
position = "{953, 0}";
},
{
name = top;
position = "{706, 730}";
},
{
name = topleft;
position = "{377, 730}";
}
);
layerId = "BBD4F1D4-C528-4189-A814-DA4A859CEB77";
shapes = (
{
closed = 1;
nodes = (
(416,-10,o),
(469,1,o),
(518,22,c),
(491,88,l),
(453,72,o),
(412,63,o),
(367,63,cs),
(197,63,o),
(107,179,o),
(133,365,cs),
(160,551,o),
(283,667,o),
(453,667,cs),
(498,667,o),
(537,658,o),
(570,642,c),
(616,708,l),
(573,729,o),
(523,740,o),
(464,740,cs),
(246,740,o),
(84,593,o),
(51,365,cs),
(19,137,o),
(139,-10,o),
(357,-10,cs)
);
},
{
alignment = -1;
pos = (409,0);
ref = E;
}
);
width = 1056;
},
{
layerId = "8CC5B2A3-F3A2-43C7-BF8D-A4D4BD884141";
shapes = (
{
closed = 1;
nodes = (
(390,-10,o),
(425,-5,o),
(460,4,c),
(455,23,l),
(424,14,o),
(390,10,o),
(355,10,cs),
(158,10,o),
(46,152,o),
(76,365,cs),
(107,578,o),
(260,720,o),
(457,720,cs),
(492,720,o),
(524,716,o),
(553,707,c),
(563,726,l),
(531,735,o),
(497,740,o),
(460,740,cs),
(251,740,o),
(88,588,o),
(56,365,cs),
(24,142,o),
(144,-10,o),
(353,-10,cs)
);
},
{
alignment = -1;
pos = (390,0);
ref = E;
}
);
width = 1034;
}
);
leftKerningGroup = O;
rightKerningGroup = E;
unicode = 338;
},
{
color = 10;
glyphname = P;
layers = (
{
layerId = "6AE7522C-F5AE-4477-8831-CE4DC346C7C6";
shapes = (
{
closed = 1;
nodes = (
(216,0,l),
(298,570,l),
(344,570,ls),
(443,570,o),
(483,537,o),
(473,465,cs),
(463,393,o),
(413,360,o),
(314,360,cs),
(170,360,l),
(147,200,l),
(316,200,ls),
(523,200,o),
(648,293,o),
(673,465,cs),
(698,641,o),
(594,730,o),
(362,730,cs),
(126,730,l),
(21,0,l)
);
}
);
width = 674;
},
{
layerId = "11CDF5B9-5D39-499F-A086-8A564624B78D";
shapes = (
{
closed = 1;
nodes = (
(168,0,l),
(255,610,l),
(337,610,ls),
(477,610,o),
(532,570,o),
(519,480,cs),
(506,389,o),
(440,349,o),
(299,349,cs),
(149,349,l),
(132,229,l),
(299,229,ls),
(514,229,o),
(635,313,o),
(658,480,cs),
(683,649,o),
(583,730,o),
(351,730,cs),
(135,730,l),
(31,0,l)
);
}
);
width = 653;
},
{
layerId = "BBD4F1D4-C528-4189-A814-DA4A859CEB77";
shapes = (
{
closed = 1;
nodes = (
(119,0,l),
(213,657,l),
(330,657,ls),
(511,657,o),
(581,608,o),
(565,495,cs),
(549,381,o),
(465,333,o),
(283,333,cs),
(127,333,l),
(117,259,l),
(282,259,ls),
(506,259,o),
(622,334,o),
(645,495,cs),
(668,656,o),
(571,730,o),
(339,730,cs),
(145,730,l),
(41,0,l)
);
}
);
width = 641;
},
{
layerId = "8CC5B2A3-F3A2-43C7-BF8D-A4D4BD884141";
shapes = (
{
closed = 1;
nodes = (
(70,0,l),
(172,710,l),
(325,710,ls),
(547,710,o),
(631,650,o),
(611,510,cs),
(591,370,o),
(490,310,o),
(267,310,cs),
(105,310,l),
(102,290,l),
(265,290,ls),
(498,290,o),
(609,357,o),
(630,510,cs),
(652,663,o),
(561,730,o),
(327,730,cs),
(155,730,l),
(51,0,l)
);
}
);
width = 627;
}
);
leftKerningGroup = H;
rightKerningGroup = P;
unicode = 80;
},
{
color = 11;
glyphname = Thorn;
layers = (
{
layerId = "6AE7522C-F5AE-4477-8831-CE4DC346C7C6";
shapes = (
{
closed = 1;
nodes = (
(302,120,ls),
(492,120,o),
(607,209,o),
(631,375,cs),
(655,547,o),
(559,630,o),
(336,630,cs),
(209,630,l),
(186,470,l),
(322,470,ls),
(406,470,o),
(440,440,o),
(431,375,cs),
(421,310,o),
(379,280,o),
(295,280,cs),
(159,280,l),
(136,120,l)
);
},
{
closed = 1;
nodes = (
(216,0,l),
(320,730,l),
(125,730,l),
(21,0,l)
);
}
);
width = 644;
},
{
layerId = "11CDF5B9-5D39-499F-A086-8A564624B78D";
shapes = (
{
closed = 1;
nodes = (
(274,135,ls),
(466,135,o),
(576,215,o),
(599,375,cs),
(622,538,o),
(532,615,o),
(317,615,cs),
(187,615,l),
(170,495,l),
(307,495,ls),
(425,495,o),
(471,458,o),
(459,374,cs),
(448,291,o),
(390,253,o),
(272,253,cs),
(135,253,l),
(118,135,l)
);
},
{
closed = 1;
nodes = (
(168,0,l),
(272,730,l),
(135,730,l),
(31,0,l)
);
}
);
width = 608;
},
{
layerId = "BBD4F1D4-C528-4189-A814-DA4A859CEB77";
shapes = (
{
closed = 1;
nodes = (
(247,150,ls),
(441,150,o),
(544,222,o),
(566,375,cs),
(588,530,o),
(504,600,o),
(299,600,cs),
(166,600,l),
(155,527,l),
(291,527,ls),
(443,527,o),
(502,481,o),
(486,374,cs),
(471,268,o),
(400,222,o),
(248,222,cs),
(112,222,l),
(101,150,l)
);
},
{
closed = 1;
nodes = (
(119,0,l),
(223,730,l),
(145,730,l),
(41,0,l)
);
}
);
width = 578;
},
{
layerId = "8CC5B2A3-F3A2-43C7-BF8D-A4D4BD884141";
shapes = (
{
closed = 1;
nodes = (
(221,165,ls),
(418,165,o),
(513,229,o),
(534,375,cs),
(554,521,o),
(478,585,o),
(281,585,cs),
(144,585,l),
(141,565,l),
(278,565,ls),
(464,565,o),
(533,509,o),
(514,375,cs),
(494,241,o),
(409,185,o),
(223,185,cs),
(86,185,l),
(84,165,l)
);
},
{
closed = 1;
nodes = (
(70,0,l),
(174,730,l),
(155,730,l),
(51,0,l)
);
}
);
width = 549;
}
);
leftKerningGroup = H;
rightKerningGroup = O;
unicode = 222;
},
{
color = 10;
glyphname = Q;
layers = (
{
layerId = "6AE7522C-F5AE-4477-8831-CE4DC346C7C6";
shapes = (
{
closed = 1;
nodes = (
(734,-40,l),
(705,8,o),
(668,44,o),
(622,69,c),
(622,71,l),
(709,135,o),
(764,237,o),
(782,365,cs),
(816,601,o),
(698,740,o),
(465,740,cs),
(232,740,o),
(75,601,o),
(41,365,cs),
(8,129,o),
(125,-10,o),
(358,-10,cs),
(466,-10,o),
(512,-41,o),
(563,-150,c)
);
},
{
closed = 1;
nodes = (
(269,160,o),
(222,229,o),
(241,365,cs),
(261,501,o),
(328,570,o),
(441,570,cs),
(554,570,o),
(602,501,o),
(582,365,cs),
(563,229,o),
(496,160,o),
(383,160,cs)
);
}
);
width = 801;
},
{
layerId = "11CDF5B9-5D39-499F-A086-8A564624B78D";
shapes = (
{
closed = 1;
nodes = (
(724,-61,l),
(691,-13,o),
(644,23,o),
(585,48,c),
(585,50,l),
(692,112,o),
(761,223,o),
(781,365,cs),
(814,596,o),
(694,740,o),
(467,740,cs),
(241,740,o),
(79,596,o),
(46,365,cs),
(13,134,o),
(134,-10,o),
(360,-10,cs),
(477,-10,o),
(555,-50,o),
(605,-139,c)
);
},
{
closed = 1;
nodes = (
(234,113,o),
(164,206,o),
(187,365,cs),
(209,524,o),
(306,617,o),
(450,617,cs),
(593,617,o),
(664,524,o),
(641,365,cs),
(618,206,o),
(521,113,o),
(378,113,cs)
);
}
);
width = 812;
},
{
layerId = "BBD4F1D4-C528-4189-A814-DA4A859CEB77";
shapes = (
{
closed = 1;
nodes = (
(717,-81,l),
(675,-31,o),
(614,5,o),
(534,25,c),
(534,27,l),
(667,81,o),
(757,204,o),
(780,365,cs),
(813,592,o),
(691,740,o),
(469,740,cs),
(250,740,o),
(85,592,o),
(52,365,cs),
(20,138,o),
(143,-10,o),
(362,-10,cs),
(495,-10,o),
(595,-51,o),
(648,-127,c)
);
},
{
closed = 1;
nodes = (
(199,63,o),
(106,181,o),
(132,365,cs),
(158,549,o),
(285,667,o),
(460,667,cs),
(632,667,o),
(727,549,o),
(700,365,cs),
(674,181,o),
(546,63,o),
(374,63,cs)
);
}
);
width = 812;
},
{
layerId = "8CC5B2A3-F3A2-43C7-BF8D-A4D4BD884141";
shapes = (
{
closed = 1;
nodes = (
(707,-102,l),
(656,-46,o),
(576,-11,o),
(468,2,c),
(469,4,l),
(631,44,o),
(751,180,o),
(777,365,cs),
(809,588,o),
(686,740,o),
(470,740,cs),
(257,740,o),
(89,588,o),
(57,365,cs),
(25,142,o),
(150,-10,o),
(363,-10,cs),
(517,-10,o),
(628,-46,o),
(689,-116,c)
);
},
{
closed = 1;
nodes = (
(162,10,o),
(46,153,o),
(76,365,cs),
(107,577,o),
(264,720,o),
(468,720,cs),
(672,720,o),
(789,577,o),
(759,365,cs),
(729,153,o),
(571,10,o),
(367,10,cs)
);
}
);
width = 814;
}
);
leftKerningGroup = O;
rightKerningGroup = O;
unicode = 81;
},
{
glyphname = R;
layers = (
{
anchors = (
{
name = b.dotbelowcomb_2;
position = "{280, 0}";
},
{
name = t.uni0302_2;
position = "{280, 730}";
}
);
layerId = "6AE7522C-F5AE-4477-8831-CE4DC346C7C6";
shapes = (
{
closed = 1;
nodes = (
(254,255,l),
(398,0,l),
(606,0,l),
(453,272,l),
(453,272,l),
(509,287,o),
(553,314,o),
(586,352,cs),
(619,389,o),
(639,437,o),
(648,495,cs),
(659,574,o),
(640,633,o),
(591,672,cs),
(543,711,o),
(462,730,o),
(350,730,cs),
(125,730,l),
(21,0,l),
(216,0,l),
(252,255,l)
);
},
{
closed = 1;
nodes = (
(273,400,l),
(297,570,l),
(336,570,ls),
(378,570,o),
(408,563,o),
(426,549,cs),
(444,535,o),
(450,514,o),
(446,485,cs),
(442,456,o),
(430,435,o),
(408,421,cs),
(386,407,o),
(354,400,o),
(312,400,cs)
);
}
);
width = 674;
},
{
anchors = (
{
name = b.dotbelowcomb_2;
position = "{267, 0}";
},
{
name = t.uni0302_2;
position = "{267, 730}";
}
);
layerId = "11CDF5B9-5D39-499F-A086-8A564624B78D";
shapes = (
{
closed = 1;
nodes = (
(245,286,l),
(416,0,l),
(570,0,l),
(393,295,l),
(393,295,l),
(460,305,o),
(511,329,o),
(548,365,cs),
(586,400,o),
(609,449,o),
(618,510,cs),
(629,585,o),
(611,640,o),
(567,677,cs),
(522,712,o),
(445,730,o),
(340,730,cs),
(135,730,l),
(31,0,l),
(168,0,l),
(208,286,l)
);
},
{
closed = 1;
nodes = (
(225,399,l),
(255,610,l),
(330,610,ls),
(386,610,o),
(426,602,o),
(450,585,cs),
(473,568,o),
(483,541,o),
(478,504,cs),
(472,467,o),
(455,440,o),
(427,424,cs),
(398,407,o),
(356,399,o),
(300,399,cs)
);
}
);
width = 642;
},
{
anchors = (
{
name = b.dotbelowcomb_2;
position = "{253, 0}";
},
{
name = t.uni0302_2;
position = "{253, 730}";
}
);
layerId = "BBD4F1D4-C528-4189-A814-DA4A859CEB77";
shapes = (
{
closed = 1;
nodes = (
(230,318,l),
(442,0,l),
(535,0,l),
(321,321,l),
(331,321,l),
(409,326,o),
(470,346,o),
(511,379,cs),
(552,412,o),
(578,461,o),
(587,525,cs),
(597,596,o),
(582,648,o),
(541,681,cs),
(500,714,o),
(430,730,o),
(330,730,cs),
(145,730,l),
(41,0,l),
(119,0,l),
(164,318,l)
);
},
{
closed = 1;
nodes = (
(174,389,l),
(213,657,l),
(323,657,ls),
(395,657,o),
(445,646,o),
(474,625,cs),
(504,604,o),
(514,569,o),
(507,522,cs),
(501,475,o),
(480,441,o),
(445,420,cs),
(410,399,o),
(357,389,o),
(285,389,cs)
);
}
);
width = 610;
},
{
anchors = (
{
name = b.dotbelowcomb_2;
position = "{241, 0}";
},
{
name = t.uni0302_2;
position = "{241, 730}";
}
);
layerId = "8CC5B2A3-F3A2-43C7-BF8D-A4D4BD884141";
shapes = (
{
closed = 1;
nodes = (
(209,350,l),
(472,0,l),
(499,0,l),
(236,350,l),
(266,350,ls),
(359,350,o),
(427,365,o),
(473,395,cs),
(520,425,o),
(548,473,o),
(557,540,cs),
(567,607,o),
(553,655,o),
(515,685,cs),
(477,715,o),
(413,730,o),
(320,730,cs),
(155,730,l),
(51,0,l),
(70,0,l),
(120,350,l)
);
},
{
closed = 1;
nodes = (
(123,370,l),
(171,710,l),
(317,710,ls),
(404,710,o),
(466,697,o),
(500,670,cs),
(534,643,o),
(546,600,o),
(537,540,cs),
(529,480,o),
(504,437,o),
(463,410,cs),
(421,383,o),
(356,370,o),
(269,370,cs)
);
}
);
width = 578;
}
);
leftKerningGroup = H;
rightKerningGroup = R;
unicode = 82;
},
{
color = 10;
glyphname = S;
layers = (
{
anchors = (
{
name = bottom;
position = "{286, 0}";
},
{
name = cedi;
position = "{203, 0}";
},
{
name = top;
position = "{286, 730}";
}
);
layerId = "6AE7522C-F5AE-4477-8831-CE4DC346C7C6";
shapes = (
{
closed = 1;
nodes = (
(469,-10,o),
(591,69,o),
(611,210,cs),
(627,320,o),
(570,384,o),
(411,434,cs),
(296,470,o),
(270,488,o),
(276,526,cs),
(281,560,o),
(312,575,o),
(376,575,cs),
(447,575,o),
(525,555,o),
(586,522,c),
(652,692,l),
(589,722,o),
(495,740,o),
(402,740,cs),
(209,740,o),
(91,663,o),
(71,525,cs),
(55,410,o),
(113,342,o),
(267,297,cs),
(387,261,o),
(411,246,o),
(406,210,cs),
(401,175,o),
(366,155,o),
(311,155,cs),
(240,155,o),
(135,186,o),
(75,224,c),
(10,54,l),
(67,14,o),
(164,-10,o),
(274,-10,cs)
);
}
);
width = 662;
},
{
anchors = (
{
name = bottom;
position = "{286, 0}";
},
{
name = cedi;
position = "{212, 0}";
},
{
name = top;
position = "{286, 730}";
}
);
layerId = "11CDF5B9-5D39-499F-A086-8A564624B78D";
shapes = (
{
closed = 1;
nodes = (
(461,-10,o),
(578,67,o),
(597,201,cs),
(613,311,o),
(554,372,o),
(389,421,cs),
(256,461,o),
(222,487,o),
(229,537,cs),
(236,591,o),
(287,618,o),
(378,618,cs),
(455,618,o),
(535,599,o),
(594,567,c),
(642,691,l),
(584,721,o),
(489,740,o),
(398,740,cs),
(218,740,o),
(105,666,o),
(86,537,cs),
(71,428,o),
(130,364,o),
(289,318,cs),
(426,279,o),
(461,254,o),
(454,202,cs),
(446,144,o),
(391,112,o),
(303,112,cs),
(225,112,o),
(130,138,o),
(69,177,c),
(21,52,l),
(81,13,o),
(175,-10,o),
(276,-10,cs)
);
}
);
width = 662;
},
{
anchors = (
{
name = bottom;
position = "{280, 0}";
},
{
name = cedi;
position = "{214, 0}";
},
{
name = top;
position = "{280, 730}";
}
);
layerId = "BBD4F1D4-C528-4189-A814-DA4A859CEB77";
shapes = (
{
closed = 1;
nodes = (
(446,-10,o),
(558,65,o),
(576,192,cs),
(593,312,o),
(511,363,o),
(359,406,cs),
(227,444,o),
(165,473,o),
(176,548,cs),
(187,624,o),
(257,667,o),
(375,667,cs),
(456,667,o),
(542,647,o),
(595,617,c),
(626,691,l),
(572,720,o),
(475,740,o),
(387,740,cs),
(220,740,o),
(112,670,o),
(95,549,cs),
(79,435,o),
(159,383,o),
(305,342,cs),
(441,305,o),
(507,275,o),
(496,193,cs),
(484,111,o),
(409,63,o),
(288,63,cs),
(205,63,o),
(117,86,o),
(56,124,c),
(26,50,l),
(88,12,o),
(178,-10,o),
(272,-10,cs)
);
}
);
width = 649;
},
{
anchors = (
{
name = bottom;
position = "{273, 0}";
},
{
name = cedi;
position = "{216, 0}";
},
{
name = top;
position = "{273, 730}";
}
);
background = {
shapes = (
{
closed = 0;
nodes = (
(71,57,l),
(142,20,o),
(232,0,o),
(320,0,cs),
(480,0,o),
(576,68,o),
(576,183,cs),
(576,445,o),
(77,313,o),
(77,561,cs),
(77,667,o),
(168,730,o),
(320,730,cs),
(407,730,o),
(508,709,o),
(562,681,c)
);
}
);
};
layerId = "8CC5B2A3-F3A2-43C7-BF8D-A4D4BD884141";
shapes = (
{
closed = 1;
nodes = (
(430,-10,o),
(538,62,o),
(555,183,cs),
(576,324,o),
(448,357,o),
(329,388,cs),
(214,419,o),
(107,447,o),
(123,561,cs),
(137,661,o),
(230,720,o),
(373,720,cs),
(455,720,o),
(549,700,o),
(597,672,c),
(609,690,l),
(558,719,o),
(461,740,o),
(376,740,cs),
(222,740,o),
(119,673,o),
(103,561,cs),
(85,431,o),
(206,399,o),
(322,369,cs),
(440,338,o),
(554,308,o),
(536,183,cs),
(520,74,o),
(423,10,o),
(271,10,cs),
(186,10,o),
(103,30,o),
(42,66,c),
(29,48,l),
(94,11,o),
(180,-10,o),
(269,-10,cs)
);
}
);
width = 636;
}
);
leftKerningGroup = S;
rightKerningGroup = S;
unicode = 83;
},
{
color = 11;
glyphname = Germandbls;
layers = (
{
layerId = "6AE7522C-F5AE-4477-8831-CE4DC346C7C6";
shapes = (
{
closed = 1;
nodes = (
(552,-10,o),
(646,68,o),
(666,210,cs),
(681,313,o),
(641,376,o),
(548,395,c),
(549,397,l),
(648,500,l),
(671,660,o),
(591,740,o),
(405,740,cs),
(220,740,o),
(115,660,o),
(92,500,c),
(21,0,l),
(216,0,l),
(287,500,l),
(295,550,o),
(321,570,o),
(380,570,cs),
(440,570,o),
(461,550,o),
(453,500,c),
(366,400,l),
(349,280,l),
(349,280,l),
(447,280,o),
(474,267,o),
(467,220,cs),
(462,180,o),
(438,160,o),
(395,160,cs),
(372,160,o),
(347,166,o),
(316,180,c),
(267,15,l),
(306,-1,o),
(352,-10,o),
(401,-10,cs)
);
}
);
width = 700;
},
{
layerId = "11CDF5B9-5D39-499F-A086-8A564624B78D";
shapes = (
{
closed = 1;
nodes = (
(524,-10,o),
(618,65,o),
(638,200,cs),
(653,309,o),
(606,374,o),
(500,387,c),
(501,389,l),
(618,522,l),
(638,667,o),
(564,740,o),
(396,740,cs),
(223,740,o),
(125,661,o),
(103,502,cs),
(31,0,l),
(168,0,l),
(240,502,ls),
(252,585,o),
(290,617,o),
(378,617,cs),
(456,617,o),
(490,592,o),
(484,541,c),
(363,400,l),
(348,293,l),
(354,293,ls),
(466,293,o),
(508,267,o),
(499,203,cs),
(491,145,o),
(445,113,o),
(370,113,cs),
(340,113,o),
(313,119,o),
(278,134,c),
(243,12,l),
(283,-2,o),
(326,-10,o),
(372,-10,cs)
);
}
);
width = 671;
},
{
layerId = "BBD4F1D4-C528-4189-A814-DA4A859CEB77";
shapes = (
{
closed = 1;
nodes = (
(496,-10,o),
(592,61,o),
(610,190,cs),
(627,305,o),
(566,372,o),
(439,379,c),
(439,381,l),
(585,544,l),
(603,674,o),
(537,740,o),
(387,740,cs),
(225,740,o),
(135,663,o),
(112,504,cs),
(40,0,l),
(118,0,l),
(190,504,ls),
(206,619,o),
(261,667,o),
(376,667,cs),
(472,667,o),
(517,633,o),
(510,565,c),
(357,393,l),
(346,317,l),
(359,317,ls),
(487,317,o),
(542,275,o),
(530,190,cs),
(519,109,o),
(452,63,o),
(342,63,cs),
(306,63,o),
(276,68,o),
(240,83,c),
(217,10,l),
(256,-4,o),
(297,-10,o),
(342,-10,cs)
);
}
);
width = 648;
},
{
layerId = "8CC5B2A3-F3A2-43C7-BF8D-A4D4BD884141";
shapes = (
{
closed = 1;
nodes = (
(469,-10,o),
(565,58,o),
(583,180,cs),
(600,302,o),
(524,370,o),
(370,370,c),
(370,372,l),
(553,565,l),
(569,681,o),
(511,740,o),
(378,740,cs),
(228,740,o),
(145,664,o),
(122,505,cs),
(50,0,l),
(69,0,l),
(141,505,ls),
(162,653,o),
(236,720,o),
(375,720,cs),
(494,720,o),
(545,672,o),
(534,572,c),
(351,379,l),
(347,350,l),
(367,350,ls),
(510,350,o),
(578,290,o),
(563,180,cs),
(547,70,o),
(460,10,o),
(315,10,cs),
(272,10,o),
(236,15,o),
(202,26,c),
(193,7,l),
(231,-5,o),
(271,-10,o),
(313,-10,cs)
);
}
);
width = 624;
}
);
leftKerningGroup = H;
rightKerningGroup = B;
unicode = 7838;
},
{
color = 11;
glyphname = Schwa;
layers = (
{
background = {
shapes = (
{
closed = 1;
nodes = (
(528,-10,o),
(618,5,o),
(679,29,c),
(645,194,l),
(574,171,o),
(503,160,o),
(428,160,cs),
(286,160,o),
(231,199,o),
(231,300,cs),
(231,387,ls),
(231,515,o),
(277,570,o),
(381,570,cs),
(485,570,o),
(531,515,o),
(531,387,c),
(598,440,l),
(177,440,l),
(177,282,l),
(726,282,l),
(729,297,o),
(731,346,o),
(731,379,cs),
(731,607,o),
(604,740,o),
(388,740,cs),
(166,740,o),
(31,599,o),
(31,365,cs),
(31,124,o),
(178,-10,o),
(441,-10,cs)
);
}
);
};
layerId = "6AE7522C-F5AE-4477-8831-CE4DC346C7C6";
shapes = (
{
closed = 1;
nodes = (
(292,740,o),
(202,725,o),
(139,701,c),
(150,536,l),
(222,559,o),
(292,570,o),
(365,570,cs),
(504,570,o),
(552,531,o),
(537,430,cs),
(525,343,ls),
(506,215,o),
(454,160,o),
(352,160,cs),
(251,160,o),
(214,215,o),
(232,343,c),
(159,290,l),
(570,290,l),
(592,448,l),
(57,448,l),
(52,433,o),
(43,384,o),
(38,351,cs),
(6,123,o),
(111,-10,o),
(321,-10,cs),
(538,-10,o),
(689,131,o),
(723,365,cs),
(757,606,o),
(633,740,o),
(377,740,cs)
);
}
);
width = 744;
},
{
layerId = "11CDF5B9-5D39-499F-A086-8A564624B78D";
shapes = (
{
closed = 1;
nodes = (
(297,740,o),
(203,722,o),
(135,692,c),
(145,571,l),
(220,601,o),
(299,617,o),
(376,617,cs),
(539,617,o),
(604,550,o),
(584,407,cs),
(575,350,ls),
(553,192,o),
(474,113,o),
(344,113,cs),
(212,113,o),
(156,192,o),
(179,350,c),
(125,306,l),
(607,306,l),
(624,425,l),
(57,425,l),
(53,413,o),
(46,379,o),
(43,356,cs),
(10,125,o),
(114,-10,o),
(321,-10,cs),
(534,-10,o),
(681,130,o),
(714,365,cs),
(749,606,o),
(631,740,o),
(384,740,cs)
);
}
);
width = 740;
},
{
layerId = "BBD4F1D4-C528-4189-A814-DA4A859CEB77";
shapes = (
{
closed = 1;
nodes = (
(302,740,o),
(206,719,o),
(132,684,c),
(140,611,l),
(218,647,o),
(305,667,o),
(387,667,cs),
(576,667,o),
(658,571,o),
(631,386,cs),
(627,358,ls),
(600,166,o),
(495,63,o),
(335,63,cs),
(174,63,o),
(99,166,o),
(126,358,c),
(90,325,l),
(646,325,l),
(656,398,l),
(56,398,l),
(54,391,o),
(50,373,o),
(48,360,cs),
(15,127,o),
(116,-10,o),
(322,-10,cs),
(530,-10,o),
(673,130,o),
(706,365,cs),
(741,606,o),
(629,740,o),
(392,740,cs)
);
}
);
width = 738;
},
{
background = {
shapes = (
{
closed = 1;
nodes = (
(502,-10,o),
(600,14,o),
(676,54,c),
(667,72,l),
(592,32,o),
(497,10,o),
(406,10,cs),
(186,10,o),
(66,134,o),
(66,365,c),
(66,365,l),
(66,591,o),
(180,720,o),
(376,720,cs),
(572,720,o),
(686,591,o),
(686,365,c),
(701,382,l),
(56,382,l),
(56,362,l),
(706,362,l),
(706,364,o),
(706,364,o),
(706,365,cs),
(706,601,o),
(584,740,o),
(376,740,cs),
(168,740,o),
(46,601,o),
(46,365,cs),
(46,124,o),
(174,-10,o),
(406,-10,cs)
);
}
);
};
layerId = "8CC5B2A3-F3A2-43C7-BF8D-A4D4BD884141";
shapes = (
{
closed = 1;
nodes = (
(306,740,o),
(208,716,o),
(128,676,c),
(134,658,l),
(213,698,o),
(309,720,o),
(397,720,cs),
(612,720,o),
(711,596,o),
(678,365,c),
(678,365,l),
(646,139,o),
(516,10,o),
(325,10,cs),
(134,10,o),
(41,139,o),
(74,365,c),
(56,348,l),
(685,348,l),
(688,368,l),
(54,368,l),
(54,366,o),
(54,366,o),
(54,365,cs),
(20,129,o),
(119,-10,o),
(322,-10,cs),
(525,-10,o),
(664,129,o),
(698,365,cs),
(732,606,o),
(626,740,o),
(400,740,cs)
);
}
);
width = 734;
}
);
leftKerningGroup = O;
rightKerningGroup = O;
unicode = 399;
},
{
color = 10;
glyphname = T;
layers = (
{
anchors = (
{
name = bottom;
position = "{286, 0}";
},
{
name = cedi;
position = "{185, 0}";
},
{
name = center;
position = "{286, 365}";
},
{
name = top;
position = "{286, 730}";
}
);
layerId = "6AE7522C-F5AE-4477-8831-CE4DC346C7C6";
shapes = (
{
closed = 1;
nodes = (
(386,0,l),
(466,560,l),
(668,560,l),
(692,730,l),
(88,730,l),
(63,560,l),
(265,560,l),
(185,0,l)
);
}
);
width = 655;
},
{
anchors = (
{
name = bottom;
position = "{279, 0}";
},
{
name = cedi;
position = "{209, 0}";
},
{
name = center;
position = "{279, 365}";
},
{
name = top;
position = "{279, 730}";
}
);
layerId = "11CDF5B9-5D39-499F-A086-8A564624B78D";
shapes = (
{
closed = 1;
nodes = (
(349,0,l),
(436,607,l),
(665,607,l),
(682,730,l),
(84,730,l),
(66,607,l),
(295,607,l),
(208,0,l)
);
}
);
width = 641;
},
{
anchors = (
{
name = bottom;
position = "{278, 0}";
},
{
name = cedi;
position = "{238, 0}";
},
{
name = center;
position = "{278, 365}";
},
{
name = top;
position = "{278, 730}";
}
);
layerId = "BBD4F1D4-C528-4189-A814-DA4A859CEB77";
shapes = (
{
closed = 1;
nodes = (
(319,0,l),
(413,657,l),
(668,657,l),
(678,730,l),
(87,730,l),
(76,657,l),
(332,657,l),
(238,0,l)
);
}
);
width = 641;
},
{
anchors = (
{
name = bottom;
position = "{278, 0}";
},
{
name = cedi;
position = "{268, 0}";
},
{
name = center;
position = "{278, 365}";
},
{
name = top;
position = "{278, 730}";
}
);
layerId = "8CC5B2A3-F3A2-43C7-BF8D-A4D4BD884141";
shapes = (
{
closed = 1;
nodes = (
(288,0,l),
(389,710,l),
(672,710,l),
(675,730,l),
(90,730,l),
(87,710,l),
(369,710,l),
(268,0,l)
);
}
);
width = 640;
}
);
leftKerningGroup = T;
rightKerningGroup = T;
unicode = 84;
},
{
color = 11;
glyphname = Tbar;
layers = (
{
layerId = "6AE7522C-F5AE-4477-8831-CE4DC346C7C6";
shapes = (
{
closed = 1;
nodes = (
(592,245,l),
(612,385,l),
(112,385,l),
(92,245,l)
);
},
{
alignment = -1;
pos = (24,0);
ref = T;
}
);
width = 720;
},
{
anchors = (
{
name = bottom;
position = "{308, 0}";
},
{
name = cedi;
position = "{236, 0}";
},
{
name = center;
position = "{308, 365}";
},
{
name = top;
position = "{308, 730}";
}
);
layerId = "11CDF5B9-5D39-499F-A086-8A564624B78D";
shapes = (
{
closed = 1;
nodes = (
(568,262,l),
(584,368,l),
(111,368,l),
(95,262,l)
);
},
{
alignment = -1;
pos = (21,0);
ref = T;
}
);
width = 700;
},
{
anchors = (
{
name = bottom;
position = "{311, 0}";
},
{
name = cedi;
position = "{269, 0}";
},
{
name = center;
position = "{311, 365}";
},
{
name = top;
position = "{311, 730}";
}
);
layerId = "BBD4F1D4-C528-4189-A814-DA4A859CEB77";
shapes = (
{
closed = 1;
nodes = (
(557,282,l),
(567,348,l),
(121,348,l),
(111,282,l)
);
},
{
alignment = -1;
pos = (24,0);
ref = T;
}
);
width = 705;
},
{
layerId = "8CC5B2A3-F3A2-43C7-BF8D-A4D4BD884141";
shapes = (
{
closed = 1;
nodes = (
(547,305,l),
(549,325,l),
(129,325,l),
(127,305,l)
);
},
{
alignment = -1;
pos = (27,0);
ref = T;
}
);
width = 710;
}
);
leftKerningGroup = W;
rightKerningGroup = W;
unicode = 358;
},
{
color = 10;
glyphname = U;
layers = (
{
anchors = (
{
name = bottom;
position = "{318, 0}";
},
{
name = ogonek;
position = "{447, 10}";
},
{
name = top;
position = "{318, 730}";
},
{
name = top_ring;
position = "{318, 720}";
},
{
name = topright;
position = "{581, 690}";
}
);
layerId = "6AE7522C-F5AE-4477-8831-CE4DC346C7C6";
shapes = (
{
closed = 1;
nodes = (
(513,-10,o),
(633,88,o),
(659,270,cs),
(724,730,l),
(529,730,l),
(467,295,ls),
(453,194,o),
(421,160,o),
(341,160,cs),
(261,160,o),
(239,194,o),
(253,295,cs),
(315,730,l),
(120,730,l),
(55,270,ls),
(29,88,o),
(120,-10,o),
(317,-10,cs)
);
}
);
width = 720;
},
{
anchors = (
{
name = bottom;
position = "{312, 0}";
},
{
name = ogonek;
position = "{437, 10}";
},
{
name = top;
position = "{312, 730}";
},
{
name = top_ring;
position = "{312, 713}";
},
{
name = topright;
position = "{572, 690}";
}
);
layerId = "11CDF5B9-5D39-499F-A086-8A564624B78D";
shapes = (
{
closed = 1;
nodes = (
(500,-10,o),
(614,87,o),
(640,270,cs),
(706,730,l),
(569,730,l),
(506,287,ls),
(488,164,o),
(436,113,o),
(328,113,cs),
(221,113,o),
(183,164,o),
(201,287,cs),
(264,730,l),
(128,730,l),
(62,270,ls),
(36,87,o),
(121,-10,o),
(310,-10,cs)
);
}
);
width = 709;
},
{
anchors = (
{
name = bottom;
position = "{308, 0}";
},
{
name = ogonek;
position = "{425, 10}";
},
{
name = top;
position = "{308, 730}";
},
{
name = top_ring;
position = "{308, 707}";
},
{
name = topright;
position = "{564, 690}";
}
);
layerId = "BBD4F1D4-C528-4189-A814-DA4A859CEB77";
shapes = (
{
closed = 1;
nodes = (
(488,-10,o),
(596,86,o),
(622,270,cs),
(688,730,l),
(610,730,l),
(546,279,ls),
(525,131,o),
(453,63,o),
(317,63,cs),
(181,63,o),
(129,131,o),
(150,279,cs),
(214,730,l),
(136,730,l),
(71,270,ls),
(44,86,o),
(125,-10,o),
(307,-10,cs)
);
}
);
width = 700;
},
{
anchors = (
{
name = bottom;
position = "{305, 0}";
},
{
name = ogonek;
position = "{411, 10}";
},
{
name = top;
position = "{305, 730}";
},
{
name = top_ring;
position = "{305, 700}";
},
{
name = topright;
position = "{559, 690}";
}
);
layerId = "8CC5B2A3-F3A2-43C7-BF8D-A4D4BD884141";
shapes = (
{
closed = 1;
nodes = (
(479,-10,o),
(580,85,o),
(607,270,cs),
(672,730,l),
(653,730,l),
(588,270,ls),
(563,96,o),
(469,10,o),
(306,10,cs),
(143,10,o),
(75,96,o),
(100,270,cs),
(165,730,l),
(146,730,l),
(81,270,ls),
(54,85,o),
(130,-10,o),
(304,-10,cs)
);
}
);
width = 694;
}
);
leftKerningGroup = U;
rightKerningGroup = U;
unicode = 85;
},
{
color = 10;
glyphname = V;
layers = (
{
layerId = "6AE7522C-F5AE-4477-8831-CE4DC346C7C6";
shapes = (
{
closed = 1;
nodes = (
(433,0,l),
(751,730,l),
(537,730,l),
(336,200,l),
(334,200,l),
(283,730,l),
(69,730,l),
(179,0,l)
);
}
);
width = 696;
},
{
layerId = "11CDF5B9-5D39-499F-A086-8A564624B78D";
shapes = (
{
closed = 1;
nodes = (
(393,0,l),
(740,730,l),
(589,730,l),
(325,140,l),
(323,140,l),
(227,730,l),
(77,730,l),
(215,0,l)
);
}
);
width = 692;
},
{
layerId = "BBD4F1D4-C528-4189-A814-DA4A859CEB77";
shapes = (
{
closed = 1;
nodes = (
(348,0,l),
(722,730,l),
(636,730,l),
(308,79,l),
(306,79,l),
(164,730,l),
(79,730,l),
(245,0,l)
);
}
);
width = 676;
},
{
layerId = "8CC5B2A3-F3A2-43C7-BF8D-A4D4BD884141";
shapes = (
{
closed = 1;
nodes = (
(303,0,l),
(705,730,l),
(683,730,l),
(293,18,l),
(291,18,l),
(102,730,l),
(81,730,l),
(274,0,l)
);
}
);
width = 661;
}
);
leftKerningGroup = V;
rightKerningGroup = V;
unicode = 86;
},
{
glyphname = W;
layers = (
{
anchors = (
{
name = b.dotbelowcomb_2;
position = "{427, 0}";
},
{
name = t.uni0302_2;
position = "{427, 730}";
}
);
layerId = "6AE7522C-F5AE-4477-8831-CE4DC346C7C6";
shapes = (
{
closed = 1;
nodes = (
(125,0,l),
(349,0,l),
(497,530,l),
(499,530,l),
(495,0,l),
(719,0,l),
(975,730,l),
(782,730,l),
(634,200,l),
(632,200,l),
(645,730,l),
(411,730,l),
(273,200,l),
(271,200,l),
(275,730,l),
(78,730,l)
);
}
);
width = 938;
},
{
anchors = (
{
name = b.dotbelowcomb_2;
position = "{416, 0}";
},
{
name = t.uni0302_2;
position = "{416, 730}";
}
);
layerId = "11CDF5B9-5D39-499F-A086-8A564624B78D";
shapes = (
{
closed = 1;
nodes = (
(145,0,l),
(307,0,l),
(499,583,l),
(501,583,l),
(525,0,l),
(687,0,l),
(956,730,l),
(822,730,l),
(630,147,l),
(628,147,l),
(607,730,l),
(438,730,l),
(250,147,l),
(248,147,l),
(223,730,l),
(85,730,l)
);
}
);
width = 917;
},
{
anchors = (
{
name = b.dotbelowcomb_2;
position = "{405, 0}";
},
{
name = t.uni0302_2;
position = "{405, 730}";
}
);
layerId = "BBD4F1D4-C528-4189-A814-DA4A859CEB77";
shapes = (
{
closed = 1;
nodes = (
(161,0,l),
(258,0,l),
(498,644,l),
(499,644,l),
(554,0,l),
(652,0,l),
(931,730,l),
(854,730,l),
(619,86,l),
(617,86,l),
(562,730,l),
(461,730,l),
(223,86,l),
(221,86,l),
(170,730,l),
(90,730,l)
);
}
);
width = 894;
},
{
anchors = (
{
name = b.dotbelowcomb_2;
position = "{392, 0}";
},
{
name = t.uni0302_2;
position = "{392, 730}";
}
);
layerId = "8CC5B2A3-F3A2-43C7-BF8D-A4D4BD884141";
shapes = (
{
closed = 1;
nodes = (
(172,0,l),
(203,0,l),
(493,713,l),
(495,713,l),
(581,0,l),
(612,0,l),
(901,730,l),
(880,730,l),
(600,17,l),
(598,17,l),
(512,730,l),
(481,730,l),
(191,17,l),
(189,17,l),
(112,730,l),
(92,730,l)
);
}
);
width = 868;
}
);
leftKerningGroup = W;
rightKerningGroup = W;
unicode = 87;
},
{
color = 10;
glyphname = X;
layers = (
{
layerId = "6AE7522C-F5AE-4477-8831-CE4DC346C7C6";
shapes = (
{
closed = 1;
nodes = (
(205,0,l),
(342,255,l),
(344,255,l),
(409,0,l),
(629,0,l),
(505,365,l),
(733,730,l),
(513,730,l),
(376,475,l),
(374,475,l),
(309,730,l),
(89,730,l),
(213,365,l),
(-15,0,l)
);
}
);
width = 698;
},
{
layerId = "11CDF5B9-5D39-499F-A086-8A564624B78D";
shapes = (
{
closed = 1;
nodes = (
(161,0,l),
(355,288,l),
(357,288,l),
(470,0,l),
(624,0,l),
(468,366,l),
(726,730,l),
(572,730,l),
(380,446,l),
(378,446,l),
(267,730,l),
(113,730,l),
(265,366,l),
(7,0,l)
);
}
);
width = 714;
},
{
layerId = "BBD4F1D4-C528-4189-A814-DA4A859CEB77";
shapes = (
{
closed = 1;
nodes = (
(102,0,l),
(353,320,l),
(355,320,l),
(515,0,l),
(604,0,l),
(418,368,l),
(705,730,l),
(615,730,l),
(368,416,l),
(366,416,l),
(210,730,l),
(121,730,l),
(304,368,l),
(13,0,l)
);
}
);
width = 701;
},
{
layerId = "8CC5B2A3-F3A2-43C7-BF8D-A4D4BD884141";
shapes = (
{
closed = 1;
nodes = (
(44,0,l),
(351,351,l),
(353,351,l),
(561,0,l),
(585,0,l),
(367,369,l),
(683,730,l),
(659,730,l),
(358,387,l),
(356,387,l),
(154,730,l),
(129,730,l),
(344,369,l),
(19,0,l)
);
}
);
width = 688;
}
);
leftKerningGroup = X;
rightKerningGroup = X;
unicode = 88;
},
{
color = 10;
glyphname = Y;
layers = (
{
anchors = (
{
name = bottom;
position = "{303, 0}";
},
{
name = top;
position = "{303, 730}";
},
{
name = topleft;
position = "{-22, 730}";
}
);
layerId = "6AE7522C-F5AE-4477-8831-CE4DC346C7C6";
shapes = (
{
closed = 1;
nodes = (
(406,0,l),
(442,250,l),
(748,730,l),
(534,730,l),
(364,420,l),
(362,420,l),
(280,730,l),
(66,730,l),
(237,250,l),
(201,0,l)
);
}
);
width = 689;
},
{
anchors = (
{
name = bottom;
position = "{298, 0}";
},
{
name = top;
position = "{298, 730}";
},
{
name = topleft;
position = "{-14, 730}";
}
);
layerId = "11CDF5B9-5D39-499F-A086-8A564624B78D";
shapes = (
{
closed = 1;
nodes = (
(369,0,l),
(407,266,l),
(734,730,l),
(581,730,l),
(355,389,l),
(353,389,l),
(224,730,l),
(71,730,l),
(265,266,l),
(227,0,l)
);
}
);
width = 680;
},
{
anchors = (
{
name = bottom;
position = "{290, 0}";
},
{
name = top;
position = "{290, 730}";
},
{
name = topleft;
position = "{-9, 730}";
}
);
layerId = "BBD4F1D4-C528-4189-A814-DA4A859CEB77";
shapes = (
{
closed = 1;
nodes = (
(330,0,l),
(371,282,l),
(716,730,l),
(626,730,l),
(341,355,l),
(339,355,l),
(163,730,l),
(72,730,l),
(290,282,l),
(250,0,l)
);
}
);
width = 663;
},
{
anchors = (
{
name = bottom;
position = "{282, 0}";
},
{
name = top;
position = "{282, 730}";
},
{
name = topleft;
position = "{-3, 730}";
}
);
layerId = "8CC5B2A3-F3A2-43C7-BF8D-A4D4BD884141";
shapes = (
{
closed = 1;
nodes = (
(291,0,l),
(333,297,l),
(698,730,l),
(673,730,l),
(328,318,l),
(326,318,l),
(98,730,l),
(74,730,l),
(314,297,l),
(272,0,l)
);
}
);
width = 647;
}
);
leftKerningGroup = Y;
rightKerningGroup = Y;
unicode = 89;
},
{
color = 10;
glyphname = Z;
layers = (
{
anchors = (
{
name = bottom;
position = "{272, 0}";
},
{
name = center;
position = "{272, 365}";
},
{
name = top;
position = "{272, 730}";
}
);
layerId = "6AE7522C-F5AE-4477-8831-CE4DC346C7C6";
shapes = (
{
closed = 1;
nodes = (
(535,0,l),
(559,165,l),
(262,165,l),
(262,167,l),
(616,565,l),
(639,730,l),
(113,730,l),
(90,565,l),
(387,565,l),
(386,563,l),
(33,165,l),
(9,0,l)
);
}
);
width = 628;
},
{
anchors = (
{
name = bottom;
position = "{273, 0}";
},
{
name = center;
position = "{273, 365}";
},
{
name = top;
position = "{273, 730}";
}
);
layerId = "11CDF5B9-5D39-499F-A086-8A564624B78D";
shapes = (
{
closed = 1;
nodes = (
(529,0,l),
(547,122,l),
(198,122,l),
(198,124,l),
(616,608,l),
(634,730,l),
(121,730,l),
(103,608,l),
(452,608,l),
(452,606,l),
(34,122,l),
(17,0,l)
);
}
);
width = 630;
},
{
anchors = (
{
name = bottom;
position = "{275, 0}";
},
{
name = center;
position = "{275, 365}";
},
{
name = top;
position = "{275, 730}";
}
);
layerId = "BBD4F1D4-C528-4189-A814-DA4A859CEB77";
shapes = (
{
closed = 1;
nodes = (
(525,0,l),
(535,73,l),
(130,73,l),
(131,75,l),
(618,657,l),
(629,730,l),
(129,730,l),
(118,657,l),
(523,657,l),
(523,655,l),
(35,73,l),
(24,0,l)
);
}
);
width = 633;
},
{
anchors = (
{
name = bottom;
position = "{276, 0}";
},
{
name = center;
position = "{276, 365}";
},
{
name = top;
position = "{276, 730}";
}
);
layerId = "8CC5B2A3-F3A2-43C7-BF8D-A4D4BD884141";
shapes = (
{
closed = 1;
nodes = (
(520,0,l),
(523,20,l),
(59,20,l),
(59,22,l),
(621,710,l),
(624,730,l),
(136,730,l),
(133,710,l),
(596,710,l),
(596,708,l),
(35,20,l),
(32,0,l)
);
}
);
width = 636;
}
);
leftKerningGroup = Z;
rightKerningGroup = Z;
unicode = 90;
},
{
glyphname = a;
layers = (
{
layerId = "6AE7522C-F5AE-4477-8831-CE4DC346C7C6";
shapes = (
{
closed = 1;
nodes = (
(243,-10,o),
(297,14,o),
(350,65,c),
(352,65,l),
(356,32,o),
(358,24,o),
(367,0,c),
(574,0,l),
(548,62,o),
(541,188,o),
(557,300,cs),
(588,520,l),
(407,520,l),
(387,450,l),
(385,450,l),
(360,505,o),
(319,530,o),
(254,530,cs),
(130,530,o),
(49,436,o),
(25,260,cs),
(0,84,o),
(55,-10,o),
(179,-10,cs)
);
},
{
closed = 1;
nodes = (
(218,135,o),
(200,177,o),
(212,260,cs),
(223,343,o),
(253,385,o),
(300,385,cs),
(344,385,o),
(373,349,o),
(367,303,cs),
(354,217,ls),
(348,171,o),
(309,135,o),
(265,135,cs)
);
}
);
width = 616;
},
{
layerId = "11CDF5B9-5D39-499F-A086-8A564624B78D";
shapes = (
{
closed = 1;
nodes = (
(257,-10,o),
(317,18,o),
(369,76,c),
(371,76,l),
(372,45,o),
(374,31,o),
(387,0,c),
(535,0,l),
(509,66,o),
(504,165,o),
(519,269,cs),
(555,520,l),
(424,520,l),
(407,450,l),
(405,450,l),
(372,505,o),
(327,530,o),
(262,530,cs),
(135,530,o),
(52,434,o),
(28,260,cs),
(3,86,o),
(60,-10,o),
(187,-10,cs)
);
},
{
closed = 1;
nodes = (
(176,103,o),
(148,160,o),
(163,260,cs),
(176,361,o),
(220,417,o),
(283,417,cs),
(348,417,o),
(396,365,o),
(387,303,cs),
(374,217,ls),
(366,155,o),
(305,103,o),
(239,103,cs)
);
}
);
width = 584;
},
{
layerId = "BBD4F1D4-C528-4189-A814-DA4A859CEB77";
shapes = (
{
closed = 1;
nodes = (
(279,-10,o),
(349,26,o),
(396,87,c),
(398,87,l),
(398,56,o),
(401,37,o),
(416,0,c),
(503,0,l),
(476,69,o),
(470,139,o),
(484,234,cs),
(525,520,l),
(452,520,l),
(435,446,l),
(433,446,l),
(398,501,o),
(345,530,o),
(278,530,cs),
(148,530,o),
(62,433,o),
(38,260,cs),
(13,87,o),
(73,-10,o),
(203,-10,cs)
);
},
{
closed = 1;
nodes = (
(137,61,o),
(97,133,o),
(115,260,c),
(132,387,o),
(194,460,o),
(282,460,cs),
(365,460,o),
(428,396,o),
(418,323,cs),
(400,197,ls),
(390,124,o),
(309,61,o),
(225,61,cs)
);
}
);
width = 565;
},
{
layerId = "8CC5B2A3-F3A2-43C7-BF8D-A4D4BD884141";
shapes = (
{
closed = 1;
nodes = (
(309,-10,o),
(391,36,o),
(429,98,c),
(431,98,l),
(433,64,o),
(437,41,o),
(454,0,c),
(477,0,l),
(449,68,o),
(444,112,o),
(456,199,cs),
(502,520,l),
(486,520,l),
(470,438,l),
(469,438,l),
(439,494,o),
(374,530,o),
(301,530,cs),
(169,530,o),
(79,432,o),
(55,260,cs),
(30,88,o),
(94,-10,o),
(226,-10,cs)
);
},
{
closed = 1;
nodes = (
(107,10,o),
(52,98,o),
(75,260,cs),
(97,422,o),
(178,510,o),
(299,510,cs),
(395,510,o),
(470,442,o),
(460,368,cs),
(429,152,ls),
(419,78,o),
(324,10,o),
(228,10,cs)
);
}
);
width = 564;
}
);
leftKerningGroup = a;
rightKerningGroup = h;
unicode = 97;
},
{
color = 11;
glyphname = ae;
layers = (
{
anchors = (
{
name = bottom;
position = "{394, 0}";
},
{
name = top;
position = "{394, 520}";
},
{
name = ogonek;
position = "{770, 18}";
}
);
layerId = "6AE7522C-F5AE-4477-8831-CE4DC346C7C6";
shapes = (
{
closed = 1;
nodes = (
(188,125,o),
(172,141,o),
(176,170,cs),
(182,208,o),
(216,225,o),
(290,225,cs),
(314,225,l),
(310,195,ls),
(304,153,o),
(269,125,o),
(224,125,cs)
);
},
{
closed = 1;
nodes = (
(371,-10,o),
(483,101,o),
(513,310,cs),
(515,320,ls),
(536,473,o),
(485,530,o),
(325,530,cs),
(236,530,o),
(140,516,o),
(65,491,c),
(65,351,l),
(132,375,o),
(216,390,o),
(279,390,cs),
(328,390,o),
(336,380,o),
(329,330,c),
(276,330,ls),
(117,330,o),
(18,265,o),
(2,150,cs),
(-13,48,o),
(55,-10,o),
(189,-10,cs)
);
},
{
closed = 1;
nodes = (
(486,210,l),
(554,210,ls),
(713,210,o),
(812,255,o),
(828,370,cs),
(843,472,o),
(755,530,o),
(621,530,cs),
(457,530,o),
(343,428,o),
(319,260,cs),
(295,86,o),
(388,-10,o),
(583,-10,cs),
(650,-10,o),
(724,1,o),
(772,18,c),
(773,158,l),
(725,142,o),
(651,130,o),
(595,130,cs),
(519,130,o),
(492,156,o),
(501,220,cs),
(509,280,ls),
(522,367,o),
(551,405,o),
(603,405,cs),
(639,405,o),
(658,379,o),
(654,350,cs),
(648,312,o),
(614,315,o),
(540,315,cs),
(506,315,l)
);
}
);
width = 849;
},
{
anchors = (
{
name = bottom;
position = "{398, 0}";
},
{
name = top;
position = "{398, 520}";
},
{
name = ogonek;
position = "{776, 23}";
}
);
layerId = "11CDF5B9-5D39-499F-A086-8A564624B78D";
shapes = (
{
closed = 1;
nodes = (
(154,94,o),
(129,118,o),
(135,162,cs),
(143,219,o),
(197,246,o),
(302,246,cs),
(351,246,l),
(344,200,ls),
(336,138,o),
(278,94,o),
(206,94,cs)
);
},
{
closed = 1;
nodes = (
(342,-10,o),
(460,94,o),
(485,270,cs),
(493,323,ls),
(514,474,o),
(467,530,o),
(315,530,cs),
(231,530,o),
(142,515,o),
(68,488,c),
(69,382,l),
(135,408,o),
(215,423,o),
(283,423,cs),
(355,423,o),
(373,403,o),
(364,335,c),
(295,335,ls),
(124,335,o),
(23,270,o),
(6,149,cs),
(-9,47,o),
(50,-10,o),
(168,-10,cs)
);
},
{
closed = 1;
nodes = (
(451,216,l),
(535,216,ls),
(742,216,o),
(806,251,o),
(824,372,cs),
(839,474,o),
(757,531,o),
(639,531,cs),
(484,531,o),
(376,430,o),
(352,261,cs),
(328,88,o),
(413,-9,o),
(595,-9,cs),
(659,-9,o),
(730,3,o),
(779,23,c),
(778,129,l),
(730,110,o),
(661,98,o),
(605,98,cs),
(506,98,o),
(466,142,o),
(479,234,cs),
(485,274,ls),
(500,379,o),
(547,431,o),
(624,431,cs),
(676,431,o),
(701,403,o),
(695,359,cs),
(687,302,o),
(633,305,o),
(528,305,cs),
(464,305,l)
);
}
);
width = 849;
},
{
anchors = (
{
name = bottom;
position = "{400, 0}";
},
{
name = top;
position = "{400, 520}";
},
{
name = ogonek;
position = "{785, 25}";
}
);
layerId = "BBD4F1D4-C528-4189-A814-DA4A859CEB77";
shapes = (
{
closed = 1;
nodes = (
(114,55,o),
(76,92,o),
(85,154,cs),
(96,232,o),
(173,272,o),
(314,272,cs),
(387,272,l),
(377,205,ls),
(365,119,o),
(284,55,o),
(187,55,cs)
);
},
{
closed = 1;
nodes = (
(316,-10,o),
(435,88,o),
(456,237,cs),
(469,327,ls),
(490,476,o),
(446,530,o),
(304,530,cs),
(224,530,o),
(142,514,o),
(69,484,c),
(72,419,l),
(139,447,o),
(215,463,o),
(285,463,cs),
(382,463,o),
(410,432,o),
(396,334,c),
(313,334,ls),
(130,334,o),
(26,269,o),
(8,147,cs),
(-6,48,o),
(50,-10,o),
(159,-10,cs)
);
},
{
closed = 1;
nodes = (
(427,225,l),
(525,225,ls),
(747,225,o),
(814,257,o),
(830,372,cs),
(844,471,o),
(770,529,o),
(661,529,cs),
(513,529,o),
(410,428,o),
(386,259,cs),
(361,86,o),
(441,-11,o),
(609,-11,cs),
(669,-11,o),
(737,2,o),
(789,25,c),
(785,90,l),
(736,69,o),
(671,56,o),
(616,56,cs),
(496,56,o),
(443,121,o),
(460,246,cs),
(463,266,ls),
(482,394,o),
(548,464,o),
(651,464,cs),
(724,464,o),
(762,427,o),
(753,365,cs),
(742,287,o),
(665,287,o),
(524,287,cs),
(436,287,l)
);
}
);
width = 859;
},
{
anchors = (
{
name = bottom;
position = "{405, 0}";
},
{
name = top;
position = "{405, 520}";
},
{
name = ogonek;
position = "{790, 32}";
}
);
layerId = "8CC5B2A3-F3A2-43C7-BF8D-A4D4BD884141";
shapes = (
{
closed = 1;
nodes = (
(71,10,o),
(20,62,o),
(31,145,cs),
(46,249,o),
(148,305,o),
(328,305,cs),
(425,305,l),
(411,210,ls),
(395,95,o),
(291,10,o),
(168,10,cs)
);
},
{
closed = 1;
nodes = (
(299,-10,o),
(413,84,o),
(431,210,cs),
(448,330,ls),
(469,477,o),
(429,530,o),
(294,530,cs),
(218,530,o),
(143,513,o),
(72,480,c),
(79,462,l),
(147,494,o),
(218,510,o),
(291,510,cs),
(414,510,o),
(448,465,o),
(428,325,c),
(331,325,ls),
(141,325,o),
(29,262,o),
(12,145,cs),
(-2,50,o),
(58,-10,o),
(165,-10,cs)
);
},
{
closed = 1;
nodes = (
(423,248,l),
(517,248,ls),
(759,248,o),
(821,273,o),
(836,378,cs),
(850,473,o),
(788,532,o),
(681,532,cs),
(540,532,o),
(442,431,o),
(418,262,cs),
(393,89,o),
(465,-8,o),
(619,-8,cs),
(678,-8,o),
(741,6,o),
(795,32,c),
(789,50,l),
(739,26,o),
(679,12,o),
(622,12,cs),
(480,12,o),
(414,99,o),
(438,262,c),
(438,262,l),
(460,421,o),
(548,512,o),
(678,512,cs),
(775,512,o),
(829,462,o),
(817,378,cs),
(803,275,o),
(700,268,o),
(520,268,cs),
(426,268,l)
);
}
);
width = 870;
}
);
leftKerningGroup = a;
rightKerningGroup = o;
unicode = 230;
},
{
color = 11;
glyphname = b;
layers = (
{
layerId = "6AE7522C-F5AE-4477-8831-CE4DC346C7C6";
shapes = (
{
closed = 1;
nodes = (
(487,-10,o),
(574,87,o),
(599,260,cs),
(624,433,o),
(564,530,o),
(434,530,cs),
(371,530,o),
(325,508,o),
(275,460,c),
(273,460,l),
(311,730,l),
(120,730,l),
(16,0,l),
(197,0,l),
(208,60,l),
(210,60,l),
(251,12,o),
(294,-10,o),
(357,-10,cs)
);
},
{
closed = 1;
nodes = (
(252,140,o),
(232,177,o),
(241,240,cs),
(247,280,ls),
(256,343,o),
(286,380,o),
(343,380,cs),
(401,380,o),
(423,341,o),
(411,260,cs),
(400,179,o),
(367,140,o),
(309,140,cs)
);
}
);
width = 632;
},
{
layerId = "11CDF5B9-5D39-499F-A086-8A564624B78D";
shapes = (
{
closed = 1;
nodes = (
(451,-10,o),
(541,88,o),
(565,260,cs),
(590,432,o),
(528,530,o),
(394,530,cs),
(325,530,o),
(272,505,o),
(225,455,c),
(223,455,l),
(262,730,l),
(127,730,l),
(23,0,l),
(151,0,l),
(161,65,l),
(163,65,l),
(201,15,o),
(249,-10,o),
(317,-10,cs)
);
},
{
closed = 1;
nodes = (
(215,100,o),
(180,156,o),
(192,240,cs),
(198,280,ls),
(210,364,o),
(261,420,o),
(337,420,cs),
(415,420,o),
(449,364,o),
(434,260,cs),
(419,156,o),
(369,100,o),
(291,100,cs)
);
}
);
width = 602;
},
{
layerId = "BBD4F1D4-C528-4189-A814-DA4A859CEB77";
shapes = (
{
closed = 1;
nodes = (
(419,-10,o),
(510,88,o),
(534,260,cs),
(559,432,o),
(496,530,o),
(361,530,cs),
(284,530,o),
(219,499,o),
(174,441,c),
(172,441,l),
(213,730,l),
(136,730,l),
(32,0,l),
(106,0,l),
(117,79,l),
(119,79,l),
(151,21,o),
(207,-10,o),
(284,-10,cs)
);
},
{
closed = 1;
nodes = (
(178,57,o),
(128,131,o),
(143,239,cs),
(149,281,ls),
(165,389,o),
(236,463,o),
(333,463,cs),
(430,463,o),
(476,389,o),
(457,260,cs),
(439,131,o),
(372,57,o),
(275,57,cs)
);
}
);
width = 576;
},
{
layerId = "EF766267-56A5-4429-BD45-4D84D257A888";
partSelection = {
Wt = 2;
};
associatedMasterId = "8CC5B2A3-F3A2-43C7-BF8D-A4D4BD884141";
shapes = (
{
closed = 1;
nodes = (
(458,-10,o),
(536,88,o),
(536,260,cs),
(536,432,o),
(458,530,o),
(320,530,cs),
(237,530,o),
(168,494,o),
(132,430,c),
(130,430,l),
(130,730,l),
(81,730,l),
(81,0,l),
(128,0,l),
(128,90,l),
(130,90,l),
(168,26,o),
(236,-10,o),
(320,-10,cs)
);
},
{
closed = 1;
nodes = (
(200,33,o),
(130,115,o),
(130,237,cs),
(130,283,ls),
(130,405,o),
(200,487,o),
(311,487,cs),
(422,487,o),
(487,404,o),
(487,260,cs),
(487,116,o),
(422,33,o),
(311,33,cs)
);
}
);
width = 577;
},
{
layerId = "8CC5B2A3-F3A2-43C7-BF8D-A4D4BD884141";
shapes = (
{
closed = 1;
nodes = (
(387,-10,o),
(478,91,o),
(502,260,cs),
(526,429,o),
(464,530,o),
(332,530,cs),
(241,530,o),
(165,481,o),
(120,400,c),
(118,400,l),
(166,730,l),
(146,730,l),
(42,0,l),
(61,0,l),
(78,120,l),
(80,120,l),
(102,39,o),
(164,-10,o),
(255,-10,cs)
);
},
{
closed = 1;
nodes = (
(139,10,o),
(76,100,o),
(95,235,cs),
(102,285,ls),
(121,420,o),
(210,510,o),
(329,510,cs),
(449,510,o),
(505,419,o),
(483,260,cs),
(460,101,o),
(378,10,o),
(258,10,cs)
);
}
);
width = 548;
}
);
partsSettings = (
{
bottomValue = 0;
name = Wt;
topValue = 1000;
}
);
leftKerningGroup = b;
rightKerningGroup = o;
unicode = 98;
},
{
color = 11;
glyphname = c;
layers = (
{
anchors = (
{
name = bottom;
position = "{279, 0}";
},
{
name = bottom_cd;
position = "{289, 0}";
},
{
name = top;
position = "{279, 520}";
}
);
layerId = "CD32685B-1934-4A1A-95E8-ACD0B0BFCF6A";
name = "Medium.Dec 5 20, 13:20";
shapes = (
{
closed = 1;
nodes = (
(371,-10,o),
(418,2,o),
(466,27,c),
(446,117,l),
(400,91,o),
(362,80,o),
(318,80,cs),
(210,80,o),
(146,147,o),
(146,260,cs),
(146,373,o),
(210,440,o),
(318,440,cs),
(362,440,o),
(400,429,o),
(446,403,c),
(466,493,l),
(418,518,o),
(371,530,o),
(311,530,cs),
(138,530,o),
(36,430,o),
(36,260,cs),
(36,90,o),
(138,-10,o),
(311,-10,cs)
);
}
);
width = 524;
},
{
anchors = (
{
name = bottom;
position = "{294, 0}";
},
{
name = bottom_cd;
position = "{309, 0}";
},
{
name = top;
position = "{294, 520}";
}
);
layerId = "E4D84573-0E5B-44DD-9099-24E6BD33648F";
associatedMasterId = "6AE7522C-F5AE-4477-8831-CE4DC346C7C6";
name = "Dec 5 20, 13:18";
shapes = (
{
closed = 1;
nodes = (
(397,-10,o),
(450,2,o),
(504,30,c),
(474,170,l),
(429,144,o),
(386,130,o),
(344,130,cs),
(269,130,o),
(229,175,o),
(229,260,cs),
(229,345,o),
(269,390,o),
(344,390,cs),
(386,390,o),
(429,376,o),
(474,350,c),
(504,490,l),
(450,518,o),
(397,530,o),
(329,530,cs),
(137,530,o),
(29,433,o),
(29,260,cs),
(29,87,o),
(137,-10,o),
(329,-10,cs)
);
}
);
width = 551;
},
{
anchors = (
{
name = bottom;
position = "{250, 0}";
},
{
name = bottom_cd;
position = "{264, 0}";
},
{
name = top;
position = "{250, 520}";
}
);
layerId = "6AE7522C-F5AE-4477-8831-CE4DC346C7C6";
shapes = (
{
closed = 1;
nodes = (
(347,-10,o),
(405,3,o),
(463,30,c),
(454,170,l),
(404,144,o),
(354,130,o),
(312,130,cs),
(238,130,o),
(206,174,o),
(218,260,cs),
(231,346,o),
(275,390,o),
(349,390,cs),
(391,390,o),
(437,376,o),
(480,350,c),
(529,490,l),
(478,517,o),
(424,530,o),
(354,530,cs),
(165,530,o),
(48,434,o),
(23,260,cs),
(-1,86,o),
(88,-10,o),
(277,-10,cs)
);
}
);
width = 547;
},
{
anchors = (
{
name = bottom;
position = "{241, 0}";
},
{
name = bottom_cd;
position = "{252, 0}";
},
{
name = top;
position = "{241, 520}";
}
);
layerId = "11CDF5B9-5D39-499F-A086-8A564624B78D";
shapes = (
{
closed = 1;
nodes = (
(332,-10,o),
(386,2,o),
(442,28,c),
(435,134,l),
(385,109,o),
(338,97,o),
(294,97,cs),
(196,97,o),
(149,156,o),
(164,260,cs),
(179,365,o),
(243,423,o),
(340,423,cs),
(385,423,o),
(428,411,o),
(471,386,c),
(508,492,l),
(460,518,o),
(409,530,o),
(346,530,cs),
(167,530,o),
(52,431,o),
(27,260,cs),
(3,89,o),
(90,-10,o),
(269,-10,cs)
);
}
);
width = 532;
},
{
anchors = (
{
name = bottom;
position = "{234, 0}";
},
{
name = bottom_cd;
position = "{242, 0}";
},
{
name = top;
position = "{234, 520}";
}
);
layerId = "BBD4F1D4-C528-4189-A814-DA4A859CEB77";
shapes = (
{
closed = 1;
nodes = (
(319,-10,o),
(370,2,o),
(423,26,c),
(417,92,l),
(367,67,o),
(324,57,o),
(277,57,cs),
(154,57,o),
(92,133,o),
(110,260,cs),
(128,388,o),
(212,463,o),
(335,463,cs),
(382,463,o),
(422,453,o),
(465,428,c),
(490,494,l),
(443,518,o),
(396,530,o),
(339,530,cs),
(171,530,o),
(56,429,o),
(32,260,cs),
(8,91,o),
(94,-10,o),
(262,-10,cs)
);
}
);
width = 521;
},
{
anchors = (
{
name = bottom;
position = "{274, 0}";
},
{
name = bottom_cd;
position = "{279, 0}";
},
{
name = top;
position = "{274, 520}";
}
);
layerId = "012E2356-9F4F-47AE-AC0B-5CB88112886C";
associatedMasterId = "8CC5B2A3-F3A2-43C7-BF8D-A4D4BD884141";
name = "Dec 5 20, 13:17";
shapes = (
{
closed = 1;
nodes = (
(357,-10,o),
(413,0,o),
(447,15,c),
(439,33,l),
(407,19,o),
(354,10,o),
(304,10,cs),
(151,10,o),
(67,97,o),
(67,260,cs),
(67,423,o),
(151,510,o),
(304,510,cs),
(354,510,o),
(407,501,o),
(439,487,c),
(447,505,l),
(413,520,o),
(357,530,o),
(304,530,cs),
(139,530,o),
(47,433,o),
(47,260,cs),
(47,87,o),
(139,-10,o),
(304,-10,cs)
);
}
);
width = 520;
},
{
anchors = (
{
name = bottom;
position = "{264, 0}";
},
{
name = bottom_cd;
position = "{269, 0}";
},
{
name = top;
position = "{264, 520}";
}
);
layerId = "86D1EE61-B774-45AC-B46A-5DE5113F0479";
associatedMasterId = "8CC5B2A3-F3A2-43C7-BF8D-A4D4BD884141";
name = "Dec 5 20, 13:08";
shapes = (
{
closed = 1;
nodes = (
(342,-10,o),
(386,1,o),
(432,25,c),
(423,43,l),
(379,20,o),
(339,10,o),
(292,10,cs),
(149,10,o),
(62,105,o),
(62,260,cs),
(62,415,o),
(149,510,o),
(292,510,cs),
(339,510,o),
(379,500,o),
(423,477,c),
(432,495,l),
(386,519,o),
(342,530,o),
(292,530,cs),
(138,530,o),
(42,426,o),
(42,260,cs),
(42,94,o),
(138,-10,o),
(292,-10,cs)
);
}
);
width = 500;
},
{
anchors = (
{
name = bottom;
position = "{226, 0}";
},
{
name = bottom_cd;
position = "{231, 0}";
},
{
name = top;
position = "{226, 520}";
}
);
layerId = "8CC5B2A3-F3A2-43C7-BF8D-A4D4BD884141";
shapes = (
{
closed = 1;
nodes = (
(307,-10,o),
(353,1,o),
(403,25,c),
(397,43,l),
(350,20,o),
(307,10,o),
(258,10,cs),
(111,10,o),
(34,105,o),
(57,260,cs),
(79,415,o),
(182,510,o),
(329,510,cs),
(378,510,o),
(418,500,o),
(459,477,c),
(470,495,l),
(427,519,o),
(384,530,o),
(332,530,cs),
(174,530,o),
(61,426,o),
(37,260,cs),
(13,94,o),
(97,-10,o),
(255,-10,cs)
);
}
);
width = 508;
}
);
leftKerningGroup = o;
rightKerningGroup = c;
unicode = 99;
},
{
color = 11;
glyphname = d;
layers = (
{
layerId = "6AE7522C-F5AE-4477-8831-CE4DC346C7C6";
shapes = (
{
closed = 1;
nodes = (
(251,-10,o),
(301,12,o),
(356,60,c),
(358,60,l),
(351,0,l),
(532,0,l),
(637,730,l),
(445,730,l),
(407,460,l),
(405,460,l),
(369,508,o),
(328,530,o),
(266,530,cs),
(135,530,o),
(48,433,o),
(23,260,cs),
(-1,87,o),
(58,-10,o),
(189,-10,cs)
);
},
{
closed = 1;
nodes = (
(221,140,o),
(199,179,o),
(211,260,cs),
(222,341,o),
(255,380,o),
(314,380,cs),
(370,380,o),
(390,343,o),
(381,280,cs),
(375,240,ls),
(366,177,o),
(336,140,o),
(279,140,cs)
);
}
);
width = 631;
},
{
layerId = "11CDF5B9-5D39-499F-A086-8A564624B78D";
shapes = (
{
closed = 1;
nodes = (
(269,-10,o),
(323,15,o),
(375,65,c),
(377,65,l),
(368,0,l),
(496,0,l),
(600,730,l),
(466,730,l),
(427,455,l),
(425,455,l),
(392,505,o),
(347,530,o),
(277,530,cs),
(143,530,o),
(53,432,o),
(28,260,cs),
(4,88,o),
(66,-10,o),
(200,-10,cs)
);
},
{
closed = 1;
nodes = (
(179,100,o),
(145,156,o),
(160,260,cs),
(175,364,o),
(225,420,o),
(303,420,cs),
(379,420,o),
(414,364,o),
(402,280,cs),
(396,240,ls),
(384,156,o),
(333,100,o),
(257,100,cs)
);
}
);
width = 604;
},
{
layerId = "BBD4F1D4-C528-4189-A814-DA4A859CEB77";
shapes = (
{
closed = 1;
nodes = (
(283,-10,o),
(347,21,o),
(395,79,c),
(397,79,l),
(386,0,l),
(460,0,l),
(564,730,l),
(487,730,l),
(446,441,l),
(444,441,l),
(415,499,o),
(360,530,o),
(283,530,cs),
(148,530,o),
(57,432,o),
(32,260,cs),
(8,88,o),
(71,-10,o),
(206,-10,cs)
);
},
{
closed = 1;
nodes = (
(137,57,o),
(91,131,o),
(109,260,cs),
(128,389,o),
(195,463,o),
(291,463,cs),
(389,463,o),
(439,389,o),
(423,281,cs),
(417,239,ls),
(402,131,o),
(331,57,o),
(233,57,cs)
);
}
);
width = 576;
},
{
layerId = "8CC5B2A3-F3A2-43C7-BF8D-A4D4BD884141";
shapes = (
{
closed = 1;
nodes = (
(299,-10,o),
(375,39,o),
(420,120,c),
(422,120,l),
(405,0,l),
(424,0,l),
(528,730,l),
(509,730,l),
(462,400,l),
(460,400,l),
(438,481,o),
(376,530,o),
(285,530,cs),
(154,530,o),
(62,429,o),
(38,260,cs),
(14,91,o),
(76,-10,o),
(208,-10,cs)
);
},
{
closed = 1;
nodes = (
(91,10,o),
(35,101,o),
(58,260,cs),
(80,419,o),
(162,510,o),
(282,510,cs),
(401,510,o),
(465,420,o),
(445,285,cs),
(438,235,ls),
(419,100,o),
(330,10,o),
(211,10,cs)
);
}
);
width = 549;
}
);
leftKerningGroup = o;
rightKerningGroup = d;
unicode = 100;
},
{
color = 11;
glyphname = eth;
layers = (
{
layerId = "6AE7522C-F5AE-4477-8831-CE4DC346C7C6";
shapes = (
{
closed = 1;
nodes = (
(435,-10,o),
(535,84,o),
(563,280,cs),
(609,601,o),
(479,776,o),
(187,790,c),
(129,660,l),
(288,652,o),
(391,575,o),
(382,471,c),
(380,470,l),
(358,476,o),
(327,480,o),
(294,480,cs),
(142,480,o),
(43,397,o),
(22,250,cs),
(-1,89,o),
(87,-10,o),
(253,-10,cs)
);
},
{
closed = 1;
nodes = (
(218,125,o),
(198,163,o),
(211,250,cs),
(223,337,o),
(254,375,o),
(308,375,cs),
(363,375,o),
(381,337,o),
(369,250,cs),
(356,163,o),
(327,125,o),
(272,125,cs)
);
},
{
closed = 1;
nodes = (
(600,643,l),
(564,773,l),
(110,598,l),
(146,468,l)
);
}
);
width = 604;
},
{
layerId = "11CDF5B9-5D39-499F-A086-8A564624B78D";
shapes = (
{
closed = 1;
nodes = (
(411,-10,o),
(512,87,o),
(538,269,cs),
(580,563,o),
(450,764,o),
(201,790,c),
(159,687,l),
(301,671,o),
(399,578,o),
(410,447,c),
(408,446,l),
(382,469,o),
(344,480,o),
(294,480,cs),
(147,480,o),
(46,393,o),
(25,245,cs),
(2,86,o),
(85,-10,o),
(244,-10,cs)
);
},
{
closed = 1;
nodes = (
(181,95,o),
(144,148,o),
(158,245,cs),
(172,340,o),
(218,385,o),
(300,385,cs),
(382,385,o),
(416,340,o),
(402,245,cs),
(388,148,o),
(338,95,o),
(259,95,cs)
);
},
{
closed = 1;
nodes = (
(596,658,l),
(568,757,l),
(114,582,l),
(142,483,l)
);
}
);
width = 563;
},
{
layerId = "BBD4F1D4-C528-4189-A814-DA4A859CEB77";
shapes = (
{
closed = 1;
nodes = (
(391,-10,o),
(492,87,o),
(516,254,cs),
(553,511,o),
(422,751,o),
(217,790,c),
(191,724,l),
(314,700,o),
(412,579,o),
(438,429,c),
(436,428,l),
(406,462,o),
(359,480,o),
(296,480,cs),
(153,480,o),
(51,390,o),
(29,241,cs),
(7,84,o),
(85,-10,o),
(237,-10,cs)
);
},
{
closed = 1;
nodes = (
(142,57,o),
(90,125,o),
(106,241,cs),
(122,352,o),
(190,413,o),
(297,413,cs),
(403,413,o),
(453,352,o),
(437,241,cs),
(421,125,o),
(349,57,o),
(246,57,cs)
);
},
{
closed = 1;
nodes = (
(592,675,l),
(575,738,l),
(121,563,l),
(138,500,l)
);
}
);
width = 560;
},
{
layerId = "EF766267-56A5-4429-BD45-4D84D257A888";
partSelection = {
Wt = 2;
};
associatedMasterId = "8CC5B2A3-F3A2-43C7-BF8D-A4D4BD884141";
shapes = (
{
closed = 1;
nodes = (
(434,-10,o),
(524,85,o),
(524,244,cs),
(524,478,o),
(350,743,o),
(160,790,c),
(145,749,l),
(267,720,o),
(390,578,o),
(445,423,c),
(443,422,l),
(404,459,o),
(348,480,o),
(277,480,cs),
(131,480,o),
(41,388,o),
(41,238,cs),
(41,84,o),
(132,-10,o),
(282,-10,cs)
);
},
{
closed = 1;
nodes = (
(162,33,o),
(90,110,o),
(90,238,cs),
(90,364,o),
(160,437,o),
(282,437,cs),
(404,437,o),
(475,364,o),
(475,238,cs),
(475,110,o),
(403,33,o),
(282,33,cs)
);
},
{
closed = 1;
nodes = (
(548,686,l),
(531,726,l),
(91,551,l),
(108,511,l)
);
}
);
width = 572;
},
{
layerId = "8CC5B2A3-F3A2-43C7-BF8D-A4D4BD884141";
shapes = (
{
closed = 1;
nodes = (
(368,-10,o),
(469,84,o),
(491,235,cs),
(521,445,o),
(388,735,o),
(236,790,c),
(226,772,l),
(334,733,o),
(435,566,o),
(466,399,c),
(464,398,l),
(432,451,o),
(375,480,o),
(297,480,cs),
(156,480,o),
(54,386,o),
(33,235,cs),
(11,84,o),
(86,-10,o),
(227,-10,cs)
);
},
{
closed = 1;
nodes = (
(98,10,o),
(32,95,o),
(52,235,cs),
(72,375,o),
(163,460,o),
(294,460,cs),
(425,460,o),
(492,375,o),
(472,235,cs),
(452,95,o),
(360,10,o),
(229,10,cs)
);
},
{
closed = 1;
nodes = (
(587,697,l),
(582,715,l),
(128,540,l),
(133,522,l)
);
}
);
width = 553;
}
);
partsSettings = (
{
bottomValue = 0;
name = Wt;
topValue = 1000;
}
);
leftKerningGroup = o;
rightKerningGroup = o;
unicode = 240;
},
{
color = 11;
glyphname = dcroat;
layers = (
{
layerId = "6AE7522C-F5AE-4477-8831-CE4DC346C7C6";
shapes = (
{
closed = 1;
nodes = (
(714,545,l),
(734,685,l),
(314,685,l),
(294,545,l)
);
},
{
alignment = -1;
pos = (-1,0);
ref = d;
}
);
width = 703;
},
{
layerId = "11CDF5B9-5D39-499F-A086-8A564624B78D";
shapes = (
{
closed = 1;
nodes = (
(685,562,l),
(700,668,l),
(280,668,l),
(265,562,l)
);
},
{
alignment = -1;
pos = (-1,0);
ref = d;
}
);
width = 669;
},
{
layerId = "BBD4F1D4-C528-4189-A814-DA4A859CEB77";
shapes = (
{
closed = 1;
nodes = (
(658,582,l),
(668,648,l),
(248,648,l),
(238,582,l)
);
},
{
alignment = -1;
pos = (-1,0);
ref = d;
}
);
width = 642;
},
{
layerId = "8CC5B2A3-F3A2-43C7-BF8D-A4D4BD884141";
shapes = (
{
closed = 1;
nodes = (
(629,605,l),
(632,625,l),
(212,625,l),
(209,605,l)
);
},
{
alignment = -1;
pos = (-2,0);
ref = d;
}
);
width = 614;
}
);
leftKerningGroup = o;
rightKerningGroup = W;
unicode = 273;
},
{
color = 11;
glyphname = e;
layers = (
{
anchors = (
{
name = bottom;
position = "{250, 0}";
},
{
name = ogonek;
position = "{474, 18}";
},
{
name = top;
position = "{250, 520}";
}
);
layerId = "6AE7522C-F5AE-4477-8831-CE4DC346C7C6";
shapes = (
{
closed = 1;
nodes = (
(190,210,l),
(258,210,ls),
(428,210,o),
(516,262,o),
(532,370,cs),
(547,472,o),
(459,530,o),
(325,530,cs),
(161,530,o),
(47,428,o),
(23,260,cs),
(-1,86,o),
(92,-10,o),
(287,-10,cs),
(354,-10,o),
(428,1,o),
(476,18,c),
(477,158,l),
(429,142,o),
(355,130,o),
(299,130,cs),
(223,130,o),
(196,156,o),
(205,220,cs),
(213,280,ls),
(226,367,o),
(255,405,o),
(307,405,cs),
(343,405,o),
(362,379,o),
(358,350,cs),
(354,323,o),
(329,315,o),
(244,315,cs),
(210,315,l)
);
}
);
width = 553;
},
{
anchors = (
{
name = bottom;
position = "{237, 0}";
},
{
name = ogonek;
position = "{451, 22}";
},
{
name = top;
position = "{237, 520}";
}
);
layerId = "11CDF5B9-5D39-499F-A086-8A564624B78D";
shapes = (
{
closed = 1;
nodes = (
(126,215,l),
(210,215,ls),
(398,215,o),
(483,261,o),
(499,371,cs),
(514,473,o),
(432,530,o),
(314,530,cs),
(159,530,o),
(51,429,o),
(27,260,cs),
(3,87,o),
(88,-10,o),
(270,-10,cs),
(334,-10,o),
(405,2,o),
(454,22,c),
(453,128,l),
(405,109,o),
(336,97,o),
(280,97,cs),
(181,97,o),
(141,141,o),
(154,233,cs),
(160,273,ls),
(175,378,o),
(222,430,o),
(299,430,cs),
(351,430,o),
(376,402,o),
(370,358,cs),
(364,316,o),
(326,304,o),
(203,304,cs),
(139,304,l)
);
}
);
width = 524;
},
{
anchors = (
{
name = bottom;
position = "{226, 0}";
},
{
name = ogonek;
position = "{431, 26}";
},
{
name = top;
position = "{226, 520}";
}
);
layerId = "BBD4F1D4-C528-4189-A814-DA4A859CEB77";
shapes = (
{
closed = 1;
nodes = (
(73,226,l),
(171,226,ls),
(380,226,o),
(461,265,o),
(476,373,cs),
(490,472,o),
(416,530,o),
(307,530,cs),
(159,530,o),
(56,429,o),
(32,260,cs),
(7,87,o),
(87,-10,o),
(255,-10,cs),
(315,-10,o),
(383,3,o),
(435,26,c),
(431,91,l),
(382,70,o),
(317,57,o),
(262,57,cs),
(142,57,o),
(89,122,o),
(106,247,cs),
(109,267,ls),
(128,395,o),
(194,465,o),
(297,465,cs),
(370,465,o),
(408,428,o),
(399,366,cs),
(390,302,o),
(350,288,o),
(170,288,cs),
(82,288,l)
);
}
);
width = 505;
},
{
anchors = (
{
name = bottom;
position = "{215, 0}";
},
{
name = ogonek;
position = "{409, 30}";
},
{
name = top;
position = "{215, 520}";
}
);
layerId = "8CC5B2A3-F3A2-43C7-BF8D-A4D4BD884141";
shapes = (
{
closed = 1;
nodes = (
(42,246,l),
(136,246,ls),
(379,246,o),
(439,270,o),
(455,376,cs),
(469,471,o),
(407,530,o),
(300,530,cs),
(159,530,o),
(61,429,o),
(37,260,cs),
(12,87,o),
(84,-10,o),
(238,-10,cs),
(297,-10,o),
(360,4,o),
(414,30,c),
(408,48,l),
(358,24,o),
(298,10,o),
(241,10,cs),
(99,10,o),
(33,97,o),
(57,260,c),
(57,260,l),
(79,419,o),
(167,510,o),
(297,510,cs),
(394,510,o),
(448,460,o),
(436,376,cs),
(424,289,o),
(361,266,o),
(139,266,cs),
(45,266,l)
);
}
);
width = 489;
}
);
leftKerningGroup = o;
rightKerningGroup = o;
unicode = 101;
},
{
color = 11;
glyphname = schwa;
layers = (
{
anchors = (
{
name = bottom;
position = "{250, 0}";
},
{
name = ogonek;
position = "{474, 18}";
},
{
name = top;
position = "{250, 520}";
}
);
layerId = "6AE7522C-F5AE-4477-8831-CE4DC346C7C6";
shapes = (
{
closed = 1;
nodes = (
(363,310,l),
(295,310,ls),
(136,310,o),
(37,265,o),
(21,150,cs),
(6,48,o),
(94,-10,o),
(228,-10,cs),
(392,-10,o),
(506,92,o),
(530,260,cs),
(554,434,o),
(461,530,o),
(266,530,cs),
(199,530,o),
(125,519,o),
(77,502,c),
(76,362,l),
(124,378,o),
(198,390,o),
(254,390,cs),
(330,390,o),
(357,364,o),
(348,300,cs),
(340,240,ls),
(327,153,o),
(298,115,o),
(246,115,cs),
(210,115,o),
(191,141,o),
(195,170,cs),
(201,208,o),
(235,205,o),
(309,205,cs),
(343,205,l)
);
}
);
width = 553;
},
{
anchors = (
{
name = bottom;
position = "{237, 0}";
},
{
name = ogonek;
position = "{451, 22}";
},
{
name = top;
position = "{237, 520}";
}
);
layerId = "11CDF5B9-5D39-499F-A086-8A564624B78D";
shapes = (
{
closed = 1;
nodes = (
(398,305,l),
(314,305,ls),
(143,305,o),
(42,270,o),
(25,149,cs),
(10,47,o),
(92,-10,o),
(210,-10,cs),
(365,-10,o),
(473,91,o),
(497,260,cs),
(521,433,o),
(436,530,o),
(254,530,cs),
(190,530,o),
(119,518,o),
(70,498,c),
(71,392,l),
(119,411,o),
(188,423,o),
(244,423,cs),
(343,423,o),
(383,379,o),
(370,287,cs),
(364,247,ls),
(349,142,o),
(302,90,o),
(225,90,cs),
(173,90,o),
(148,118,o),
(154,162,cs),
(162,219,o),
(216,216,o),
(321,216,cs),
(385,216,l)
);
}
);
width = 524;
},
{
anchors = (
{
name = bottom;
position = "{226, 0}";
},
{
name = ogonek;
position = "{431, 26}";
},
{
name = top;
position = "{226, 520}";
}
);
layerId = "BBD4F1D4-C528-4189-A814-DA4A859CEB77";
shapes = (
{
closed = 1;
nodes = (
(432,294,l),
(334,294,ls),
(151,294,o),
(47,269,o),
(29,147,cs),
(15,48,o),
(89,-10,o),
(198,-10,cs),
(346,-10,o),
(449,91,o),
(473,260,cs),
(498,433,o),
(418,530,o),
(250,530,cs),
(190,530,o),
(122,517,o),
(70,494,c),
(74,429,l),
(123,450,o),
(188,463,o),
(243,463,cs),
(363,463,o),
(416,398,o),
(399,273,cs),
(396,253,ls),
(377,125,o),
(311,55,o),
(208,55,cs),
(135,55,o),
(97,92,o),
(106,154,cs),
(117,232,o),
(194,232,o),
(335,232,cs),
(423,232,l)
);
}
);
width = 505;
},
{
anchors = (
{
name = bottom;
position = "{215, 0}";
},
{
name = ogonek;
position = "{409, 30}";
},
{
name = top;
position = "{215, 520}";
}
);
layerId = "8CC5B2A3-F3A2-43C7-BF8D-A4D4BD884141";
shapes = (
{
closed = 1;
nodes = (
(447,274,l),
(353,274,ls),
(163,274,o),
(51,261,o),
(34,144,cs),
(20,49,o),
(82,-10,o),
(189,-10,cs),
(330,-10,o),
(428,91,o),
(452,260,cs),
(477,433,o),
(405,530,o),
(251,530,cs),
(192,530,o),
(129,516,o),
(75,490,c),
(81,472,l),
(131,496,o),
(191,510,o),
(248,510,cs),
(390,510,o),
(456,423,o),
(432,260,c),
(432,260,l),
(410,101,o),
(322,10,o),
(192,10,cs),
(95,10,o),
(41,60,o),
(53,144,cs),
(67,247,o),
(170,254,o),
(350,254,cs),
(444,254,l)
);
}
);
width = 489;
}
);
leftKerningGroup = o;
rightKerningGroup = o;
unicode = 601;
},
{
color = 11;
glyphname = f;
layers = (
{
layerId = "6AE7522C-F5AE-4477-8831-CE4DC346C7C6";
shapes = (
{
closed = 1;
nodes = (
(266,-140,l),
(340,380,l),
(481,380,l),
(501,520,l),
(360,520,l),
(365,550,l),
(372,605,o),
(386,620,o),
(428,620,c),
(450,620,o),
(474,616,o),
(499,610,c),
(540,755,l),
(496,765,o),
(450,770,o),
(415,770,c),
(277,770,o),
(192,693,o),
(172,550,c),
(167,520,l),
(50,520,l),
(30,380,l),
(147,380,l),
(73,-140,l)
);
}
);
width = 491;
},
{
layerId = "11CDF5B9-5D39-499F-A086-8A564624B78D";
shapes = (
{
closed = 1;
nodes = (
(229,-140,l),
(307,413,l),
(466,413,l),
(482,520,l),
(322,520,l),
(329,573,ls),
(338,636,o),
(361,658,o),
(418,658,cs),
(441,658,o),
(464,654,o),
(489,647,c),
(520,755,l),
(482,766,o),
(443,770,o),
(411,770,cs),
(286,770,o),
(212,703,o),
(194,573,cs),
(186,520,l),
(52,520,l),
(36,413,l),
(171,413,l),
(93,-140,l)
);
}
);
width = 474;
},
{
layerId = "BBD4F1D4-C528-4189-A814-DA4A859CEB77";
shapes = (
{
closed = 1;
nodes = (
(190,-140,l),
(275,453,l),
(455,453,l),
(464,520,l),
(285,520,l),
(296,597,ls),
(307,672,o),
(338,701,o),
(408,701,cs),
(434,701,o),
(454,697,o),
(480,689,c),
(501,755,l),
(468,766,o),
(438,770,o),
(407,770,cs),
(297,770,o),
(234,713,o),
(218,597,cs),
(207,520,l),
(55,520,l),
(45,453,l),
(197,453,l),
(112,-140,l)
);
}
);
width = 457;
},
{
layerId = "8CC5B2A3-F3A2-43C7-BF8D-A4D4BD884141";
shapes = (
{
closed = 1;
nodes = (
(152,-140,l),
(244,500,l),
(442,500,l),
(445,520,l),
(247,520,l),
(262,620,ls),
(275,711,o),
(316,750,o),
(400,750,cs),
(427,750,o),
(447,746,o),
(472,736,c),
(481,755,l),
(453,766,o),
(431,770,o),
(403,770,cs),
(308,770,o),
(256,722,o),
(242,620,cs),
(227,520,l),
(57,520,l),
(54,500,l),
(224,500,l),
(132,-140,l)
);
}
);
width = 440;
}
);
leftKerningGroup = f;
rightKerningGroup = f;
unicode = 102;
},
{
color = 11;
glyphname = g;
layers = (
{
anchors = (
{
name = bottom;
position = "{274, -140}";
},
{
name = top;
position = "{274, 520}";
}
);
layerId = "6AE7522C-F5AE-4477-8831-CE4DC346C7C6";
shapes = (
{
closed = 1;
nodes = (
(395,-220,o),
(515,-116,o),
(542,70,cs),
(606,520,l),
(425,520,l),
(415,460,l),
(413,460,l),
(372,508,o),
(326,530,o),
(266,530,cs),
(134,530,o),
(49,440,o),
(25,275,cs),
(2,110,o),
(61,20,o),
(193,20,cs),
(253,20,o),
(302,42,o),
(352,90,c),
(354,90,l),
(351,70,ls),
(336,-33,o),
(292,-80,o),
(208,-80,cs),
(164,-80,o),
(96,-67,o),
(30,-46,c),
(-10,-186,l),
(55,-207,o),
(140,-220,o),
(207,-220,cs)
);
},
{
closed = 1;
nodes = (
(229,170,o),
(203,208,o),
(212,275,cs),
(222,342,o),
(259,380,o),
(313,380,cs),
(364,380,o),
(391,348,o),
(383,295,cs),
(377,255,ls),
(370,202,o),
(334,170,o),
(283,170,cs)
);
}
);
width = 631;
},
{
anchors = (
{
name = bottom;
position = "{251, -140}";
},
{
name = top;
position = "{251, 520}";
}
);
layerId = "11CDF5B9-5D39-499F-A086-8A564624B78D";
shapes = (
{
closed = 1;
nodes = (
(373,-220,o),
(478,-125,o),
(505,60,cs),
(570,520,l),
(443,520,l),
(432,455,l),
(431,455,l),
(392,506,o),
(344,530,o),
(277,530,cs),
(143,530,o),
(54,438,o),
(30,275,cs),
(7,112,o),
(70,20,o),
(205,20,cs),
(271,20,o),
(325,44,o),
(373,95,c),
(375,95,l),
(370,60,ls),
(353,-60,o),
(302,-113,o),
(200,-113,cs),
(147,-113,o),
(80,-99,o),
(23,-75,c),
(-8,-181,l),
(48,-205,o),
(127,-220,o),
(198,-220,cs)
);
},
{
closed = 1;
nodes = (
(184,130,o),
(149,182,o),
(162,275,cs),
(175,368,o),
(226,420,o),
(303,420,cs),
(376,420,o),
(415,371,o),
(404,295,cs),
(398,255,ls),
(387,179,o),
(334,130,o),
(261,130,cs)
);
}
);
width = 604;
},
{
anchors = (
{
name = bottom;
position = "{238, -140}";
},
{
name = top;
position = "{238, 520}";
}
);
layerId = "BBD4F1D4-C528-4189-A814-DA4A859CEB77";
shapes = (
{
closed = 1;
nodes = (
(351,-220,o),
(441,-133,o),
(467,50,cs),
(534,520,l),
(460,520,l),
(448,444,l),
(447,444,l),
(414,501,o),
(359,530,o),
(283,530,cs),
(149,530,o),
(57,437,o),
(34,275,cs),
(11,113,o),
(76,20,o),
(210,20,cs),
(286,20,o),
(348,49,o),
(396,106,c),
(398,106,l),
(390,50,ls),
(370,-93,o),
(310,-153,o),
(192,-153,cs),
(131,-153,o),
(67,-138,o),
(14,-111,c),
(-8,-177,l),
(45,-204,o),
(118,-220,o),
(188,-220,cs)
);
},
{
closed = 1;
nodes = (
(140,87,o),
(94,155,o),
(111,275,cs),
(129,395,o),
(194,463,o),
(292,463,cs),
(388,463,o),
(440,397,o),
(425,296,cs),
(419,254,ls),
(405,153,o),
(334,87,o),
(239,87,cs)
);
}
);
width = 577;
},
{
anchors = (
{
name = bottom;
position = "{285, -140}";
},
{
name = top;
position = "{285, 520}";
}
);
layerId = "EF766267-56A5-4429-BD45-4D84D257A888";
partSelection = {
Wt = 2;
};
associatedMasterId = "8CC5B2A3-F3A2-43C7-BF8D-A4D4BD884141";
shapes = (
{
closed = 1;
nodes = (
(423,-220,o),
(496,-137,o),
(496,45,cs),
(496,520,l),
(448,520,l),
(448,435,l),
(446,435,l),
(407,496,o),
(340,530,o),
(257,530,cs),
(120,530,o),
(41,436,o),
(41,275,cs),
(41,114,o),
(120,20,o),
(257,20,cs),
(339,20,o),
(406,54,o),
(445,115,c),
(447,115,l),
(447,45,ls),
(447,-112,o),
(391,-177,o),
(260,-177,cs),
(196,-177,o),
(130,-161,o),
(72,-133,c),
(61,-174,l),
(120,-203,o),
(192,-220,o),
(263,-220,cs)
);
},
{
closed = 1;
nodes = (
(154,63,o),
(90,140,o),
(90,275,cs),
(90,410,o),
(154,487,o),
(266,487,cs),
(376,487,o),
(447,412,o),
(447,298,cs),
(447,252,ls),
(447,138,o),
(376,63,o),
(266,63,cs)
);
}
);
width = 577;
},
{
anchors = (
{
name = bottom;
position = "{233, -140}";
},
{
name = top;
position = "{233, 520}";
}
);
layerId = "8CC5B2A3-F3A2-43C7-BF8D-A4D4BD884141";
shapes = (
{
closed = 1;
nodes = (
(327,-220,o),
(403,-141,o),
(429,40,cs),
(497,520,l),
(478,520,l),
(462,408,l),
(460,408,l),
(437,484,o),
(374,530,o),
(285,530,cs),
(154,530,o),
(62,435,o),
(39,275,cs),
(16,115,o),
(81,20,o),
(212,20,cs),
(301,20,o),
(377,66,o),
(422,142,c),
(424,142,l),
(410,40,ls),
(385,-130,o),
(317,-200,o),
(181,-200,cs),
(116,-200,o),
(56,-184,o),
(4,-154,c),
(-8,-172,l),
(46,-203,o),
(110,-220,o),
(179,-220,cs)
);
},
{
closed = 1;
nodes = (
(95,40,o),
(37,126,o),
(58,275,cs),
(80,424,o),
(162,510,o),
(282,510,cs),
(401,510,o),
(465,426,o),
(447,300,cs),
(440,250,ls),
(422,124,o),
(334,40,o),
(215,40,cs)
);
}
);
width = 548;
}
);
partsSettings = (
{
bottomValue = 0;
name = Wt;
topValue = 1000;
}
);
leftKerningGroup = o;
rightKerningGroup = g;
unicode = 103;
},
{
color = 11;
glyphname = h;
layers = (
{
anchors = (
{
name = bottom;
position = "{260, 0}";
},
{
name = center;
position = "{260, 430}";
},
{
name = top;
position = "{260, 730}";
}
);
layerId = "6AE7522C-F5AE-4477-8831-CE4DC346C7C6";
shapes = (
{
closed = 1;
nodes = (
(207,0,l),
(250,300,ls),
(255,341,o),
(291,370,o),
(332,370,cs),
(370,370,o),
(381,345,o),
(371,280,cs),
(331,0,l),
(523,0,l),
(568,320,ls),
(589,467,o),
(549,530,o),
(433,530,cs),
(370,530,o),
(325,510,o),
(274,460,c),
(272,460,l),
(311,730,l),
(120,730,l),
(16,0,l)
);
}
);
width = 610;
},
{
anchors = (
{
name = bottom;
position = "{247, 0}";
},
{
name = center;
position = "{247, 430}";
},
{
name = top;
position = "{247, 730}";
}
);
layerId = "11CDF5B9-5D39-499F-A086-8A564624B78D";
shapes = (
{
closed = 1;
nodes = (
(158,0,l),
(197,277,ls),
(208,350,o),
(277,417,o),
(343,417,cs),
(394,417,o),
(412,378,o),
(400,293,cs),
(358,0,l),
(491,0,l),
(537,320,ls),
(558,465,o),
(517,530,o),
(405,530,cs),
(334,530,o),
(273,503,o),
(224,449,c),
(222,449,l),
(262,730,l),
(128,730,l),
(23,0,l)
);
}
);
width = 586;
},
{
anchors = (
{
name = bottom;
position = "{235, 0}";
},
{
name = center;
position = "{235, 430}";
},
{
name = top;
position = "{235, 730}";
}
);
layerId = "BBD4F1D4-C528-4189-A814-DA4A859CEB77";
shapes = (
{
closed = 1;
nodes = (
(109,0,l),
(148,273,ls),
(163,374,o),
(256,463,o),
(347,463,cs),
(416,463,o),
(443,412,o),
(428,306,cs),
(384,0,l),
(462,0,l),
(508,320,ls),
(528,461,o),
(484,530,o),
(376,530,cs),
(298,530,o),
(221,493,o),
(173,433,c),
(172,433,l),
(213,730,l),
(136,730,l),
(32,0,l)
);
}
);
width = 564;
},
{
anchors = (
{
name = bottom;
position = "{277, 0}";
},
{
name = center;
position = "{277, 430}";
},
{
name = top;
position = "{277, 730}";
}
);
layerId = "EF766267-56A5-4429-BD45-4D84D257A888";
partSelection = {
Wt = 2;
};
associatedMasterId = "8CC5B2A3-F3A2-43C7-BF8D-A4D4BD884141";
shapes = (
{
closed = 1;
nodes = (
(130,0,l),
(130,282,ls),
(130,393,o),
(219,487,o),
(325,487,cs),
(409,487,o),
(451,429,o),
(451,313,cs),
(451,0,l),
(501,0,l),
(501,320,ls),
(501,458,o),
(444,530,o),
(335,530,cs),
(251,530,o),
(170,487,o),
(132,421,c),
(131,421,l),
(130,730,l),
(81,730,l),
(81,0,l)
);
}
);
width = 566;
},
{
anchors = (
{
name = bottom;
position = "{222, 0}";
},
{
name = center;
position = "{222, 430}";
},
{
name = top;
position = "{222, 730}";
}
);
layerId = "8CC5B2A3-F3A2-43C7-BF8D-A4D4BD884141";
shapes = (
{
closed = 1;
nodes = (
(61,0,l),
(103,290,ls),
(120,412,o),
(228,510,o),
(343,510,cs),
(436,510,o),
(476,445,o),
(458,320,cs),
(412,0,l),
(432,0,l),
(478,320,ls),
(497,455,o),
(451,530,o),
(346,530,cs),
(254,530,o),
(167,472,o),
(119,388,c),
(117,388,l),
(166,730,l),
(146,730,l),
(42,0,l)
);
}
);
width = 540;
}
);
partsSettings = (
{
bottomValue = 0;
name = Wt;
topValue = 1000;
}
);
leftKerningGroup = b;
rightKerningGroup = h;
unicode = 104;
},
{
color = 11;
glyphname = hbar;
layers = (
{
anchors = (
{
name = bottom;
position = "{324, 0}";
},
{
name = center;
position = "{324, 430}";
},
{
name = top;
position = "{324, 750}";
}
);
layerId = "6AE7522C-F5AE-4477-8831-CE4DC346C7C6";
shapes = (
{
closed = 1;
nodes = (
(491,685,l),
(71,685,l),
(51,545,l),
(471,545,l)
);
},
{
alignment = -1;
pos = (57,0);
ref = h;
}
);
width = 679;
},
{
anchors = (
{
name = bottom;
position = "{316, 0}";
},
{
name = center;
position = "{316, 430}";
},
{
name = top;
position = "{316, 750}";
}
);
layerId = "11CDF5B9-5D39-499F-A086-8A564624B78D";
shapes = (
{
closed = 1;
nodes = (
(495,668,l),
(75,668,l),
(60,562,l),
(480,562,l)
);
},
{
alignment = -1;
pos = (61,0);
ref = h;
}
);
width = 660;
},
{
anchors = (
{
name = bottom;
position = "{305, 0}";
},
{
name = center;
position = "{305, 430}";
},
{
name = top;
position = "{305, 750}";
}
);
layerId = "BBD4F1D4-C528-4189-A814-DA4A859CEB77";
shapes = (
{
closed = 1;
nodes = (
(498,648,l),
(78,648,l),
(68,582,l),
(488,582,l)
);
},
{
alignment = -1;
pos = (64,0);
ref = h;
}
);
width = 640;
},
{
anchors = (
{
name = bottom;
position = "{292, 0}";
},
{
name = center;
position = "{292, 430}";
},
{
name = top;
position = "{292, 750}";
}
);
layerId = "8CC5B2A3-F3A2-43C7-BF8D-A4D4BD884141";
shapes = (
{
closed = 1;
nodes = (
(496,625,l),
(76,625,l),
(73,605,l),
(493,605,l)
);
},
{
alignment = -1;
pos = (65,0);
ref = h;
}
);
width = 616;
}
);
leftKerningGroup = W;
rightKerningGroup = h;
unicode = 295;
},
{
color = 11;
glyphname = i;
layers = (
{
layerId = "6AE7522C-F5AE-4477-8831-CE4DC346C7C6";
shapes = (
{
closed = 1;
nodes = (
(292,570,l),
(315,730,l),
(120,730,l),
(97,570,l)
);
},
{
closed = 1;
nodes = (
(210,0,l),
(282,500,l),
(87,500,l),
(15,0,l)
);
}
);
width = 310;
},
{
layerId = "11CDF5B9-5D39-499F-A086-8A564624B78D";
shapes = (
{
closed = 1;
nodes = (
(246,603,l),
(264,730,l),
(127,730,l),
(109,603,l)
);
},
{
closed = 1;
nodes = (
(160,0,l),
(233,513,l),
(96,513,l),
(23,0,l)
);
}
);
width = 267;
},
{
layerId = "BBD4F1D4-C528-4189-A814-DA4A859CEB77";
shapes = (
{
closed = 1;
nodes = (
(216,637,l),
(229,730,l),
(137,730,l),
(124,637,l)
);
},
{
closed = 1;
nodes = (
(118,0,l),
(192,520,l),
(114,520,l),
(40,0,l)
);
}
);
width = 241;
},
{
layerId = "8CC5B2A3-F3A2-43C7-BF8D-A4D4BD884141";
shapes = (
{
closed = 1;
nodes = (
(196,670,l),
(204,730,l),
(146,730,l),
(137,670,l)
);
},
{
closed = 1;
nodes = (
(81,0,l),
(155,520,l),
(135,520,l),
(61,0,l)
);
}
);
width = 226;
}
);
leftKerningGroup = l;
rightKerningGroup = l;
unicode = 105;
},
{
color = 11;
glyphname = dotlessi;
layers = (
{
anchors = (
{
name = bottom;
position = "{113, 0}";
},
{
name = ogonek;
position = "{211, 0}";
},
{
name = top;
position = "{113, 520}";
}
);
layerId = "6AE7522C-F5AE-4477-8831-CE4DC346C7C6";
shapes = (
{
closed = 1;
nodes = (
(210,0,l),
(284,520,l),
(89,520,l),
(15,0,l)
);
}
);
width = 309;
},
{
anchors = (
{
name = bottom;
position = "{92, 0}";
},
{
name = ogonek;
position = "{160, 0}";
},
{
name = top;
position = "{92, 520}";
}
);
layerId = "11CDF5B9-5D39-499F-A086-8A564624B78D";
shapes = (
{
closed = 1;
nodes = (
(160,0,l),
(234,520,l),
(97,520,l),
(23,0,l)
);
}
);
width = 267;
},
{
anchors = (
{
name = bottom;
position = "{72, 0}";
},
{
name = ogonek;
position = "{111, 0}";
},
{
name = top;
position = "{72, 520}";
}
);
layerId = "BBD4F1D4-C528-4189-A814-DA4A859CEB77";
shapes = (
{
closed = 1;
nodes = (
(111,0,l),
(185,520,l),
(107,520,l),
(33,0,l)
);
}
);
width = 227;
},
{
anchors = (
{
name = bottom;
position = "{51, 0}";
},
{
name = ogonek;
position = "{60, 0}";
},
{
name = top;
position = "{51, 520}";
}
);
layerId = "8CC5B2A3-F3A2-43C7-BF8D-A4D4BD884141";
shapes = (
{
closed = 1;
nodes = (
(60,0,l),
(134,520,l),
(115,520,l),
(41,0,l)
);
}
);
width = 185;
}
);
leftKerningGroup = l;
rightKerningGroup = l;
unicode = 305;
},
{
color = 11;
glyphname = j;
layers = (
{
layerId = "6AE7522C-F5AE-4477-8831-CE4DC346C7C6";
shapes = (
{
closed = 1;
nodes = (
(318,570,l),
(341,730,l),
(146,730,l),
(123,570,l)
);
},
{
closed = 1;
nodes = (
(-146,-220,l),
(124,-220,o),
(214,-158,o),
(244,50,cs),
(308,500,l),
(113,500,l),
(49,50,ls),
(33,-63,o),
(14,-75,o),
(-135,-75,c)
);
}
);
width = 296;
},
{
layerId = "11CDF5B9-5D39-499F-A086-8A564624B78D";
shapes = (
{
closed = 1;
nodes = (
(233,603,l),
(251,730,l),
(115,730,l),
(96,603,l)
);
},
{
closed = 1;
nodes = (
(-201,-220,l),
(44,-220,o),
(124,-163,o),
(152,37,cs),
(220,513,l),
(84,513,l),
(16,37,ls),
(-3,-92,o),
(-31,-112,o),
(-193,-112,c)
);
}
);
width = 208;
},
{
layerId = "BBD4F1D4-C528-4189-A814-DA4A859CEB77";
shapes = (
{
closed = 1;
nodes = (
(217,637,l),
(230,730,l),
(139,730,l),
(125,637,l)
);
},
{
closed = 1;
nodes = (
(-195,-220,l),
(26,-220,o),
(95,-167,o),
(122,23,cs),
(193,520,l),
(115,520,l),
(44,23,ls),
(23,-124,o),
(-15,-153,o),
(-189,-153,c)
);
}
);
width = 190;
},
{
layerId = "8CC5B2A3-F3A2-43C7-BF8D-A4D4BD884141";
shapes = (
{
closed = 1;
nodes = (
(205,670,l),
(214,730,l),
(156,730,l),
(147,670,l)
);
},
{
closed = 1;
nodes = (
(-190,-220,l),
(6,-220,o),
(66,-172,o),
(92,10,cs),
(165,520,l),
(145,520,l),
(72,10,ls),
(48,-160,o),
(-1,-200,o),
(-187,-200,c)
);
}
);
width = 176;
}
);
leftKerningGroup = l;
rightKerningGroup = g;
unicode = 106;
},
{
color = 11;
glyphname = dotlessj;
layers = (
{
anchors = (
{
name = bottom;
position = "{117, -160}";
},
{
name = top;
position = "{117, 520}";
}
);
layerId = "6AE7522C-F5AE-4477-8831-CE4DC346C7C6";
shapes = (
{
closed = 1;
nodes = (
(-151,-250,l),
(119,-250,o),
(209,-188,o),
(239,20,cs),
(310,520,l),
(115,520,l),
(44,20,ls),
(28,-93,o),
(9,-105,o),
(-140,-105,c)
);
}
);
width = 295;
},
{
anchors = (
{
name = bottom;
position = "{53, -160}";
},
{
name = top;
position = "{53, 520}";
}
);
layerId = "11CDF5B9-5D39-499F-A086-8A564624B78D";
shapes = (
{
closed = 1;
nodes = (
(-206,-250,l),
(40,-250,o),
(119,-193,o),
(148,7,cs),
(221,520,l),
(85,520,l),
(11,7,ls),
(-7,-122,o),
(-35,-142,o),
(-197,-142,c)
);
}
);
width = 208;
},
{
anchors = (
{
name = bottom;
position = "{50, -160}";
},
{
name = top;
position = "{50, 520}";
}
);
layerId = "BBD4F1D4-C528-4189-A814-DA4A859CEB77";
shapes = (
{
closed = 1;
nodes = (
(-199,-250,l),
(22,-250,o),
(91,-197,o),
(118,-7,cs),
(193,520,l),
(115,520,l),
(40,-7,ls),
(19,-154,o),
(-19,-183,o),
(-194,-183,c)
);
}
);
width = 184;
},
{
anchors = (
{
name = bottom;
position = "{46, -160}";
},
{
name = top;
position = "{46, 520}";
}
);
layerId = "8CC5B2A3-F3A2-43C7-BF8D-A4D4BD884141";
shapes = (
{
closed = 1;
nodes = (
(-195,-250,l),
(1,-250,o),
(60,-202,o),
(86,-20,cs),
(163,520,l),
(144,520,l),
(67,-20,ls),
(43,-190,o),
(-6,-230,o),
(-192,-230,c)
);
}
);
width = 155;
}
);
leftKerningGroup = l;
rightKerningGroup = g;
unicode = 567;
},
{
color = 11;
glyphname = k;
layers = (
{
anchors = (
{
name = bottom;
position = "{251, 0}";
},
{
name = top;
position = "{251, 730}";
}
);
layerId = "6AE7522C-F5AE-4477-8831-CE4DC346C7C6";
shapes = (
{
closed = 1;
nodes = (
(207,0,l),
(238,215,l),
(240,215,l),
(342,0,l),
(562,0,l),
(406,270,l),
(631,520,l),
(411,520,l),
(255,325,l),
(253,325,l),
(311,730,l),
(120,730,l),
(16,0,l)
);
}
);
width = 615;
},
{
anchors = (
{
name = bottom;
position = "{229, 0}";
},
{
name = top;
position = "{229, 730}";
}
);
layerId = "11CDF5B9-5D39-499F-A086-8A564624B78D";
shapes = (
{
closed = 1;
nodes = (
(158,0,l),
(190,228,l),
(192,228,l),
(361,0,l),
(524,0,l),
(311,270,l),
(590,520,l),
(426,520,l),
(204,312,l),
(202,312,l),
(262,730,l),
(128,730,l),
(23,0,l)
);
}
);
width = 593;
},
{
anchors = (
{
name = bottom;
position = "{208, 0}";
},
{
name = top;
position = "{208, 730}";
}
);
layerId = "BBD4F1D4-C528-4189-A814-DA4A859CEB77";
shapes = (
{
closed = 1;
nodes = (
(110,0,l),
(145,244,l),
(147,244,l),
(385,0,l),
(486,0,l),
(218,270,l),
(548,520,l),
(447,520,l),
(154,297,l),
(153,297,l),
(214,730,l),
(136,730,l),
(32,0,l)
);
}
);
width = 558;
},
{
anchors = (
{
name = bottom;
position = "{188, 0}";
},
{
name = top;
position = "{188, 730}";
}
);
layerId = "8CC5B2A3-F3A2-43C7-BF8D-A4D4BD884141";
shapes = (
{
closed = 1;
nodes = (
(63,0,l),
(100,262,l),
(102,262,l),
(418,0,l),
(451,0,l),
(127,270,l),
(509,520,l),
(476,520,l),
(105,278,l),
(103,278,l),
(167,730,l),
(146,730,l),
(42,0,l)
);
}
);
width = 527;
}
);
leftKerningGroup = b;
rightKerningGroup = x;
unicode = 107;
},
{
color = 11;
glyphname = kgreenlandic;
layers = (
{
anchors = (
{
name = bottom;
position = "{250, 0}";
},
{
name = top;
position = "{250, 520}";
}
);
layerId = "6AE7522C-F5AE-4477-8831-CE4DC346C7C6";
shapes = (
{
closed = 1;
nodes = (
(206,0,l),
(237,215,l),
(239,215,l),
(341,0,l),
(561,0,l),
(405,270,l),
(630,520,l),
(410,520,l),
(254,325,l),
(252,325,l),
(280,520,l),
(89,520,l),
(15,0,l)
);
}
);
width = 614;
},
{
anchors = (
{
name = bottom;
position = "{224, 0}";
},
{
name = top;
position = "{224, 520}";
}
);
layerId = "11CDF5B9-5D39-499F-A086-8A564624B78D";
shapes = (
{
closed = 1;
nodes = (
(158,0,l),
(191,228,l),
(193,228,l),
(351,0,l),
(515,0,l),
(311,270,l),
(580,520,l),
(417,520,l),
(205,312,l),
(203,312,l),
(232,520,l),
(97,520,l),
(23,0,l)
);
}
);
width = 583;
},
{
anchors = (
{
name = bottom;
position = "{199, 0}";
},
{
name = top;
position = "{199, 520}";
}
);
layerId = "BBD4F1D4-C528-4189-A814-DA4A859CEB77";
shapes = (
{
closed = 1;
nodes = (
(109,0,l),
(144,244,l),
(146,244,l),
(367,0,l),
(468,0,l),
(217,270,l),
(530,520,l),
(429,520,l),
(153,296,l),
(151,296,l),
(183,520,l),
(106,520,l),
(32,0,l)
);
}
);
width = 539;
},
{
anchors = (
{
name = bottom;
position = "{173, 0}";
},
{
name = top;
position = "{173, 520}";
}
);
layerId = "8CC5B2A3-F3A2-43C7-BF8D-A4D4BD884141";
shapes = (
{
closed = 1;
nodes = (
(60,0,l),
(98,263,l),
(100,263,l),
(389,0,l),
(421,0,l),
(123,270,l),
(480,520,l),
(447,520,l),
(102,277,l),
(100,277,l),
(134,520,l),
(115,520,l),
(41,0,l)
);
}
);
width = 496;
}
);
leftKerningGroup = n;
rightKerningGroup = x;
unicode = 312;
},
{
color = 11;
glyphname = l;
layers = (
{
layerId = "6AE7522C-F5AE-4477-8831-CE4DC346C7C6";
shapes = (
{
closed = 1;
nodes = (
(313,730,l),
(240,220,l),
(232,165,o),
(242,150,o),
(284,150,c),
(290,150,o),
(295,150,o),
(301,151,c),
(301,5,l),
(274,2,o),
(249,0,o),
(228,0,c),
(90,0,o),
(27,77,o),
(47,220,c),
(120,730,l)
);
}
);
width = 360;
},
{
layerId = "11CDF5B9-5D39-499F-A086-8A564624B78D";
shapes = (
{
closed = 1;
nodes = (
(262,730,l),
(186,197,ls),
(177,134,o),
(193,112,o),
(250,112,cs),
(256,112,o),
(263,112,o),
(271,113,c),
(271,4,l),
(249,1,o),
(229,0,o),
(211,0,cs),
(87,0,o),
(33,67,o),
(51,197,cs),
(127,730,l)
);
}
);
width = 332;
},
{
layerId = "BBD4F1D4-C528-4189-A814-DA4A859CEB77";
shapes = (
{
closed = 1;
nodes = (
(215,730,l),
(135,173,ls),
(125,98,o),
(148,69,o),
(218,69,cs),
(224,69,o),
(230,70,o),
(237,70,c),
(237,2,l),
(223,0,o),
(210,0,o),
(197,0,cs),
(87,0,o),
(41,57,o),
(57,173,cs),
(137,730,l)
);
}
);
width = 301;
},
{
layerId = "8CC5B2A3-F3A2-43C7-BF8D-A4D4BD884141";
shapes = (
{
closed = 1;
nodes = (
(165,730,l),
(82,150,ls),
(69,59,o),
(99,20,o),
(184,20,cs),
(191,20,o),
(201,21,o),
(211,22,c),
(214,2,l),
(203,0,o),
(192,0,o),
(181,0,cs),
(86,0,o),
(48,48,o),
(62,150,cs),
(145,730,l)
);
}
);
width = 280;
}
);
leftKerningGroup = l;
rightKerningGroup = l;
unicode = 108;
},
{
color = 11;
glyphname = lslash;
layers = (
{
layerId = "6AE7522C-F5AE-4477-8831-CE4DC346C7C6";
shapes = (
{
closed = 1;
nodes = (
(544,393,l),
(508,523,l),
(12,337,l),
(49,207,l)
);
},
{
alignment = -1;
pos = (114,0);
ref = l;
}
);
width = 536;
},
{
layerId = "11CDF5B9-5D39-499F-A086-8A564624B78D";
shapes = (
{
closed = 1;
nodes = (
(505,402,l),
(477,502,l),
(29,328,l),
(58,228,l)
);
},
{
alignment = -1;
pos = (121,0);
ref = l;
}
);
width = 514;
},
{
layerId = "BBD4F1D4-C528-4189-A814-DA4A859CEB77";
shapes = (
{
closed = 1;
nodes = (
(448,415,l),
(430,477,l),
(31,315,l),
(48,253,l)
);
},
{
alignment = -1;
pos = (116,0);
ref = l;
}
);
width = 459;
},
{
layerId = "8CC5B2A3-F3A2-43C7-BF8D-A4D4BD884141";
shapes = (
{
closed = 1;
nodes = (
(389,431,l),
(383,449,l),
(32,299,l),
(37,281,l)
);
},
{
alignment = -1;
pos = (113,0);
ref = l;
}
);
width = 404;
}
);
leftKerningGroup = o;
rightKerningGroup = f;
unicode = 322;
},
{
color = 11;
glyphname = m;
layers = (
{
layerId = "6AE7522C-F5AE-4477-8831-CE4DC346C7C6";
shapes = (
{
closed = 1;
nodes = (
(202,0,l),
(245,300,ls),
(251,341,o),
(277,370,o),
(309,370,cs),
(337,370,o),
(345,349,o),
(338,300,cs),
(295,0,l),
(483,0,l),
(526,300,ls),
(532,341,o),
(558,370,o),
(590,370,cs),
(617,370,o),
(626,349,o),
(619,300,cs),
(576,0,l),
(763,0,l),
(813,350,ls),
(831,476,o),
(795,530,o),
(692,530,cs),
(628,530,o),
(579,509,o),
(527,460,c),
(525,460,l),
(509,507,o),
(473,530,o),
(411,530,cs),
(353,530,o),
(309,509,o),
(262,460,c),
(260,460,l),
(266,520,l),
(89,520,l),
(15,0,l)
);
}
);
width = 850;
},
{
layerId = "11CDF5B9-5D39-499F-A086-8A564624B78D";
shapes = (
{
closed = 1;
nodes = (
(155,0,l),
(193,263,ls),
(206,355,o),
(252,417,o),
(306,417,cs),
(350,417,o),
(369,377,o),
(359,307,cs),
(315,0,l),
(446,0,l),
(485,273,ls),
(498,361,o),
(542,417,o),
(597,417,cs),
(641,417,o),
(661,382,o),
(652,320,cs),
(606,0,l),
(737,0,l),
(787,353,ls),
(805,473,o),
(766,530,o),
(666,530,cs),
(599,530,o),
(544,505,o),
(496,453,c),
(494,453,l),
(477,504,o),
(437,530,o),
(374,530,cs),
(313,530,o),
(262,505,o),
(217,453,c),
(215,453,l),
(222,520,l),
(97,520,l),
(23,0,l)
);
}
);
width = 831;
},
{
layerId = "BBD4F1D4-C528-4189-A814-DA4A859CEB77";
shapes = (
{
closed = 1;
nodes = (
(108,0,l),
(144,251,ls),
(162,377,o),
(226,463,o),
(302,463,cs),
(362,463,o),
(392,407,o),
(379,313,cs),
(334,0,l),
(410,0,l),
(449,275,ls),
(465,388,o),
(527,463,o),
(603,463,cs),
(664,463,o),
(695,415,o),
(685,340,cs),
(636,0,l),
(712,0,l),
(763,356,ls),
(779,470,o),
(737,530,o),
(639,530,cs),
(569,530,o),
(506,499,o),
(462,443,c),
(460,443,l),
(444,500,o),
(403,530,o),
(337,530,cs),
(272,530,o),
(215,500,o),
(171,443,c),
(169,443,l),
(179,520,l),
(106,520,l),
(32,0,l)
);
}
);
width = 813;
},
{
layerId = "EF766267-56A5-4429-BD45-4D84D257A888";
partSelection = {
Wt = 2;
};
associatedMasterId = "8CC5B2A3-F3A2-43C7-BF8D-A4D4BD884141";
shapes = (
{
closed = 1;
nodes = (
(130,0,l),
(130,257,ls),
(130,392,o),
(191,487,o),
(279,487,cs),
(352,487,o),
(396,423,o),
(396,317,cs),
(396,0,l),
(445,0,l),
(445,292,ls),
(445,406,o),
(507,487,o),
(594,487,cs),
(665,487,o),
(711,433,o),
(711,350,cs),
(711,0,l),
(760,0,l),
(760,358,ls),
(760,468,o),
(705,530,o),
(607,530,cs),
(533,530,o),
(469,495,o),
(435,435,c),
(433,435,l),
(409,497,o),
(361,530,o),
(292,530,cs),
(222,530,o),
(167,497,o),
(131,435,c),
(129,435,l),
(128,520,l),
(81,520,l),
(81,0,l)
);
}
);
width = 825;
},
{
layerId = "8CC5B2A3-F3A2-43C7-BF8D-A4D4BD884141";
shapes = (
{
closed = 1;
nodes = (
(60,0,l),
(98,263,ls),
(118,408,o),
(200,510,o),
(296,510,cs),
(380,510,o),
(415,432,o),
(399,320,cs),
(353,0,l),
(372,0,l),
(416,308,ls),
(432,417,o),
(512,510,o),
(608,510,cs),
(687,510,o),
(729,451,o),
(716,360,cs),
(665,0,l),
(684,0,l),
(735,360,ls),
(750,463,o),
(701,530,o),
(611,530,cs),
(536,530,o),
(469,482,o),
(424,396,c),
(422,396,l),
(412,483,o),
(370,530,o),
(299,530,cs),
(228,530,o),
(165,484,o),
(119,396,c),
(117,396,l),
(134,520,l),
(115,520,l),
(41,0,l)
);
}
);
width = 792;
}
);
partsSettings = (
{
bottomValue = 0;
name = Wt;
topValue = 1000;
}
);
leftKerningGroup = n;
rightKerningGroup = h;
unicode = 109;
},
{
color = 11;
glyphname = n;
layers = (
{
anchors = (
{
name = bottom;
position = "{271, 0}";
},
{
name = top;
position = "{271, 520}";
}
);
layerId = "6AE7522C-F5AE-4477-8831-CE4DC346C7C6";
shapes = (
{
closed = 1;
nodes = (
(207,0,l),
(250,300,ls),
(256,341,o),
(292,370,o),
(337,370,cs),
(378,370,o),
(390,345,o),
(381,280,cs),
(341,0,l),
(532,0,l),
(578,320,ls),
(599,469,o),
(561,530,o),
(443,530,cs),
(374,530,o),
(322,509,o),
(267,460,c),
(265,460,l),
(271,520,l),
(90,520,l),
(16,0,l)
);
}
);
width = 620;
},
{
anchors = (
{
name = bottom;
position = "{259, 0}";
},
{
name = top;
position = "{259, 520}";
}
);
layerId = "11CDF5B9-5D39-499F-A086-8A564624B78D";
shapes = (
{
closed = 1;
nodes = (
(158,0,l),
(197,277,ls),
(208,351,o),
(279,417,o),
(348,417,cs),
(402,417,o),
(421,378,o),
(409,293,cs),
(368,0,l),
(501,0,l),
(547,320,ls),
(567,464,o),
(525,530,o),
(411,530,cs),
(337,530,o),
(270,502,o),
(218,449,c),
(216,449,l),
(225,520,l),
(98,520,l),
(23,0,l)
);
}
);
width = 596;
},
{
anchors = (
{
name = bottom;
position = "{249, 0}";
},
{
name = top;
position = "{249, 520}";
}
);
layerId = "BBD4F1D4-C528-4189-A814-DA4A859CEB77";
shapes = (
{
closed = 1;
nodes = (
(109,0,l),
(148,273,ls),
(163,375,o),
(258,463,o),
(354,463,cs),
(425,463,o),
(453,412,o),
(438,306,cs),
(394,0,l),
(472,0,l),
(518,320,ls),
(538,462,o),
(494,530,o),
(383,530,cs),
(301,530,o),
(220,493,o),
(170,433,c),
(168,433,l),
(180,520,l),
(106,520,l),
(32,0,l)
);
}
);
width = 573;
},
{
anchors = (
{
name = bottom;
position = "{292, 0}";
},
{
name = top;
position = "{292, 520}";
}
);
layerId = "EF766267-56A5-4429-BD45-4D84D257A888";
partSelection = {
Wt = 2;
};
associatedMasterId = "8CC5B2A3-F3A2-43C7-BF8D-A4D4BD884141";
shapes = (
{
closed = 1;
nodes = (
(130,0,l),
(130,282,ls),
(130,394,o),
(222,487,o),
(333,487,cs),
(419,487,o),
(461,430,o),
(461,313,cs),
(461,0,l),
(511,0,l),
(511,320,ls),
(511,461,o),
(456,530,o),
(343,530,cs),
(254,530,o),
(170,487,o),
(130,421,c),
(128,421,l),
(128,520,l),
(81,520,l),
(81,0,l)
);
}
);
width = 576;
},
{
anchors = (
{
name = bottom;
position = "{238, 0}";
},
{
name = top;
position = "{238, 520}";
}
);
layerId = "8CC5B2A3-F3A2-43C7-BF8D-A4D4BD884141";
shapes = (
{
closed = 1;
nodes = (
(61,0,l),
(102,290,ls),
(120,412,o),
(232,510,o),
(353,510,cs),
(448,510,o),
(486,448,o),
(468,320,cs),
(422,0,l),
(442,0,l),
(488,320,ls),
(507,458,o),
(462,530,o),
(356,530,cs),
(262,530,o),
(169,475,o),
(118,388,c),
(116,388,l),
(135,520,l),
(116,520,l),
(42,0,l)
);
}
);
width = 550;
}
);
partsSettings = (
{
bottomValue = 0;
name = Wt;
topValue = 1000;
}
);
leftKerningGroup = n;
rightKerningGroup = h;
unicode = 110;
},
{
color = 11;
glyphname = eng;
layers = (
{
anchors = (
{
name = bottom;
position = "{265, 0}";
},
{
name = top;
position = "{265, 520}";
}
);
layerId = "6AE7522C-F5AE-4477-8831-CE4DC346C7C6";
shapes = (
{
closed = 1;
nodes = (
(435,-229,o),
(498,-169,o),
(522,0,cs),
(568,320,ls),
(589,467,o),
(548,530,o),
(432,530,cs),
(366,530,o),
(319,510,o),
(266,460,c),
(264,460,l),
(270,520,l),
(89,520,l),
(15,0,l),
(206,0,l),
(249,300,ls),
(255,341,o),
(290,370,o),
(331,370,cs),
(369,370,o),
(379,345,o),
(370,280,cs),
(330,0,ls),
(322,-54,o),
(308,-70,o),
(263,-70,cs),
(241,-70,o),
(210,-66,o),
(184,-59,c),
(142,-214,l),
(187,-223,o),
(235,-229,o),
(282,-229,cs)
);
}
);
width = 609;
},
{
anchors = (
{
name = bottom;
position = "{254, 0}";
},
{
name = top;
position = "{254, 520}";
}
);
layerId = "11CDF5B9-5D39-499F-A086-8A564624B78D";
shapes = (
{
closed = 1;
nodes = (
(408,-224,o),
(467,-165,o),
(489,-17,cs),
(537,320,ls),
(557,463,o),
(515,530,o),
(402,530,cs),
(330,530,o),
(269,503,o),
(218,449,c),
(216,449,l),
(225,520,l),
(97,520,l),
(23,0,l),
(158,0,l),
(198,277,ls),
(208,352,o),
(274,417,o),
(341,417,cs),
(392,417,o),
(412,376,o),
(400,293,cs),
(356,-17,ls),
(346,-83,o),
(321,-107,o),
(265,-107,cs),
(241,-107,o),
(214,-103,o),
(191,-96,c),
(158,-208,l),
(197,-218,o),
(237,-224,o),
(276,-224,cs)
);
}
);
width = 586;
},
{
anchors = (
{
name = bottom;
position = "{244, 0}";
},
{
name = top;
position = "{244, 520}";
}
);
layerId = "BBD4F1D4-C528-4189-A814-DA4A859CEB77";
shapes = (
{
closed = 1;
nodes = (
(382,-218,o),
(438,-163,o),
(456,-38,cs),
(507,320,ls),
(527,459,o),
(483,530,o),
(373,530,cs),
(293,530,o),
(218,491,o),
(169,425,c),
(167,425,l),
(180,520,l),
(106,520,l),
(32,0,l),
(109,0,l),
(148,273,ls),
(163,376,o),
(252,463,o),
(344,463,cs),
(415,463,o),
(444,410,o),
(429,307,cs),
(380,-38,ls),
(368,-116,o),
(336,-148,o),
(267,-148,cs),
(242,-148,o),
(218,-143,o),
(195,-135,c),
(174,-202,l),
(205,-212,o),
(238,-218,o),
(270,-218,cs)
);
}
);
width = 563;
},
{
anchors = (
{
name = bottom;
position = "{232, 0}";
},
{
name = top;
position = "{232, 520}";
}
);
layerId = "8CC5B2A3-F3A2-43C7-BF8D-A4D4BD884141";
shapes = (
{
closed = 1;
nodes = (
(359,-211,o),
(408,-164,o),
(422,-61,cs),
(477,320,ls),
(496,456,o),
(451,530,o),
(345,530,cs),
(254,530,o),
(167,476,o),
(117,388,c),
(115,388,l),
(134,520,l),
(115,520,l),
(41,0,l),
(60,0,l),
(101,290,ls),
(119,413,o),
(225,510,o),
(342,510,cs),
(437,510,o),
(475,446,o),
(457,320,cs),
(402,-61,ls),
(389,-153,o),
(350,-191,o),
(267,-191,cs),
(243,-191,o),
(218,-186,o),
(198,-177,c),
(189,-196,l),
(212,-205,o),
(238,-211,o),
(264,-211,cs)
);
}
);
width = 539;
}
);
leftKerningGroup = n;
rightKerningGroup = g;
unicode = 331;
},
{
color = 11;
glyphname = o;
layers = (
{
anchors = (
{
name = bottom;
position = "{254, 0}";
},
{
name = center;
position = "{254, 260}";
},
{
name = ogonek;
position = "{376, 10}";
},
{
name = top;
position = "{254, 520}";
},
{
name = topright;
position = "{426, 484}";
}
);
layerId = "6AE7522C-F5AE-4477-8831-CE4DC346C7C6";
shapes = (
{
closed = 1;
nodes = (
(427,-10,o),
(535,84,o),
(560,260,cs),
(585,436,o),
(505,530,o),
(330,530,cs),
(155,530,o),
(49,436,o),
(23,260,cs),
(-2,84,o),
(77,-10,o),
(253,-10,cs)
);
},
{
closed = 1;
nodes = (
(220,130,o),
(202,171,o),
(215,260,cs),
(227,349,o),
(257,390,o),
(310,390,cs),
(363,390,o),
(381,349,o),
(369,260,cs),
(356,171,o),
(326,130,o),
(273,130,cs)
);
}
);
width = 593;
},
{
anchors = (
{
name = bottom;
position = "{244, 0}";
},
{
name = center;
position = "{244, 260}";
},
{
name = ogonek;
position = "{337, 3}";
},
{
name = top;
position = "{244, 520}";
},
{
name = topright;
position = "{411, 483}";
}
);
layerId = "11CDF5B9-5D39-499F-A086-8A564624B78D";
shapes = (
{
closed = 1;
nodes = (
(404,-10,o),
(510,87,o),
(534,260,cs),
(559,433,o),
(481,530,o),
(319,530,cs),
(157,530,o),
(52,433,o),
(27,260,cs),
(3,87,o),
(79,-10,o),
(242,-10,cs)
);
},
{
closed = 1;
nodes = (
(179,97,o),
(145,152,o),
(161,260,cs),
(176,368,o),
(225,423,o),
(304,423,cs),
(383,423,o),
(416,368,o),
(401,260,cs),
(385,152,o),
(336,97,o),
(258,97,cs)
);
}
);
width = 572;
},
{
anchors = (
{
name = bottom;
position = "{234, 0}";
},
{
name = center;
position = "{234, 260}";
},
{
name = ogonek;
position = "{302, 0}";
},
{
name = top;
position = "{234, 520}";
},
{
name = topright;
position = "{392, 481}";
}
);
layerId = "BBD4F1D4-C528-4189-A814-DA4A859CEB77";
shapes = (
{
closed = 1;
nodes = (
(384,-10,o),
(487,90,o),
(511,260,cs),
(535,430,o),
(461,530,o),
(311,530,cs),
(159,530,o),
(56,430,o),
(32,260,cs),
(8,90,o),
(82,-10,o),
(233,-10,cs)
);
},
{
closed = 1;
nodes = (
(139,57,o),
(91,129,o),
(109,260,cs),
(128,391,o),
(197,463,o),
(301,463,cs),
(405,463,o),
(453,391,o),
(434,260,cs),
(415,129,o),
(347,57,o),
(243,57,cs)
);
}
);
width = 553;
},
{
anchors = (
{
name = bottom;
position = "{224, 0}";
},
{
name = center;
position = "{224, 260}";
},
{
name = ogonek;
position = "{271, 0}";
},
{
name = top;
position = "{224, 520}";
},
{
name = topright;
position = "{367, 480}";
}
);
layerId = "8CC5B2A3-F3A2-43C7-BF8D-A4D4BD884141";
shapes = (
{
closed = 1;
nodes = (
(362,-10,o),
(462,92,o),
(486,260,cs),
(510,428,o),
(439,530,o),
(300,530,cs),
(160,530,o),
(61,428,o),
(37,260,cs),
(13,92,o),
(83,-10,o),
(223,-10,cs)
);
},
{
closed = 1;
nodes = (
(98,10,o),
(34,102,o),
(57,260,cs),
(79,418,o),
(169,510,o),
(297,510,cs),
(425,510,o),
(489,418,o),
(466,260,cs),
(443,102,o),
(353,10,o),
(226,10,cs)
);
}
);
width = 532;
}
);
leftKerningGroup = o;
rightKerningGroup = o;
unicode = 111;
},
{
color = 11;
glyphname = oslash;
layers = (
{
anchors = (
{
name = top;
position = "{263, 520}";
}
);
layerId = "6AE7522C-F5AE-4477-8831-CE4DC346C7C6";
shapes = (
{
closed = 1;
nodes = (
(144,14,l),
(137,20,l),
(519,452,l),
(526,446,l),
(573,500,l),
(502,560,l),
(454,506,l),
(461,500,l),
(80,68,l),
(73,74,l),
(25,20,l),
(96,-40,l)
);
},
{
alignment = -1;
ref = o;
}
);
width = 610;
},
{
anchors = (
{
name = top;
position = "{252, 520}";
}
);
layerId = "11CDF5B9-5D39-499F-A086-8A564624B78D";
shapes = (
{
closed = 1;
nodes = (
(138.,28,l),
(135.286,30,l),
(500.142,442,l),
(501.856,440,l),
(558.999,504,l),
(496.428,556,l),
(440.285,492,l),
(442.999,490,l),
(78.143,78,l),
(76.428,80,l),
(19.286,16,l),
(81.857,-36,l)
);
},
{
alignment = -1;
ref = o;
}
);
width = 589;
},
{
anchors = (
{
name = top;
position = "{242, 520}";
}
);
layerId = "BBD4F1D4-C528-4189-A814-DA4A859CEB77";
shapes = (
{
closed = 1;
nodes = (
(121,39,l),
(121,39,l),
(480,445,l),
(480,445,l),
(538,512,l),
(495,548,l),
(437,481,l),
(437,481,l),
(78,75,l),
(78,75,l),
(18,8,l),
(61,-28,l)
);
},
{
alignment = -1;
ref = o;
}
);
width = 567;
},
{
anchors = (
{
name = top;
position = "{231, 520}";
}
);
layerId = "8CC5B2A3-F3A2-43C7-BF8D-A4D4BD884141";
shapes = (
{
closed = 1;
nodes = (
(91,46,l),
(91,46,l),
(458,462,l),
(458,462,l),
(513,524,l),
(499,536,l),
(444,474,l),
(444,474,l),
(76,58,l),
(76,58,l),
(21,-4,l),
(36,-16,l)
);
},
{
alignment = -1;
ref = o;
}
);
width = 546;
}
);
leftKerningGroup = o;
rightKerningGroup = o;
unicode = 248;
},
{
color = 11;
glyphname = p;
layers = (
{
layerId = "6AE7522C-F5AE-4477-8831-CE4DC346C7C6";
shapes = (
{
closed = 1;
nodes = (
(177,-210,l),
(215,60,l),
(217,60,l),
(254,11,o),
(296,-10,o),
(356,-10,cs),
(486,-10,o),
(574,88,o),
(599,260,cs),
(623,432,o),
(563,530,o),
(433,530,cs),
(373,530,o),
(322,509,o),
(267,460,c),
(265,460,l),
(271,520,l),
(90,520,l),
(-14,-210,l)
);
},
{
closed = 1;
nodes = (
(252,140,o),
(232,177,o),
(241,240,cs),
(247,280,ls),
(256,343,o),
(286,380,o),
(343,380,cs),
(401,380,o),
(423,341,o),
(411,260,cs),
(400,179,o),
(367,140,o),
(309,140,cs)
);
}
);
width = 632;
},
{
layerId = "11CDF5B9-5D39-499F-A086-8A564624B78D";
shapes = (
{
closed = 1;
nodes = (
(128,-210,l),
(167,65,l),
(169,65,l),
(203,14,o),
(250,-10,o),
(316,-10,cs),
(450,-10,o),
(541,89,o),
(566,260,cs),
(590,431,o),
(528,530,o),
(393,530,cs),
(327,530,o),
(271,506,o),
(219,455,c),
(217,455,l),
(225,520,l),
(98,520,l),
(-7,-210,l)
);
},
{
closed = 1;
nodes = (
(215,100,o),
(180,156,o),
(192,240,cs),
(198,280,ls),
(210,364,o),
(261,420,o),
(337,420,cs),
(415,420,o),
(449,364,o),
(434,260,cs),
(419,156,o),
(369,100,o),
(291,100,cs)
);
}
);
width = 603;
},
{
layerId = "BBD4F1D4-C528-4189-A814-DA4A859CEB77";
shapes = (
{
closed = 1;
nodes = (
(79,-210,l),
(120,79,l),
(122,79,l),
(152,21,o),
(207,-10,o),
(283,-10,cs),
(418,-10,o),
(510,89,o),
(534,260,cs),
(559,431,o),
(496,530,o),
(360,530,cs),
(285,530,o),
(219,499,o),
(171,441,c),
(169,441,l),
(180,520,l),
(106,520,l),
(2,-210,l)
);
},
{
closed = 1;
nodes = (
(178,57,o),
(128,131,o),
(143,239,cs),
(149,281,ls),
(165,389,o),
(236,463,o),
(333,463,cs),
(430,463,o),
(476,389,o),
(457,260,cs),
(439,131,o),
(372,57,o),
(275,57,cs)
);
}
);
width = 577;
},
{
layerId = "EF766267-56A5-4429-BD45-4D84D257A888";
partSelection = {
Wt = 2;
};
associatedMasterId = "8CC5B2A3-F3A2-43C7-BF8D-A4D4BD884141";
shapes = (
{
closed = 1;
nodes = (
(130,-210,l),
(130,90,l),
(132,90,l),
(168,27,o),
(236,-10,o),
(320,-10,cs),
(458,-10,o),
(536,88,o),
(536,260,cs),
(536,432,o),
(458,530,o),
(320,530,cs),
(237,530,o),
(168,494,o),
(130,430,c),
(128,430,l),
(128,520,l),
(81,520,l),
(81,-210,l)
);
},
{
closed = 1;
nodes = (
(200,33,o),
(130,115,o),
(130,237,cs),
(130,283,ls),
(130,405,o),
(200,487,o),
(311,487,cs),
(422,487,o),
(487,404,o),
(487,260,cs),
(487,116,o),
(422,33,o),
(311,33,cs)
);
}
);
width = 577;
},
{
layerId = "8CC5B2A3-F3A2-43C7-BF8D-A4D4BD884141";
shapes = (
{
closed = 1;
nodes = (
(31,-210,l),
(78,120,l),
(80,120,l),
(102,39,o),
(164,-10,o),
(255,-10,cs),
(387,-10,o),
(478,91,o),
(502,260,cs),
(526,429,o),
(464,530,o),
(332,530,cs),
(241,530,o),
(165,481,o),
(120,400,c),
(118,400,l),
(136,520,l),
(116,520,l),
(12,-210,l)
);
},
{
closed = 1;
nodes = (
(139,10,o),
(76,100,o),
(95,235,cs),
(102,285,ls),
(121,420,o),
(210,510,o),
(329,510,cs),
(449,510,o),
(505,419,o),
(483,260,cs),
(460,101,o),
(378,10,o),
(258,10,cs)
);
}
);
width = 548;
}
);
partsSettings = (
{
bottomValue = 0;
name = Wt;
topValue = 1000;
}
);
leftKerningGroup = n;
rightKerningGroup = o;
unicode = 112;
},
{
color = 11;
glyphname = thorn;
layers = (
{
layerId = "6AE7522C-F5AE-4477-8831-CE4DC346C7C6";
shapes = (
{
closed = 1;
nodes = (
(172,-240,l),
(215,60,l),
(217,60,l),
(253,12,o),
(296,-10,o),
(356,-10,cs),
(479,-10,o),
(559,85,o),
(584,260,cs),
(609,435,o),
(556,530,o),
(433,530,cs),
(373,530,o),
(324,508,o),
(274,460,c),
(272,460,l),
(315,760,l),
(124,760,l),
(-19,-240,l)
);
},
{
closed = 1;
nodes = (
(256,140,o),
(231,177,o),
(240,240,cs),
(246,280,ls),
(255,343,o),
(290,380,o),
(342,380,cs),
(392,380,o),
(409,345,o),
(397,260,cs),
(385,175,o),
(358,140,o),
(308,140,cs)
);
}
);
width = 617;
},
{
layerId = "11CDF5B9-5D39-499F-A086-8A564624B78D";
shapes = (
{
closed = 1;
nodes = (
(124,-240,l),
(167,65,l),
(169,65,l),
(202,15,o),
(251,-10,o),
(317,-10,cs),
(445,-10,o),
(527,85,o),
(552,260,cs),
(577,434,o),
(522,530,o),
(394,530,cs),
(328,530,o),
(272,505,o),
(225,455,c),
(223,455,l),
(267,760,l),
(132,760,l),
(-11,-240,l)
);
},
{
closed = 1;
nodes = (
(221,100,o),
(180,156,o),
(192,240,cs),
(198,280,ls),
(210,364,o),
(267,420,o),
(339,420,cs),
(409,420,o),
(436,368,o),
(420,260,cs),
(405,152,o),
(363,100,o),
(293,100,cs)
);
}
);
width = 589;
},
{
layerId = "BBD4F1D4-C528-4189-A814-DA4A859CEB77";
shapes = (
{
closed = 1;
nodes = (
(75,-240,l),
(120,79,l),
(122,79,l),
(150,22,o),
(209,-10,o),
(283,-10,cs),
(410,-10,o),
(496,86,o),
(521,260,cs),
(546,434,o),
(487,530,o),
(360,530,cs),
(286,530,o),
(218,498,o),
(174,441,c),
(172,441,l),
(218,760,l),
(141,760,l),
(-2,-240,l)
);
},
{
closed = 1;
nodes = (
(182,57,o),
(128,131,o),
(143,239,cs),
(149,281,ls),
(165,389,o),
(240,463,o),
(334,463,cs),
(424,463,o),
(463,393,o),
(444,260,cs),
(425,127,o),
(366,57,o),
(276,57,cs)
);
}
);
width = 563;
},
{
layerId = "EF766267-56A5-4429-BD45-4D84D257A888";
partSelection = {
Wt = 2;
};
associatedMasterId = "8CC5B2A3-F3A2-43C7-BF8D-A4D4BD884141";
shapes = (
{
closed = 1;
nodes = (
(130,-240,l),
(130,90,l),
(132,90,l),
(166,28,o),
(237,-10,o),
(318,-10,cs),
(448,-10,o),
(522,87,o),
(522,260,cs),
(522,433,o),
(448,530,o),
(318,530,cs),
(237,530,o),
(166,492,o),
(132,430,c),
(130,430,l),
(130,760,l),
(81,760,l),
(81,-240,l)
);
},
{
closed = 1;
nodes = (
(203,33,o),
(130,116,o),
(130,237,cs),
(130,283,ls),
(130,404,o),
(203,487,o),
(310,487,cs),
(415,487,o),
(473,407,o),
(473,260,cs),
(473,113,o),
(415,33,o),
(310,33,cs)
);
}
);
width = 563;
},
{
layerId = "8CC5B2A3-F3A2-43C7-BF8D-A4D4BD884141";
shapes = (
{
closed = 1;
nodes = (
(26,-240,l),
(77,120,l),
(79,120,l),
(101,39,o),
(162,-10,o),
(251,-10,cs),
(377,-10,o),
(463,88,o),
(487,260,cs),
(512,432,o),
(454,530,o),
(328,530,cs),
(239,530,o),
(164,481,o),
(119,400,c),
(117,400,l),
(169,760,l),
(150,760,l),
(7,-240,l)
);
},
{
closed = 1;
nodes = (
(138,10,o),
(74,100,o),
(94,235,cs),
(101,285,ls),
(120,420,o),
(210,510,o),
(325,510,cs),
(440,510,o),
(491,421,o),
(468,260,cs),
(445,99,o),
(368,10,o),
(253,10,cs)
);
}
);
width = 533;
}
);
partsSettings = (
{
bottomValue = 0;
name = Wt;
topValue = 1000;
}
);
leftKerningGroup = b;
rightKerningGroup = o;
unicode = 254;
},
{
color = 11;
glyphname = q;
layers = (
{
layerId = "6AE7522C-F5AE-4477-8831-CE4DC346C7C6";
shapes = (
{
closed = 1;
nodes = (
(311,-210,l),
(350,60,l),
(348,60,l),
(297,11,o),
(249,-10,o),
(189,-10,cs),
(59,-10,o),
(-1,88,o),
(23,260,cs),
(48,432,o),
(136,530,o),
(266,530,cs),
(326,530,o),
(371,509,o),
(413,460,c),
(415,460,l),
(425,520,l),
(607,520,l),
(502,-210,l)
);
},
{
closed = 1;
nodes = (
(336,140,o),
(366,177,o),
(375,240,cs),
(381,280,ls),
(390,343,o),
(370,380,o),
(314,380,cs),
(255,380,o),
(222,341,o),
(211,260,cs),
(199,179,o),
(221,140,o),
(279,140,cs)
);
}
);
width = 631;
},
{
layerId = "11CDF5B9-5D39-499F-A086-8A564624B78D";
shapes = (
{
closed = 1;
nodes = (
(332,-210,l),
(371,65,l),
(369,65,l),
(321,14,o),
(267,-10,o),
(200,-10,cs),
(67,-10,o),
(4,89,o),
(28,260,cs),
(53,431,o),
(143,530,o),
(277,530,cs),
(344,530,o),
(393,506,o),
(431,455,c),
(432,455,l),
(443,520,l),
(570,520,l),
(466,-210,l)
);
},
{
closed = 1;
nodes = (
(333,100,o),
(384,156,o),
(396,240,cs),
(402,280,ls),
(414,364,o),
(379,420,o),
(303,420,cs),
(225,420,o),
(175,364,o),
(160,260,cs),
(145,156,o),
(179,100,o),
(257,100,cs)
);
}
);
width = 604;
},
{
layerId = "BBD4F1D4-C528-4189-A814-DA4A859CEB77";
shapes = (
{
closed = 1;
nodes = (
(353,-210,l),
(394,79,l),
(392,79,l),
(346,21,o),
(282,-10,o),
(206,-10,cs),
(72,-10,o),
(8,89,o),
(32,260,cs),
(57,431,o),
(148,530,o),
(283,530,cs),
(358,530,o),
(415,499,o),
(447,441,c),
(449,441,l),
(460,520,l),
(534,520,l),
(430,-210,l)
);
},
{
closed = 1;
nodes = (
(331,57,o),
(402,131,o),
(417,239,cs),
(423,281,ls),
(439,389,o),
(389,463,o),
(291,463,cs),
(195,463,o),
(128,389,o),
(109,260,cs),
(91,131,o),
(137,57,o),
(233,57,cs)
);
}
);
width = 576;
},
{
layerId = "EF766267-56A5-4429-BD45-4D84D257A888";
partSelection = {
Wt = 2;
};
associatedMasterId = "8CC5B2A3-F3A2-43C7-BF8D-A4D4BD884141";
shapes = (
{
alignment = -1;
pos = (577,0);
ref = p;
scale = (-1,1);
}
);
width = 577;
},
{
layerId = "8CC5B2A3-F3A2-43C7-BF8D-A4D4BD884141";
shapes = (
{
closed = 1;
nodes = (
(394,-210,l),
(498,520,l),
(479,520,l),
(462,400,l),
(460,400,l),
(438,481,o),
(376,530,o),
(285,530,cs),
(154,530,o),
(62,429,o),
(38,260,cs),
(14,91,o),
(76,-10,o),
(208,-10,cs),
(299,-10,o),
(375,39,o),
(420,120,c),
(422,120,l),
(375,-210,l)
);
},
{
closed = 1;
nodes = (
(91,10,o),
(35,101,o),
(58,260,cs),
(80,419,o),
(162,510,o),
(282,510,cs),
(401,510,o),
(465,420,o),
(445,285,cs),
(438,235,ls),
(419,100,o),
(330,10,o),
(211,10,cs)
);
}
);
width = 549;
}
);
partsSettings = (
{
bottomValue = 0;
name = Wt;
topValue = 1000;
}
);
leftKerningGroup = o;
rightKerningGroup = u;
unicode = 113;
},
{
color = 11;
glyphname = r;
layers = (
{
anchors = (
{
name = bottom;
position = "{211, 0}";
},
{
name = top;
position = "{211, 520}";
}
);
layerId = "6AE7522C-F5AE-4477-8831-CE4DC346C7C6";
shapes = (
{
closed = 1;
nodes = (
(208,0,l),
(239,220,ls),
(251,303,o),
(358,370,o),
(477,370,c),
(500,530,l),
(415,530,o),
(334,496,o),
(263,430,c),
(261,430,l),
(272,520,l),
(89,520,l),
(15,0,l)
);
}
);
width = 483;
},
{
anchors = (
{
name = bottom;
position = "{200, 0}";
},
{
name = top;
position = "{200, 520}";
}
);
layerId = "11CDF5B9-5D39-499F-A086-8A564624B78D";
shapes = (
{
closed = 1;
nodes = (
(159,0,l),
(193,240,ls),
(207,336,o),
(326,413,o),
(460,413,c),
(476,530,l),
(377,530,o),
(282,491,o),
(216,423,c),
(214,423,l),
(226,520,l),
(98,520,l),
(23,0,l)
);
}
);
width = 456;
},
{
anchors = (
{
name = bottom;
position = "{189, 0}";
},
{
name = top;
position = "{189, 520}";
}
);
layerId = "BBD4F1D4-C528-4189-A814-DA4A859CEB77";
shapes = (
{
closed = 1;
nodes = (
(110,0,l),
(147,260,ls),
(164,375,o),
(289,460,o),
(443,460,c),
(453,530,l),
(338,530,o),
(229,485,o),
(168,412,c),
(166,412,l),
(180,520,l),
(106,520,l),
(32,0,l)
);
}
);
width = 434;
},
{
anchors = (
{
name = bottom;
position = "{231, 0}";
},
{
name = top;
position = "{231, 520}";
}
);
layerId = "EF766267-56A5-4429-BD45-4D84D257A888";
partSelection = {
Wt = 2;
};
associatedMasterId = "8CC5B2A3-F3A2-43C7-BF8D-A4D4BD884141";
shapes = (
{
closed = 1;
nodes = (
(130,0,l),
(130,270,ls),
(130,398,o),
(246,485,o),
(417,485,c),
(417,530,l),
(291,530,o),
(180,481,o),
(131,404,c),
(129,404,l),
(128,520,l),
(81,520,l),
(81,0,l)
);
}
);
width = 433;
},
{
anchors = (
{
name = bottom;
position = "{177, 0}";
},
{
name = top;
position = "{177, 520}";
}
);
layerId = "8CC5B2A3-F3A2-43C7-BF8D-A4D4BD884141";
shapes = (
{
closed = 1;
nodes = (
(60,0,l),
(100,280,ls),
(118,408,o),
(263,510,o),
(426,510,c),
(429,530,l),
(298,530,o),
(174,466,o),
(115,370,c),
(113,370,l),
(134,520,l),
(115,520,l),
(41,0,l)
);
}
);
width = 411;
}
);
partsSettings = (
{
bottomValue = 0;
name = Wt;
topValue = 1000;
}
);
leftKerningGroup = n;
rightKerningGroup = r;
unicode = 114;
},
{
color = 11;
glyphname = s;
layers = (
{
anchors = (
{
name = bottom;
position = "{246, 0}";
},
{
name = cedi;
position = "{188, 0}";
},
{
name = top;
position = "{246, 520}";
}
);
layerId = "C5F4283E-B043-46F3-B9B1-CC9F5D813424";
name = "Medium.Dec 5 20, 15:24";
shapes = (
{
closed = 1;
nodes = (
(377,-10,o),
(459,48,o),
(459,143,cs),
(459,241,o),
(376,283,o),
(257,310,c),
(174,332,o),
(146,350,o),
(146,384,cs),
(146,421,o),
(181,440,o),
(257,440,cs),
(315,440,o),
(372,428,o),
(424,404,c),
(439,494,l),
(379,517,o),
(310,530,o),
(244,530,cs),
(111,530,o),
(36,478,o),
(36,385,cs),
(36,288,o),
(112,251,o),
(235,221,cs),
(323,198,o),
(349,180,o),
(349,144,cs),
(349,101,o),
(310,80,o),
(233,80,cs),
(171,80,o),
(117,94,o),
(57,122,c),
(42,32,l),
(98,6,o),
(175,-10,o),
(246,-10,cs)
);
}
);
width = 495;
},
{
anchors = (
{
name = bottom;
position = "{215, 0}";
},
{
name = cedi;
position = "{160, 0}";
},
{
name = top;
position = "{215, 520}";
}
);
layerId = "6AE7522C-F5AE-4477-8831-CE4DC346C7C6";
shapes = (
{
closed = 1;
nodes = (
(358,-10,o),
(457,54,o),
(472,155,cs),
(484,244,o),
(425,299,o),
(284,331,c),
(246,342,o),
(231,351,o),
(234,367,cs),
(236,384,o),
(253,390,o),
(297,390,cs),
(353,390,o),
(395,380,o),
(461,354,c),
(500,494,l),
(433,517,o),
(356,530,o),
(291,530,cs),
(141,530,o),
(54,475,o),
(39,370,cs),
(26,277,o),
(77,229,o),
(226,191,c),
(270,178,o),
(279,172,o),
(277,157,cs),
(274,137,o),
(257,130,o),
(213,130,cs),
(155,130,o),
(102,143,o),
(35,172,c),
(-4,32,l),
(59,4,o),
(133,-10,o),
(219,-10,cs)
);
}
);
width = 520;
},
{
anchors = (
{
name = bottom;
position = "{208, 0}";
},
{
name = cedi;
position = "{151, 0}";
},
{
name = top;
position = "{208, 520}";
}
);
layerId = "11CDF5B9-5D39-499F-A086-8A564624B78D";
shapes = (
{
closed = 1;
nodes = (
(343,-10,o),
(435,50,o),
(449,147,cs),
(461,233,o),
(405,285,o),
(267,317,c),
(198,335,o),
(177,350,o),
(181,378,cs),
(185,409,o),
(216,423,o),
(284,423,cs),
(342,423,o),
(394,412,o),
(450,388,c),
(481,494,l),
(423,516,o),
(347,530,o),
(281,530,cs),
(141,530,o),
(58,477,o),
(44,380,cs),
(32,294,o),
(81,248,o),
(225,210,cs),
(298,191,o),
(317,178,o),
(313,150,cs),
(308,114,o),
(273,97,o),
(205,97,cs),
(144,97,o),
(90,110,o),
(28,138,c),
(-2,32,l),
(53,5,o),
(131,-10,o),
(207,-10,cs)
);
}
);
width = 502;
},
{
anchors = (
{
name = bottom;
position = "{201, 0}";
},
{
name = cedi;
position = "{144, 0}";
},
{
name = top;
position = "{201, 520}";
}
);
layerId = "BBD4F1D4-C528-4189-A814-DA4A859CEB77";
shapes = (
{
closed = 1;
nodes = (
(329,-10,o),
(416,46,o),
(429,139,cs),
(442,229,o),
(372,271,o),
(251,300,cs),
(166,321,o),
(122,340,o),
(129,389,cs),
(136,438,o),
(184,463,o),
(273,463,cs),
(334,463,o),
(397,451,o),
(441,429,c),
(462,494,l),
(415,516,o),
(340,530,o),
(274,530,cs),
(145,530,o),
(63,479,o),
(51,390,cs),
(38,303,o),
(102,265,o),
(225,233,c),
(315,211,o),
(359,193,o),
(352,141,cs),
(344,86,o),
(290,57,o),
(198,57,cs),
(136,57,o),
(78,71,o),
(24,97,c),
(3,32,l),
(53,5,o),
(127,-10,o),
(198,-10,cs)
);
}
);
width = 489;
},
{
anchors = (
{
name = bottom;
position = "{227, 0}";
},
{
name = cedi;
position = "{168, 0}";
},
{
name = top;
position = "{227, 520}";
}
);
layerId = "42A120BA-DE39-4D6A-B501-034FE6D6BD54";
associatedMasterId = "8CC5B2A3-F3A2-43C7-BF8D-A4D4BD884141";
name = "Dec 5 20, 15:22";
shapes = (
{
closed = 1;
nodes = (
(341,-10,o),
(412,42,o),
(412,130,cs),
(412,231,o),
(315,256,o),
(226,279,cs),
(140,301,o),
(62,321,o),
(62,400,cs),
(62,469,o),
(121,510,o),
(222,510,cs),
(282,510,o),
(351,496,o),
(387,476,c),
(397,494,l),
(357,515,o),
(284,530,o),
(222,530,cs),
(111,530,o),
(42,481,o),
(42,400,cs),
(42,305,o),
(135,282,o),
(221,260,cs),
(310,237,o),
(392,216,o),
(392,130,cs),
(392,54,o),
(330,10,o),
(222,10,cs),
(160,10,o),
(101,24,o),
(53,49,c),
(43,31,l),
(95,4,o),
(158,-10,o),
(222,-10,cs)
);
}
);
width = 454;
},
{
anchors = (
{
name = bottom;
position = "{195, 0}";
},
{
name = cedi;
position = "{137, 0}";
},
{
name = top;
position = "{195, 520}";
}
);
background = {
shapes = (
{
closed = 0;
nodes = (
(49,40,l),
(103,14,o),
(169,0,o),
(237,0,cs),
(360,0,o),
(433,48,o),
(433,130,cs),
(433,315,o),
(53,224,o),
(53,400,cs),
(53,475,o),
(122,520,o),
(237,520,cs),
(305,520,o),
(382,505,o),
(422,485,c)
);
}
);
};
layerId = "8CC5B2A3-F3A2-43C7-BF8D-A4D4BD884141";
shapes = (
{
closed = 1;
nodes = (
(313,-10,o),
(396,42,o),
(408,130,cs),
(423,232,o),
(324,256,o),
(234,279,cs),
(145,301,o),
(65,321,o),
(77,400,cs),
(86,469,o),
(155,510,o),
(262,510,cs),
(326,510,o),
(398,496,o),
(434,476,c),
(444,494,l),
(406,515,o),
(331,530,o),
(265,530,cs),
(148,530,o),
(69,481,o),
(57,400,cs),
(43,305,o),
(138,282,o),
(226,259,cs),
(317,237,o),
(401,216,o),
(389,130,cs),
(378,54,o),
(306,10,o),
(191,10,cs),
(125,10,o),
(65,24,o),
(17,49,c),
(6,31,l),
(56,4,o),
(120,-10,o),
(188,-10,cs)
);
}
);
width = 473;
}
);
leftKerningGroup = s;
rightKerningGroup = s;
unicode = 115;
},
{
color = 11;
glyphname = germandbls;
layers = (
{
layerId = "6AE7522C-F5AE-4477-8831-CE4DC346C7C6";
shapes = (
{
closed = 1;
nodes = (
(472,-10,o),
(553,47,o),
(567,145,cs),
(573,192,o),
(562,232,o),
(528,288,cs),
(504,327,o),
(487,365,o),
(489,377,cs),
(490,386,o),
(504,407,o),
(550,465,cs),
(593,521,o),
(611,556,o),
(616,590,cs),
(631,691,o),
(535,760,o),
(378,760,cs),
(204,760,o),
(113,684,o),
(89,520,cs),
(15,0,l),
(206,0,l),
(279,513,ls),
(290,586,o),
(303,600,o),
(365,600,cs),
(412,600,o),
(431,590,o),
(428,568,cs),
(425,547,o),
(402,510,o),
(368,474,cs),
(323,425,o),
(307,400,o),
(304,375,c),
(300,351,o),
(308,330,o),
(341,274,cs),
(374,218,o),
(383,196,o),
(380,177,cs),
(377,156,o),
(361,145,o),
(334,145,cs),
(320,145,o),
(301,148,o),
(276,155,c),
(245,0,l),
(287,-7,o),
(318,-10,o),
(346,-10,cs)
);
}
);
width = 618;
},
{
layerId = "11CDF5B9-5D39-499F-A086-8A564624B78D";
shapes = (
{
closed = 1;
nodes = (
(447,-10,o),
(528,50,o),
(542,150,cs),
(550,202,o),
(536,242,o),
(485,312,cs),
(451,358,o),
(440,379,o),
(442,391,cs),
(443,401,o),
(457,418,o),
(498,468,c),
(555,534,o),
(574,568,o),
(580,607,cs),
(593,702,o),
(513,760,o),
(367,760,cs),
(205,760,o),
(121,689,o),
(99,532,cs),
(23,0,l),
(158,0,l),
(234,529,ls),
(247,620,o),
(272,643,o),
(357,643,cs),
(424,643,o),
(453,628,o),
(448,595,cs),
(445,571,o),
(423,540,o),
(370,484,cs),
(325,435,o),
(311,413,o),
(308,390,cs),
(304,365,o),
(315,340,o),
(349,291,c),
(405,215,o),
(416,194,o),
(412,168,cs),
(406,129,o),
(372,105,o),
(321,105,cs),
(298,105,o),
(267,111,o),
(236,120,c),
(208,5,l),
(250,-5,o),
(293,-10,o),
(328,-10,cs)
);
}
);
width = 596;
},
{
layerId = "BBD4F1D4-C528-4189-A814-DA4A859CEB77";
shapes = (
{
closed = 1;
nodes = (
(423,-10,o),
(503,53,o),
(517,155,cs),
(525,213,o),
(509,253,o),
(441,336,cs),
(404,382,o),
(395,394,o),
(397,405,cs),
(398,414,o),
(409,428,o),
(447,470,c),
(517,543,o),
(539,579,o),
(545,623,cs),
(558,711,o),
(490,760,o),
(357,760,cs),
(204,760,o),
(132,697,o),
(110,544,cs),
(32,0,l),
(109,0,l),
(187,543,ls),
(203,657,o),
(241,690,o),
(350,690,cs),
(438,690,o),
(476,667,o),
(469,619,cs),
(465,587,o),
(444,556,o),
(377,488,c),
(335,444,o),
(321,425,o),
(318,405,cs),
(315,382,o),
(328,358,o),
(362,315,cs),
(435,227,o),
(449,201,o),
(443,163,cs),
(434,100,o),
(381,60,o),
(307,60,cs),
(274,60,o),
(230,68,o),
(191,80,c),
(170,10,l),
(217,-3,o),
(269,-10,o),
(308,-10,cs)
);
}
);
width = 575;
},
{
layerId = "8CC5B2A3-F3A2-43C7-BF8D-A4D4BD884141";
shapes = (
{
closed = 1;
nodes = (
(397,-10,o),
(478,57,o),
(493,160,cs),
(502,224,o),
(484,264,o),
(396,360,cs),
(361,400,o),
(353,411,o),
(354,420,cs),
(355,427,o),
(362,436,o),
(400,473,cs),
(478,548,o),
(505,588,o),
(512,640,cs),
(524,719,o),
(466,760,o),
(345,760,cs),
(201,760,o),
(142,706,o),
(120,555,cs),
(41,0,l),
(60,0,l),
(139,555,ls),
(159,696,o),
(209,740,o),
(342,740,cs),
(453,740,o),
(503,706,o),
(493,640,cs),
(487,594,o),
(463,559,o),
(387,486,cs),
(354,453,o),
(337,436,o),
(335,420,cs),
(332,401,o),
(347,383,o),
(380,345,cs),
(463,252,o),
(481,218,o),
(473,160,cs),
(460,69,o),
(389,10,o),
(291,10,cs),
(250,10,o),
(189,20,o),
(141,35,c),
(133,15,l),
(184,0,o),
(246,-10,o),
(289,-10,cs)
);
}
);
width = 554;
}
);
leftKerningGroup = h;
rightKerningGroup = X;
unicode = 223;
},
{
color = 11;
glyphname = t;
layers = (
{
anchors = (
{
name = bottom;
position = "{238, 0}";
},
{
name = cedi;
position = "{235, 0}";
},
{
name = center;
position = "{242, 260}";
},
{
name = top;
position = "{242, 520}";
},
{
name = topright;
position = "{462, 520}";
}
);
layerId = "2113BCEE-F750-4DFB-8600-58A76BF91610";
name = "Medium.Dec 5 20, 15:36";
shapes = (
{
closed = 1;
nodes = (
(342,-10,o),
(381,-5,o),
(427,8,c),
(417,100,l),
(386,90,o),
(353,85,o),
(325,85,cs),
(269,85,o),
(250,106,o),
(250,170,cs),
(250,430,l),
(427,430,l),
(427,520,l),
(250,520,l),
(250,690,l),
(141,690,l),
(141,520,l),
(18,520,l),
(18,430,l),
(141,430,l),
(141,150,ls),
(141,35,o),
(186,-10,o),
(303,-10,cs)
);
}
);
width = 473;
},
{
anchors = (
{
name = bottom;
position = "{219, 0}";
},
{
name = cedi;
position = "{180, 0}";
},
{
name = center;
position = "{219, 260}";
},
{
name = top;
position = "{219, 520}";
},
{
name = topright;
position = "{465, 520}";
}
);
layerId = "6AE7522C-F5AE-4477-8831-CE4DC346C7C6";
shapes = (
{
closed = 1;
nodes = (
(315,-10,o),
(364,-4,o),
(422,10,c),
(428,155,l),
(399,147,o),
(357,140,o),
(333,140,cs),
(301,140,o),
(294,152,o),
(301,200,cs),
(326,380,l),
(477,380,l),
(497,520,l),
(346,520,l),
(371,690,l),
(177,690,l),
(153,520,l),
(46,520,l),
(26,380,l),
(133,380,l),
(102,160,ls),
(84,38,o),
(132,-10,o),
(268,-10,cs)
);
}
);
width = 511;
},
{
anchors = (
{
name = bottom;
position = "{220, 0}";
},
{
name = cedi;
position = "{197, 0}";
},
{
name = center;
position = "{220, 260}";
},
{
name = top;
position = "{220, 520}";
},
{
name = topright;
position = "{445, 520}";
}
);
layerId = "11CDF5B9-5D39-499F-A086-8A564624B78D";
shapes = (
{
closed = 1;
nodes = (
(321,-10,o),
(365,-5,o),
(416,9,c),
(419,118,l),
(387,109,o),
(350,103,o),
(323,103,cs),
(272,103,o),
(258,121,o),
(267,180,cs),
(300,413,l),
(475,413,l),
(490,520,l),
(315,520,l),
(340,690,l),
(205,690,l),
(181,520,l),
(60,520,l),
(45,413,l),
(165,413,l),
(128,153,ls),
(111,35,o),
(154,-10,o),
(278,-10,cs)
);
}
);
width = 489;
},
{
anchors = (
{
name = bottom;
position = "{212, 0}";
},
{
name = cedi;
position = "{204, 0}";
},
{
name = center;
position = "{212, 260}";
},
{
name = top;
position = "{212, 520}";
},
{
name = topright;
position = "{415, 520}";
}
);
layerId = "BBD4F1D4-C528-4189-A814-DA4A859CEB77";
shapes = (
{
closed = 1;
nodes = (
(318,-10,o),
(357,-5,o),
(400,7,c),
(401,75,l),
(367,65,o),
(334,60,o),
(303,60,cs),
(233,60,o),
(213,84,o),
(224,160,cs),
(266,453,l),
(463,453,l),
(472,520,l),
(275,520,l),
(300,690,l),
(223,690,l),
(198,520,l),
(64,520,l),
(54,453,l),
(189,453,l),
(145,147,ls),
(129,33,o),
(165,-10,o),
(279,-10,cs)
);
}
);
width = 476;
},
{
anchors = (
{
name = bottom;
position = "{203, 0}";
},
{
name = cedi;
position = "{211, 0}";
},
{
name = center;
position = "{203, 260}";
},
{
name = top;
position = "{203, 520}";
},
{
name = topright;
position = "{385, 520}";
}
);
layerId = "8CC5B2A3-F3A2-43C7-BF8D-A4D4BD884141";
shapes = (
{
closed = 1;
nodes = (
(315,-10,o),
(349,-5,o),
(384,5,c),
(381,24,l),
(348,15,o),
(316,10,o),
(282,10,cs),
(191,10,o),
(167,41,o),
(181,140,cs),
(232,500,l),
(453,500,l),
(455,520,l),
(235,520,l),
(259,690,l),
(240,690,l),
(216,520,l),
(67,520,l),
(65,500,l),
(213,500,l),
(161,140,ls),
(146,30,o),
(177,-10,o),
(279,-10,cs)
);
}
);
width = 466;
}
);
leftKerningGroup = f;
rightKerningGroup = c;
unicode = 116;
},
{
color = 11;
glyphname = tbar;
layers = (
{
layerId = "6AE7522C-F5AE-4477-8831-CE4DC346C7C6";
shapes = (
{
closed = 1;
nodes = (
(459,190,l),
(479,330,l),
(19,330,l),
(-1,190,l)
);
},
{
alignment = -1;
pos = (1,0);
ref = t;
}
);
width = 525;
},
{
anchors = (
{
name = bottom;
position = "{215, 0}";
},
{
name = cedi;
position = "{191, 0}";
},
{
name = center;
position = "{215, 260}";
},
{
name = top;
position = "{215, 520}";
},
{
name = topright;
position = "{446, 520}";
}
);
layerId = "11CDF5B9-5D39-499F-A086-8A564624B78D";
shapes = (
{
closed = 1;
nodes = (
(424,203,l),
(439,310,l),
(19,310,l),
(4,203,l)
);
},
{
alignment = -1;
pos = (-10,0);
ref = t;
}
);
width = 490;
},
{
anchors = (
{
name = bottom;
position = "{209, 0}";
},
{
name = cedi;
position = "{201, 0}";
},
{
name = center;
position = "{209, 260}";
},
{
name = top;
position = "{209, 520}";
},
{
name = topright;
position = "{418, 520}";
}
);
layerId = "BBD4F1D4-C528-4189-A814-DA4A859CEB77";
shapes = (
{
closed = 1;
nodes = (
(393,220,l),
(403,287,l),
(23,287,l),
(13,220,l)
);
},
{
alignment = -1;
pos = (-8,0);
ref = t;
}
);
width = 456;
},
{
layerId = "8CC5B2A3-F3A2-43C7-BF8D-A4D4BD884141";
shapes = (
{
closed = 1;
nodes = (
(367,240,l),
(370,260,l),
(30,260,l),
(27,240,l)
);
},
{
alignment = -1;
ref = t;
}
);
width = 421;
}
);
leftKerningGroup = f;
rightKerningGroup = c;
unicode = 359;
},
{
color = 11;
glyphname = u;
layers = (
{
anchors = (
{
name = bottom;
position = "{259, 0}";
},
{
name = ogonek;
position = "{510, 0}";
},
{
name = top;
position = "{259, 520}";
},
{
name = top_ring;
position = "{259, 540}";
},
{
name = topright;
position = "{481, 480}";
}
);
layerId = "6AE7522C-F5AE-4477-8831-CE4DC346C7C6";
shapes = (
{
closed = 1;
nodes = (
(234,-10,o),
(280,10,o),
(334,60,c),
(336,60,l),
(329,0,l),
(510,0,l),
(584,520,l),
(393,520,l),
(350,220,ls),
(345,179,o),
(309,150,o),
(268,150,cs),
(230,150,o),
(219,175,o),
(228,240,cs),
(268,520,l),
(77,520,l),
(32,200,ls),
(11,53,o),
(52,-10,o),
(168,-10,cs)
);
}
);
width = 609;
},
{
anchors = (
{
name = bottom;
position = "{249, 0}";
},
{
name = ogonek;
position = "{479, 0}";
},
{
name = top;
position = "{249, 520}";
},
{
name = top_ring;
position = "{249, 540}";
},
{
name = topright;
position = "{459, 480}";
}
);
layerId = "11CDF5B9-5D39-499F-A086-8A564624B78D";
shapes = (
{
closed = 1;
nodes = (
(246,-10,o),
(308,17,o),
(358,71,c),
(360,71,l),
(351,0,l),
(479,0,l),
(553,520,l),
(419,520,l),
(380,243,ls),
(369,168,o),
(302,103,o),
(237,103,cs),
(184,103,o),
(165,144,o),
(177,227,cs),
(219,520,l),
(85,520,l),
(39,200,ls),
(19,57,o),
(62,-10,o),
(175,-10,cs)
);
}
);
width = 586;
},
{
anchors = (
{
name = bottom;
position = "{237, 0}";
},
{
name = ogonek;
position = "{447, 0}";
},
{
name = top;
position = "{237, 520}";
},
{
name = top_ring;
position = "{237, 540}";
},
{
name = topright;
position = "{438, 480}";
}
);
layerId = "BBD4F1D4-C528-4189-A814-DA4A859CEB77";
shapes = (
{
closed = 1;
nodes = (
(260,-10,o),
(335,26,o),
(383,87,c),
(385,87,l),
(373,0,l),
(446,0,l),
(521,520,l),
(444,520,l),
(405,247,ls),
(390,144,o),
(301,57,o),
(210,57,cs),
(139,57,o),
(110,110,o),
(125,214,cs),
(169,520,l),
(92,520,l),
(46,200,ls),
(26,59,o),
(71,-10,o),
(181,-10,cs)
);
}
);
width = 563;
},
{
anchors = (
{
name = bottom;
position = "{279, 0}";
},
{
name = ogonek;
position = "{484, 0}";
},
{
name = top;
position = "{279, 520}";
},
{
name = top_ring;
position = "{279, 540}";
},
{
name = topright;
position = "{480, 480}";
}
);
layerId = "EF766267-56A5-4429-BD45-4D84D257A888";
partSelection = {
Wt = 2;
};
associatedMasterId = "8CC5B2A3-F3A2-43C7-BF8D-A4D4BD884141";
shapes = (
{
closed = 1;
nodes = (
(318,-10,o),
(396,32,o),
(435,98,c),
(437,98,l),
(437,0,l),
(484,0,l),
(484,520,l),
(435,520,l),
(435,238,ls),
(435,125,o),
(349,33,o),
(242,33,cs),
(157,33,o),
(114,92,o),
(114,207,cs),
(114,520,l),
(65,520,l),
(65,200,ls),
(65,60,o),
(120,-10,o),
(232,-10,cs)
);
}
);
width = 565;
},
{
anchors = (
{
name = bottom;
position = "{223, 0}";
},
{
name = ogonek;
position = "{414, 0}";
},
{
name = top;
position = "{223, 520}";
},
{
name = top_ring;
position = "{223, 540}";
},
{
name = topright;
position = "{414, 480}";
}
);
layerId = "8CC5B2A3-F3A2-43C7-BF8D-A4D4BD884141";
shapes = (
{
closed = 1;
nodes = (
(275,-10,o),
(362,44,o),
(412,132,c),
(414,132,l),
(395,0,l),
(414,0,l),
(489,520,l),
(469,520,l),
(428,230,ls),
(410,107,o),
(305,10,o),
(188,10,cs),
(93,10,o),
(54,74,o),
(72,200,cs),
(118,520,l),
(99,520,l),
(53,200,ls),
(33,64,o),
(78,-10,o),
(185,-10,cs)
);
}
);
width = 540;
}
);
partsSettings = (
{
bottomValue = 0;
name = Wt;
topValue = 1000;
}
);
leftKerningGroup = u;
rightKerningGroup = u;
unicode = 117;
},
{
color = 11;
glyphname = v;
layers = (
{
layerId = "6AE7522C-F5AE-4477-8831-CE4DC346C7C6";
shapes = (
{
closed = 1;
nodes = (
(378,0,l),
(600,520,l),
(404,520,l),
(263,120,l),
(261,120,l),
(234,520,l),
(37,520,l),
(111,0,l)
);
}
);
width = 573;
},
{
layerId = "11CDF5B9-5D39-499F-A086-8A564624B78D";
shapes = (
{
closed = 1;
nodes = (
(327,0,l),
(571,520,l),
(429,520,l),
(247,92,l),
(245,92,l),
(185,520,l),
(43,520,l),
(138,0,l)
);
}
);
width = 550;
},
{
layerId = "BBD4F1D4-C528-4189-A814-DA4A859CEB77";
shapes = (
{
closed = 1;
nodes = (
(270,0,l),
(537,520,l),
(453,520,l),
(225,58,l),
(223,58,l),
(128,520,l),
(44,520,l),
(162,0,l)
);
}
);
width = 517;
},
{
layerId = "8CC5B2A3-F3A2-43C7-BF8D-A4D4BD884141";
shapes = (
{
closed = 1;
nodes = (
(215,0,l),
(504,520,l),
(482,520,l),
(204,17,l),
(202,17,l),
(67,520,l),
(46,520,l),
(186,0,l)
);
}
);
width = 485;
}
);
leftKerningGroup = v;
rightKerningGroup = v;
unicode = 118;
},
{
color = 11;
glyphname = w;
layers = (
{
anchors = (
{
name = bottom;
position = "{363, 0}";
},
{
name = top;
position = "{363, 520}";
}
);
layerId = "6AE7522C-F5AE-4477-8831-CE4DC346C7C6";
shapes = (
{
closed = 1;
nodes = (
(319,0,l),
(412,350,l),
(414,350,l),
(407,0,l),
(636,0,l),
(829,520,l),
(640,520,l),
(549,170,l),
(547,170,l),
(552,520,l),
(322,520,l),
(227,170,l),
(225,170,l),
(234,520,l),
(45,520,l),
(90,0,l)
);
}
);
width = 809;
},
{
anchors = (
{
name = bottom;
position = "{352, 0}";
},
{
name = top;
position = "{352, 520}";
}
);
layerId = "11CDF5B9-5D39-499F-A086-8A564624B78D";
shapes = (
{
closed = 1;
nodes = (
(278,0,l),
(405,387,l),
(407,387,l),
(424,0,l),
(592,0,l),
(798,520,l),
(657,520,l),
(530,127,l),
(528,127,l),
(511,520,l),
(340,520,l),
(211,127,l),
(209,127,l),
(193,520,l),
(54,520,l),
(111,0,l)
);
}
);
width = 787;
},
{
anchors = (
{
name = bottom;
position = "{333, 0}";
},
{
name = top;
position = "{333, 520}";
}
);
layerId = "BBD4F1D4-C528-4189-A814-DA4A859CEB77";
shapes = (
{
closed = 1;
nodes = (
(226,0,l),
(395,436,l),
(397,436,l),
(441,0,l),
(541,0,l),
(760,520,l),
(676,520,l),
(505,77,l),
(503,77,l),
(460,520,l),
(355,520,l),
(186,77,l),
(184,77,l),
(140,520,l),
(56,520,l),
(126,0,l)
);
}
);
width = 751;
},
{
anchors = (
{
name = bottom;
position = "{316, 0}";
},
{
name = top;
position = "{316, 520}";
}
);
layerId = "8CC5B2A3-F3A2-43C7-BF8D-A4D4BD884141";
shapes = (
{
closed = 1;
nodes = (
(170,0,l),
(386,499,l),
(388,499,l),
(462,0,l),
(491,0,l),
(722,520,l),
(701,520,l),
(481,21,l),
(479,21,l),
(405,520,l),
(376,520,l),
(159,21,l),
(157,21,l),
(79,520,l),
(59,520,l),
(140,0,l)
);
}
);
width = 716;
}
);
leftKerningGroup = v;
rightKerningGroup = v;
unicode = 119;
},
{
color = 11;
glyphname = x;
layers = (
{
layerId = "6AE7522C-F5AE-4477-8831-CE4DC346C7C6";
shapes = (
{
closed = 1;
nodes = (
(175,0,l),
(267,160,l),
(269,160,l),
(314,0,l),
(511,0,l),
(413,260,l),
(583,520,l),
(386,520,l),
(297,360,l),
(295,360,l),
(251,520,l),
(54,520,l),
(150,260,l),
(-21,0,l)
);
}
);
width = 573;
},
{
layerId = "11CDF5B9-5D39-499F-A086-8A564624B78D";
shapes = (
{
closed = 1;
nodes = (
(131,0,l),
(259,189,l),
(261,189,l),
(336,0,l),
(483,0,l),
(363,261,l),
(554,520,l),
(407,520,l),
(282,333,l),
(280,333,l),
(207,520,l),
(60,520,l),
(178,261,l),
(-16,0,l)
);
}
);
width = 551;
},
{
layerId = "BBD4F1D4-C528-4189-A814-DA4A859CEB77";
shapes = (
{
closed = 1;
nodes = (
(77,0,l),
(249,218,l),
(251,218,l),
(363,0,l),
(451,0,l),
(309,262,l),
(522,520,l),
(433,520,l),
(264,306,l),
(262,306,l),
(154,520,l),
(65,520,l),
(205,262,l),
(-13,0,l)
);
}
);
width = 523;
},
{
layerId = "8CC5B2A3-F3A2-43C7-BF8D-A4D4BD884141";
shapes = (
{
closed = 1;
nodes = (
(17,0,l),
(240,247,l),
(242,247,l),
(395,0,l),
(420,0,l),
(256,263,l),
(489,520,l),
(464,520,l),
(247,279,l),
(245,279,l),
(95,520,l),
(70,520,l),
(231,263,l),
(-9,0,l)
);
}
);
width = 496;
}
);
leftKerningGroup = x;
rightKerningGroup = x;
unicode = 120;
},
{
color = 11;
glyphname = y;
layers = (
{
anchors = (
{
name = bottom;
position = "{247, 0}";
},
{
name = dotR;
position = "{377, -210}";
},
{
name = top;
position = "{247, 520}";
}
);
layerId = "6AE7522C-F5AE-4477-8831-CE4DC346C7C6";
shapes = (
{
closed = 1;
nodes = (
(609,520,l),
(404,520,l),
(276,170,l),
(274,170,l),
(238,520,l),
(33,520,l),
(155,0,l),
(49,-210,l),
(249,-210,l)
);
}
);
width = 577;
},
{
anchors = (
{
name = bottom;
position = "{244, 0}";
},
{
name = dotR;
position = "{338, -210}";
},
{
name = top;
position = "{244, 520}";
}
);
layerId = "11CDF5B9-5D39-499F-A086-8A564624B78D";
shapes = (
{
closed = 1;
nodes = (
(589,520,l),
(446,520,l),
(265,135,l),
(263,135,l),
(193,520,l),
(49,519,l),
(178,3,l),
(63,-210,l),
(204,-210,l)
);
}
);
width = 567;
},
{
anchors = (
{
name = bottom;
position = "{227, 0}";
},
{
name = dotR;
position = "{285, -210}";
},
{
name = top;
position = "{227, 520}";
}
);
layerId = "BBD4F1D4-C528-4189-A814-DA4A859CEB77";
shapes = (
{
closed = 1;
nodes = (
(556,520,l),
(473,520,l),
(238,90,l),
(236,90,l),
(134,520,l),
(51,519,l),
(187,6,l),
(64,-210,l),
(145,-210,l)
);
}
);
width = 535;
},
{
anchors = (
{
name = bottom;
position = "{211, 0}";
},
{
name = dotR;
position = "{232, -210}";
},
{
name = top;
position = "{211, 520}";
}
);
layerId = "8CC5B2A3-F3A2-43C7-BF8D-A4D4BD884141";
shapes = (
{
closed = 1;
nodes = (
(524,520,l),
(501,520,l),
(212,35,l),
(210,35,l),
(76,520,l),
(54,518,l),
(196,9,l),
(65,-210,l),
(86,-210,l)
);
}
);
width = 505;
}
);
leftKerningGroup = v;
rightKerningGroup = v;
unicode = 121;
},
{
color = 11;
glyphname = z;
layers = (
{
anchors = (
{
name = bottom;
position = "{264, 0}";
},
{
name = center;
position = "{264, 260}";
},
{
name = top;
position = "{264, 520}";
}
);
layerId = "8C4C2172-0CE3-4C56-AC54-73EDAE1668EE";
name = "Medium.Dec 5 20, 16:52";
shapes = (
{
closed = 1;
nodes = (
(474,0,l),
(474,90,l),
(190,90,l),
(190,92,l),
(474,430,l),
(474,520,l),
(54,520,l),
(54,430,l),
(338,430,l),
(338,428,l),
(54,90,l),
(54,0,l)
);
}
);
width = 528;
},
{
anchors = (
{
name = bottom;
position = "{238, 0}";
},
{
name = center;
position = "{238, 260}";
},
{
name = top;
position = "{238, 520}";
}
);
layerId = "6AE7522C-F5AE-4477-8831-CE4DC346C7C6";
shapes = (
{
closed = 1;
nodes = (
(467,0,l),
(487,140,l),
(270,140,l),
(270,142,l),
(521,380,l),
(541,520,l),
(83,520,l),
(63,380,l),
(280,380,l),
(280,378,l),
(29,140,l),
(9,0,l)
);
}
);
width = 560;
},
{
anchors = (
{
name = bottom;
position = "{213, 0}";
},
{
name = center;
position = "{213, 260}";
},
{
name = top;
position = "{213, 520}";
}
);
layerId = "11CDF5B9-5D39-499F-A086-8A564624B78D";
shapes = (
{
closed = 1;
nodes = (
(430,0,l),
(445,107,l),
(185,107,l),
(185,109,l),
(489,413,l),
(504,520,l),
(71,520,l),
(56,413,l),
(316,413,l),
(316,411,l),
(12,107,l),
(-3,0,l)
);
}
);
width = 511;
},
{
anchors = (
{
name = bottom;
position = "{206, 0}";
},
{
name = center;
position = "{206, 260}";
},
{
name = top;
position = "{206, 520}";
}
);
layerId = "BBD4F1D4-C528-4189-A814-DA4A859CEB77";
shapes = (
{
closed = 1;
nodes = (
(409,0,l),
(419,67,l),
(113,67,l),
(113,69,l),
(474,453,l),
(484,520,l),
(77,520,l),
(68,453,l),
(374,453,l),
(373,451,l),
(12,67,l),
(3,0,l)
);
}
);
width = 496;
},
{
anchors = (
{
name = bottom;
position = "{198, 0}";
},
{
name = center;
position = "{198, 260}";
},
{
name = top;
position = "{198, 520}";
}
);
layerId = "8CC5B2A3-F3A2-43C7-BF8D-A4D4BD884141";
shapes = (
{
closed = 1;
nodes = (
(388,0,l),
(391,20,l),
(37,20,l),
(37,22,l),
(459,500,l),
(462,520,l),
(82,520,l),
(79,500,l),
(433,500,l),
(433,498,l),
(11,20,l),
(8,0,l)
);
}
);
width = 480;
}
);
leftKerningGroup = z;
rightKerningGroup = z;
unicode = 122;
},
{
glyphname = f_f;
layers = (
{
layerId = "6AE7522C-F5AE-4477-8831-CE4DC346C7C6";
shapes = (
{
closed = 1;
nodes = (
(264,-140,l),
(339,380,l),
(536,380,l),
(461,-140,l),
(654,-140,l),
(729,380,l),
(870,380,l),
(890,520,l),
(749,520,l),
(754,550,l),
(761,605,o),
(775,620,o),
(817,620,cs),
(839,620,o),
(863,616,o),
(888,610,c),
(929,755,l),
(885,765,o),
(839,770,o),
(804,770,cs),
(666,770,o),
(581,693,o),
(561,550,c),
(556,520,l),
(359,520,l),
(364,550,l),
(371,605,o),
(385,620,o),
(427,620,cs),
(449,620,o),
(473,616,o),
(498,610,c),
(539,755,l),
(495,765,o),
(449,770,o),
(414,770,cs),
(276,770,o),
(191,693,o),
(171,550,c),
(166,520,l),
(49,520,l),
(29,380,l),
(146,380,l),
(71,-140,l)
);
}
);
width = 880;
},
{
layerId = "11CDF5B9-5D39-499F-A086-8A564624B78D";
shapes = (
{
closed = 1;
nodes = (
(228,-140,l),
(307,413,l),
(542,413,l),
(463,-140,l),
(598,-140,l),
(677,413,l),
(837,413,l),
(852,520,l),
(692,520,l),
(700,573,ls),
(709,636,o),
(732,658,o),
(788,658,cs),
(812,658,o),
(834,654,o),
(860,647,c),
(891,755,l),
(852,766,o),
(814,770,o),
(782,770,cs),
(657,770,o),
(583,703,o),
(564,573,cs),
(557,520,l),
(322,520,l),
(329,573,ls),
(338,636,o),
(361,658,o),
(418,658,cs),
(441,658,o),
(464,654,o),
(489,647,c),
(520,755,l),
(482,766,o),
(443,770,o),
(411,770,cs),
(286,770,o),
(212,703,o),
(194,573,cs),
(186,520,l),
(52,520,l),
(36,413,l),
(171,413,l),
(92,-140,l)
);
}
);
width = 844;
},
{
layerId = "BBD4F1D4-C528-4189-A814-DA4A859CEB77";
shapes = (
{
closed = 1;
nodes = (
(191,-140,l),
(275,453,l),
(549,453,l),
(465,-140,l),
(542,-140,l),
(626,453,l),
(806,453,l),
(815,520,l),
(636,520,l),
(647,597,ls),
(658,672,o),
(689,701,o),
(760,701,cs),
(785,701,o),
(806,697,o),
(832,689,c),
(852,755,l),
(819,766,o),
(789,770,o),
(758,770,cs),
(649,770,o),
(586,713,o),
(570,597,cs),
(559,520,l),
(285,520,l),
(296,597,ls),
(307,672,o),
(338,701,o),
(408,701,cs),
(434,701,o),
(454,697,o),
(480,689,c),
(501,755,l),
(468,766,o),
(438,770,o),
(407,770,cs),
(297,770,o),
(234,713,o),
(218,597,cs),
(207,520,l),
(55,520,l),
(45,453,l),
(197,453,l),
(113,-140,l)
);
}
);
width = 808;
},
{
layerId = "8CC5B2A3-F3A2-43C7-BF8D-A4D4BD884141";
shapes = (
{
closed = 1;
nodes = (
(153,-140,l),
(244,500,l),
(556,500,l),
(465,-140,l),
(485,-140,l),
(576,500,l),
(775,500,l),
(778,520,l),
(579,520,l),
(594,620,ls),
(607,711,o),
(648,750,o),
(733,750,cs),
(759,750,o),
(780,746,o),
(804,736,c),
(814,755,l),
(786,766,o),
(763,770,o),
(736,770,cs),
(640,770,o),
(588,722,o),
(574,620,cs),
(559,520,l),
(247,520,l),
(262,620,ls),
(275,711,o),
(316,750,o),
(400,750,cs),
(427,750,o),
(447,746,o),
(472,736,c),
(481,755,l),
(453,766,o),
(431,770,o),
(403,770,cs),
(308,770,o),
(256,722,o),
(242,620,cs),
(227,520,l),
(57,520,l),
(54,500,l),
(224,500,l),
(133,-140,l)
);
}
);
width = 772;
}
);
leftKerningGroup = f;
rightKerningGroup = f;
},
{
color = 3;
glyphname = ordfeminine;
layers = (
{
layerId = "6AE7522C-F5AE-4477-8831-CE4DC346C7C6";
shapes = (
{
closed = 1;
nodes = (
(417,314,l),
(453,570,ls),
(470,689,o),
(422,738,o),
(290,738,cs),
(224,738,o),
(159,726,o),
(98,702,c),
(101,590,l),
(153,613,o),
(208,626,o),
(254,626,cs),
(290,626,o),
(298,617,o),
(293,578,cs),
(260,353,l),
(266,353,l),
(262,314,l)
);
},
{
closed = 1;
nodes = (
(193,306,o),
(233,323,o),
(264,353,c),
(346,353,l),
(363,470,l),
(278,473,l),
(273,442,o),
(250,424,o),
(215,424,cs),
(190,424,o),
(178,434,o),
(181,455,cs),
(185,483,o),
(208,494,o),
(263,494,cs),
(367,494,l),
(380,588,l),
(285,588,ls),
(142,588,o),
(54,534,o),
(41,439,cs),
(30,361,o),
(75,306,o),
(151,306,cs)
);
}
);
width = 455;
},
{
layerId = "11CDF5B9-5D39-499F-A086-8A564624B78D";
shapes = (
{
closed = 1;
nodes = (
(393,314,l),
(430,573,ls),
(447,690,o),
(403,738,o),
(281,738,cs),
(219,738,o),
(158,725,o),
(99,701,c),
(104,613,l),
(153,637,o),
(207,650,o),
(253,650,cs),
(305,650,o),
(316,632,o),
(308,571,cs),
(277,358,l),
(282,358,l),
(277,314,l)
);
},
{
closed = 1;
nodes = (
(203,306,o),
(250,326,o),
(280,358,c),
(345,358,l),
(361,471,l),
(294,473,l),
(287,428,o),
(251,398,o),
(202,398,cs),
(165,398,o),
(145,415,o),
(150,446,cs),
(156,487,o),
(195,506,o),
(274,506,cs),
(365,506,l),
(377,585,l),
(296,585,ls),
(148,585,o),
(57,531,o),
(43,435,cs),
(32,359,o),
(78,306,o),
(156,306,cs)
);
}
);
width = 437;
},
{
layerId = "BBD4F1D4-C528-4189-A814-DA4A859CEB77";
shapes = (
{
closed = 1;
nodes = (
(369,314,l),
(406,575,ls),
(423,691,o),
(385,738,o),
(274,738,cs),
(215,738,o),
(158,725,o),
(101,700,c),
(106,643,l),
(155,668,o),
(208,681,o),
(255,681,cs),
(324,681,o),
(343,654,o),
(332,571,cs),
(303,368,l),
(304,368,l),
(297,314,l)
);
},
{
closed = 1;
nodes = (
(216,306,o),
(270,330,o),
(303,368,c),
(346,368,l),
(361,475,l),
(318,475,l),
(309,412,o),
(254,365,o),
(186,365,cs),
(135,365,o),
(106,393,o),
(112,437,cs),
(121,495,o),
(182,526,o),
(290,526,cs),
(366,526,l),
(374,580,l),
(304,580,ls),
(153,580,o),
(59,527,o),
(46,431,cs),
(35,357,o),
(82,306,o),
(161,306,cs)
);
}
);
width = 419;
},
{
layerId = "EF766267-56A5-4429-BD45-4D84D257A888";
partSelection = {
Wt = 2;
};
associatedMasterId = "8CC5B2A3-F3A2-43C7-BF8D-A4D4BD884141";
shapes = (
{
closed = 1;
nodes = (
(363,314,l),
(363,577,ls),
(363,692,o),
(320,738,o),
(212,738,cs),
(154,738,o),
(98,724,o),
(45,699,c),
(56,662,l),
(105,687,o),
(157,700,o),
(207,700,cs),
(287,700,o),
(315,668,o),
(315,575,cs),
(315,375,l),
(316,375,l),
(316,314,l)
);
},
{
closed = 1;
nodes = (
(227,306,o),
(286,333,o),
(314,375,c),
(343,375,l),
(343,478,l),
(315,478,l),
(315,402,o),
(256,345,o),
(175,345,cs),
(112,345,o),
(72,379,o),
(72,431,cs),
(72,502,o),
(143,540,o),
(273,540,cs),
(341,540,l),
(341,577,l),
(276,577,ls),
(119,577,o),
(29,524,o),
(29,428,cs),
(29,355,o),
(84,306,o),
(166,306,cs)
);
}
);
width = 422;
},
{
layerId = "8CC5B2A3-F3A2-43C7-BF8D-A4D4BD884141";
shapes = (
{
closed = 1;
nodes = (
(345,314,l),
(383,578,ls),
(399,693,o),
(366,738,o),
(267,738,cs),
(212,738,o),
(157,724,o),
(104,698,c),
(110,680,l),
(161,705,o),
(214,718,o),
(265,718,cs),
(353,718,o),
(378,682,o),
(364,578,cs),
(338,397,l),
(338,397,l),
(326,314,l)
);
},
{
closed = 1;
nodes = (
(236,306,o),
(299,342,o),
(336,397,c),
(349,397,l),
(361,481,l),
(350,481,l),
(337,392,o),
(260,326,o),
(170,326,cs),
(100,326,o),
(60,365,o),
(69,426,cs),
(81,508,o),
(168,554,o),
(312,554,cs),
(370,554,l),
(373,574,l),
(315,574,ls),
(160,574,o),
(62,521,o),
(49,426,cs),
(39,354,o),
(86,306,o),
(167,306,cs)
);
}
);
width = 402;
}
);
partsSettings = (
{
bottomValue = 0;
name = Wt;
topValue = 1000;
}
);
leftKerningGroup = asterisk;
rightKerningGroup = asterisk;
unicode = 170;
},
{
color = 3;
glyphname = ordmasculine;
layers = (
{
layerId = "6AE7522C-F5AE-4477-8831-CE4DC346C7C6";
shapes = (
{
closed = 1;
nodes = (
(381,306,o),
(466,381,o),
(487,522,cs),
(507,663,o),
(442,738,o),
(303,738,cs),
(162,738,o),
(78,663,o),
(58,522,cs),
(37,381,o),
(101,306,o),
(242,306,cs)
);
},
{
closed = 1;
nodes = (
(224,428,o),
(211,456,o),
(221,522,cs),
(230,588,o),
(251,616,o),
(286,616,cs),
(321,616,o),
(334,588,o),
(325,522,cs),
(315,456,o),
(294,428,o),
(259,428,cs)
);
}
);
width = 480;
},
{
layerId = "11CDF5B9-5D39-499F-A086-8A564624B78D";
shapes = (
{
closed = 1;
nodes = (
(365,306,o),
(448,384,o),
(468,522,cs),
(487,661,o),
(426,738,o),
(295,738,cs),
(164,738,o),
(81,661,o),
(62,522,cs),
(42,384,o),
(103,306,o),
(234,306,cs)
);
},
{
closed = 1;
nodes = (
(193,401,o),
(172,441,o),
(184,522,cs),
(195,603,o),
(228,643,o),
(282,643,cs),
(336,643,o),
(358,603,o),
(347,522,cs),
(335,441,o),
(301,401,o),
(247,401,cs)
);
}
);
width = 464;
},
{
layerId = "BBD4F1D4-C528-4189-A814-DA4A859CEB77";
shapes = (
{
closed = 1;
nodes = (
(347,306,o),
(428,386,o),
(448,522,cs),
(467,659,o),
(408,738,o),
(287,738,cs),
(166,738,o),
(85,659,o),
(66,522,cs),
(46,386,o),
(105,306,o),
(226,306,cs)
);
},
{
closed = 1;
nodes = (
(159,367,o),
(125,421,o),
(140,522,cs),
(154,623,o),
(204,677,o),
(279,677,cs),
(355,677,o),
(389,623,o),
(375,522,cs),
(360,421,o),
(310,367,o),
(234,367,cs)
);
}
);
width = 449;
},
{
layerId = "8CC5B2A3-F3A2-43C7-BF8D-A4D4BD884141";
shapes = (
{
closed = 1;
nodes = (
(331,306,o),
(409,388,o),
(429,522,cs),
(448,656,o),
(392,738,o),
(279,738,cs),
(168,738,o),
(89,656,o),
(70,522,cs),
(50,388,o),
(107,306,o),
(218,306,cs)
);
},
{
closed = 1;
nodes = (
(121,326,o),
(72,398,o),
(90,522,cs),
(107,646,o),
(177,718,o),
(277,718,cs),
(378,718,o),
(426,646,o),
(409,522,cs),
(391,398,o),
(322,326,o),
(221,326,cs)
);
}
);
width = 433;
}
);
leftKerningGroup = asterisk;
rightKerningGroup = asterisk;
unicode = 186;
},
{
glyphname = one.lf.001;
layers = (
{
layerId = "6AE7522C-F5AE-4477-8831-CE4DC346C7C6";
shapes = (
{
closed = 1;
nodes = (
(446,0,l),
(550,730,l),
(345,730,l),
(56,483,l),
(116,323,l),
(313,484,l),
(315,484,l),
(246,0,l)
);
}
);
width = 644;
},
{
layerId = "11CDF5B9-5D39-499F-A086-8A564624B78D";
shapes = (
{
closed = 1;
nodes = (
(399,0,l),
(503,730,l),
(359,730,l),
(68,482,l),
(111,366,l),
(335,552,l),
(337,552,l),
(258,0,l)
);
}
);
width = 624;
},
{
layerId = "BBD4F1D4-C528-4189-A814-DA4A859CEB77";
shapes = (
{
closed = 1;
nodes = (
(352,0,l),
(456,730,l),
(374,730,l),
(80,481,l),
(107,413,l),
(359,625,l),
(361,625,l),
(272,0,l)
);
}
);
width = 605;
},
{
layerId = "8CC5B2A3-F3A2-43C7-BF8D-A4D4BD884141";
shapes = (
{
closed = 1;
nodes = (
(304,0,l),
(408,730,l),
(389,730,l),
(90,480,l),
(101,465,l),
(383,702,l),
(385,702,l),
(285,0,l)
);
}
);
width = 585;
}
);
},
{
glyphname = two.lf.001;
layers = (
{
layerId = "6AE7522C-F5AE-4477-8831-CE4DC346C7C6";
shapes = (
{
closed = 1;
nodes = (
(533,0,l),
(557,165,l),
(314,165,l),
(314,167,l),
(486,276,o),
(584,395,o),
(602,520,cs),
(622,656,o),
(537,740,o),
(381,740,cs),
(283,740,o),
(174,708,o),
(101,660,c),
(127,495,l),
(216,548,o),
(276,570,o),
(327,570,cs),
(380,570,o),
(407,545,o),
(400,500,cs),
(389,422,o),
(289,326,o),
(50,165,c),
(26,0,l)
);
}
);
width = 644;
},
{
layerId = "11CDF5B9-5D39-499F-A086-8A564624B78D";
shapes = (
{
closed = 1;
nodes = (
(506,0,l),
(523,122,l),
(241,122,l),
(242,124,l),
(457,281,o),
(557,402,o),
(575,527,cs),
(594,657,o),
(514,740,o),
(370,740,cs),
(279,740,o),
(175,708,o),
(105,659,c),
(130,541,l),
(212,593,o),
(276,617,o),
(333,617,cs),
(404,617,o),
(443,578,o),
(433,513,cs),
(420,422,o),
(316,317,o),
(45,122,c),
(28,0,l)
);
}
);
width = 624;
},
{
layerId = "BBD4F1D4-C528-4189-A814-DA4A859CEB77";
shapes = (
{
closed = 1;
nodes = (
(479,0,l),
(489,73,l),
(157,73,l),
(158,75,l),
(423,283,o),
(529,406,o),
(547,533,cs),
(565,659,o),
(491,740,o),
(358,740,cs),
(275,740,o),
(178,708,o),
(110,659,c),
(130,591,l),
(201,640,o),
(274,667,o),
(338,667,cs),
(428,667,o),
(478,612,o),
(466,527,cs),
(451,419,o),
(342,304,o),
(40,73,c),
(30,0,l)
);
}
);
width = 605;
},
{
layerId = "8CC5B2A3-F3A2-43C7-BF8D-A4D4BD884141";
shapes = (
{
closed = 1;
nodes = (
(450,0,l),
(453,20,l),
(63,20,l),
(63,22,l),
(386,281,o),
(500,409,o),
(519,540,cs),
(536,660,o),
(468,740,o),
(347,740,cs),
(272,740,o),
(182,708,o),
(115,660,c),
(125,644,l),
(188,690,o),
(273,720,o),
(344,720,cs),
(454,720,o),
(515,649,o),
(499,540,cs),
(481,414,o),
(367,286,o),
(34,20,c),
(31,0,l)
);
}
);
width = 585;
}
);
},
{
glyphname = three.lf.001;
layers = (
{
layerId = "6AE7522C-F5AE-4477-8831-CE4DC346C7C6";
shapes = (
{
closed = 1;
nodes = (
(429,-10,o),
(539,77,o),
(561,230,cs),
(579,355,o),
(522,430,o),
(409,430,cs),
(399,430,l),
(400,432,l),
(600,565,l),
(623,730,l),
(130,730,l),
(107,565,l),
(371,565,l),
(370,563,l),
(187,440,l),
(166,295,l),
(205,295,ls),
(332,295,o),
(369,279,o),
(361,225,cs),
(354,177,o),
(321,155,o),
(258,155,cs),
(204,155,o),
(156,170,o),
(89,207,c),
(19,50,l),
(89,11,o),
(171,-10,o),
(254,-10,cs)
);
}
);
width = 644;
},
{
layerId = "11CDF5B9-5D39-499F-A086-8A564624B78D";
shapes = (
{
closed = 1;
nodes = (
(408,-10,o),
(515,76,o),
(536,227,cs),
(555,360,o),
(495,433,o),
(366,433,cs),
(358,433,l),
(358,435,l),
(581,609,l),
(598,730,l),
(135,730,l),
(118,610,l),
(409,610,l),
(409,608,l),
(191,437,l),
(175,325,l),
(226,325,ls),
(363,325,o),
(408,298,o),
(397,224,cs),
(386,149,o),
(334,110,o),
(244,110,cs),
(189,110,o),
(138,125,o),
(81,160,c),
(25,49,l),
(87,10,o),
(160,-10,o),
(240,-10,cs)
);
}
);
width = 624;
},
{
layerId = "BBD4F1D4-C528-4189-A814-DA4A859CEB77";
shapes = (
{
closed = 1;
nodes = (
(389,-10,o),
(491,74,o),
(512,222,cs),
(531,359,o),
(466,430,o),
(320,430,cs),
(299,430,l),
(300,432,l),
(564,657,l),
(574,730,l),
(140,730,l),
(130,658,l),
(458,658,l),
(458,656,l),
(195,431,l),
(184,360,l),
(249,360,ls),
(393,360,o),
(446,319,o),
(431,220,cs),
(417,117,o),
(347,62,o),
(232,62,cs),
(173,62,o),
(120,77,o),
(70,111,c),
(33,47,l),
(89,9,o),
(153,-10,o),
(229,-10,cs)
);
}
);
width = 605;
},
{
layerId = "8CC5B2A3-F3A2-43C7-BF8D-A4D4BD884141";
shapes = (
{
closed = 1;
nodes = (
(370,-10,o),
(465,71,o),
(486,215,cs),
(506,354,o),
(437,420,o),
(274,420,cs),
(224,420,l),
(224,422,l),
(547,710,l),
(550,730,l),
(145,730,l),
(142,710,l),
(518,710,l),
(518,708,l),
(196,420,l),
(193,400,l),
(271,400,ls),
(424,400,o),
(485,342,o),
(467,215,cs),
(448,82,o),
(362,10,o),
(222,10,cs),
(156,10,o),
(103,26,o),
(55,61,c),
(41,44,l),
(94,7,o),
(151,-10,o),
(220,-10,cs)
);
}
);
width = 585;
}
);
},
{
glyphname = five.lf.001;
layers = (
{
layerId = "6AE7522C-F5AE-4477-8831-CE4DC346C7C6";
shapes = (
{
closed = 1;
nodes = (
(442,-10,o),
(557,74,o),
(581,245,cs),
(603,397,o),
(532,480,o),
(381,480,cs),
(349,480,o),
(327,476,o),
(299,465,c),
(297,465,l),
(315,565,l),
(593,565,l),
(616,730,l),
(162,730,l),
(78,270,l),
(253,270,l),
(276,309,o),
(300,325,o),
(334,325,cs),
(374,325,o),
(389,302,o),
(382,255,cs),
(373,187,o),
(329,155,o),
(246,155,cs),
(195,155,o),
(148,167,o),
(86,194,c),
(23,30,l),
(89,3,o),
(158,-10,o),
(233,-10,cs)
);
}
);
width = 644;
},
{
layerId = "11CDF5B9-5D39-499F-A086-8A564624B78D";
shapes = (
{
closed = 1;
nodes = (
(417,-10,o),
(529,77,o),
(552,240,cs),
(574,390,o),
(502,472,o),
(353,472,cs),
(311,472,o),
(281,465,o),
(247,447,c),
(245,447,l),
(278,610,l),
(572,610,l),
(589,730,l),
(171,730,l),
(90,305,l),
(216,305,l),
(247,342,o),
(278,357,o),
(320,357,cs),
(391,357,o),
(424,320,o),
(413,247,cs),
(401,158,o),
(340,110,o),
(239,110,cs),
(184,110,o),
(135,124,o),
(79,153,c),
(31,35,l),
(91,6,o),
(157,-10,o),
(229,-10,cs)
);
}
);
width = 624;
},
{
layerId = "BBD4F1D4-C528-4189-A814-DA4A859CEB77";
shapes = (
{
closed = 1;
nodes = (
(392,-10,o),
(499,80,o),
(522,235,cs),
(542,380,o),
(472,460,o),
(324,460,cs),
(274,460,o),
(237,450,o),
(195,425,c),
(193,425,l),
(242,658,l),
(552,658,l),
(562,730,l),
(181,730,l),
(103,340,l),
(176,340,l),
(217,376,o),
(255,390,o),
(306,390,cs),
(410,390,o),
(457,338,o),
(443,239,cs),
(427,127,o),
(349,62,o),
(231,62,cs),
(173,62,o),
(119,78,o),
(71,109,c),
(40,40,l),
(91,8,o),
(156,-10,o),
(225,-10,cs)
);
}
);
width = 605;
},
{
layerId = "8CC5B2A3-F3A2-43C7-BF8D-A4D4BD884141";
shapes = (
{
closed = 1;
nodes = (
(367,-10,o),
(472,83,o),
(493,230,cs),
(513,368,o),
(441,445,o),
(295,445,cs),
(236,445,o),
(191,432,o),
(141,400,c),
(139,400,l),
(205,710,l),
(532,710,l),
(535,730,l),
(190,730,l),
(114,375,l),
(135,375,l),
(186,411,o),
(231,425,o),
(292,425,cs),
(428,425,o),
(492,357,o),
(474,230,cs),
(454,94,o),
(358,10,o),
(222,10,cs),
(160,10,o),
(103,28,o),
(61,62,c),
(47,45,l),
(92,10,o),
(155,-10,o),
(220,-10,cs)
);
}
);
width = 585;
}
);
},
{
glyphname = six.lf.001;
layers = (
{
layerId = "6AE7522C-F5AE-4477-8831-CE4DC346C7C6";
shapes = (
{
closed = 1;
nodes = (
(454,-10,o),
(576,89,o),
(599,250,cs),
(620,399,o),
(544,490,o),
(399,490,cs),
(358,490,o),
(324,483,o),
(282,464,c),
(281,466,l),
(328,539,o),
(402,573,o),
(534,578,c),
(521,738,l),
(265,724,o),
(75,546,o),
(37,280,cs),
(9,84,o),
(88,-10,o),
(279,-10,cs)
);
},
{
closed = 1;
nodes = (
(245,145,o),
(218,181,o),
(227,245,cs),
(236,309,o),
(273,345,o),
(329,345,cs),
(384,345,o),
(412,309,o),
(403,245,cs),
(394,181,o),
(356,145,o),
(301,145,cs)
);
}
);
width = 644;
},
{
layerId = "11CDF5B9-5D39-499F-A086-8A564624B78D";
shapes = (
{
closed = 1;
nodes = (
(436,-10,o),
(551,88,o),
(573,245,cs),
(595,397,o),
(518,490,o),
(372,490,cs),
(318,490,o),
(272,476,o),
(225,446,c),
(223,447,l),
(277,552,o),
(368,610,o),
(507,622,c),
(500,739,l),
(257,719,o),
(79,537,o),
(40,265,cs),
(14,86,o),
(94,-10,o),
(269,-10,cs)
);
},
{
closed = 1;
nodes = (
(201,107,o),
(161,158,o),
(173,243,cs),
(185,330,o),
(240,378,o),
(324,378,cs),
(408,378,o),
(449,329,o),
(437,243,cs),
(425,158,o),
(369,107,o),
(285,107,cs)
);
}
);
width = 624;
},
{
layerId = "BBD4F1D4-C528-4189-A814-DA4A859CEB77";
shapes = (
{
closed = 1;
nodes = (
(417,-10,o),
(528,86,o),
(550,241,cs),
(572,393,o),
(494,487,o),
(348,487,cs),
(277,487,o),
(217,465,o),
(166,421,c),
(164,422,l),
(223,563,o),
(333,648,o),
(481,667,c),
(477,739,l),
(248,714,o),
(83,529,o),
(43,251,cs),
(19,87,o),
(100,-10,o),
(260,-10,cs)
);
},
{
closed = 1;
nodes = (
(162,65,o),
(108,133,o),
(123,240,cs),
(139,351,o),
(211,414,o),
(320,414,cs),
(429,414,o),
(485,350,o),
(469,240,cs),
(454,131,o),
(379,65,o),
(270,65,cs)
);
}
);
width = 605;
},
{
layerId = "EF766267-56A5-4429-BD45-4D84D257A888";
partSelection = {
Wt = 2;
};
associatedMasterId = "8CC5B2A3-F3A2-43C7-BF8D-A4D4BD884141";
shapes = (
{
closed = 1;
nodes = (
(461,-10,o),
(558,85,o),
(558,238,cs),
(558,389,o),
(464,483,o),
(313,483,cs),
(228,483,o),
(163,454,o),
(118,400,c),
(116,401,l),
(155,569,o),
(261,672,o),
(419,695,c),
(410,739,l),
(188,711,o),
(53,524,o),
(53,243,cs),
(53,88,o),
(151,-10,o),
(305,-10,cs)
);
},
{
closed = 1;
nodes = (
(181,36,o),
(103,115,o),
(103,237,cs),
(103,364,o),
(178,438,o),
(305,438,cs),
(432,438,o),
(508,364,o),
(508,237,cs),
(508,112,o),
(432,36,o),
(305,36,cs)
);
}
);
width = 610;
},
{
layerId = "8CC5B2A3-F3A2-43C7-BF8D-A4D4BD884141";
shapes = (
{
closed = 1;
nodes = (
(397,-10,o),
(501,84,o),
(523,235,cs),
(544,386,o),
(467,480,o),
(320,480,cs),
(224,480,o),
(145,440,o),
(94,366,c),
(92,366,l),
(154,567,o),
(284,694,o),
(453,720,c),
(452,740,l),
(237,708,o),
(86,519,o),
(46,235,cs),
(25,89,o),
(107,-10,o),
(250,-10,cs)
);
},
{
closed = 1;
nodes = (
(119,10,o),
(45,99,o),
(65,235,cs),
(85,376,o),
(179,460,o),
(317,460,cs),
(454,460,o),
(524,376,o),
(504,235,cs),
(483,94,o),
(389,10,o),
(252,10,cs)
);
}
);
width = 585;
}
);
partsSettings = (
{
bottomValue = 0;
name = Wt;
topValue = 1000;
}
);
},
{
glyphname = zero.lf;
layers = (
{
layerId = "6AE7522C-F5AE-4477-8831-CE4DC346C7C6";
shapes = (
{
closed = 1;
nodes = (
(467,-10,o),
(573,105,o),
(610,365,cs),
(647,625,o),
(574,740,o),
(371,740,cs),
(168,740,o),
(62,625,o),
(25,365,cs),
(-12,105,o),
(61,-10,o),
(264,-10,cs)
);
},
{
closed = 1;
nodes = (
(221,160,o),
(204,217,o),
(225,365,cs),
(246,513,o),
(279,570,o),
(346,570,cs),
(413,570,o),
(431,513,o),
(410,365,cs),
(389,217,o),
(355,160,o),
(288,160,cs)
);
}
);
width = 630;
},
{
layerId = "11CDF5B9-5D39-499F-A086-8A564624B78D";
shapes = (
{
closed = 1;
nodes = (
(453,-10,o),
(558,110,o),
(594,365,cs),
(631,620,o),
(560,740,o),
(372,740,cs),
(184,740,o),
(79,620,o),
(42,365,cs),
(6,110,o),
(77,-10,o),
(265,-10,cs)
);
},
{
closed = 1;
nodes = (
(188,113,o),
(157,190,o),
(182,365,cs),
(207,540,o),
(260,617,o),
(354,617,cs),
(449,617,o),
(480,540,o),
(455,365,cs),
(430,190,o),
(377,113,o),
(282,113,cs)
);
}
);
width = 630;
},
{
layerId = "BBD4F1D4-C528-4189-A814-DA4A859CEB77";
shapes = (
{
closed = 1;
nodes = (
(438,-10,o),
(542,115,o),
(578,365,cs),
(613,615,o),
(545,740,o),
(371,740,cs),
(196,740,o),
(93,615,o),
(57,365,cs),
(21,115,o),
(89,-10,o),
(264,-10,cs)
);
},
{
closed = 1;
nodes = (
(152,63,o),
(108,161,o),
(137,365,cs),
(166,569,o),
(239,667,o),
(360,667,cs),
(482,667,o),
(527,569,o),
(498,365,cs),
(468,161,o),
(396,63,o),
(274,63,cs)
);
}
);
width = 630;
},
{
layerId = "8CC5B2A3-F3A2-43C7-BF8D-A4D4BD884141";
shapes = (
{
closed = 1;
nodes = (
(424,-10,o),
(526,120,o),
(561,365,cs),
(596,610,o),
(531,740,o),
(371,740,cs),
(211,740,o),
(108,610,o),
(73,365,cs),
(38,120,o),
(104,-10,o),
(264,-10,cs)
);
},
{
closed = 1;
nodes = (
(118,10,o),
(60,130,o),
(93,365,cs),
(127,600,o),
(220,720,o),
(368,720,cs),
(516,720,o),
(575,600,o),
(541,365,cs),
(508,130,o),
(414,10,o),
(266,10,cs)
);
}
);
width = 630;
}
);
},
{
glyphname = one.lf;
layers = (
{
layerId = "6AE7522C-F5AE-4477-8831-CE4DC346C7C6";
shapes = (
{
closed = 1;
nodes = (
(437,0,l),
(541,730,l),
(336,730,l),
(53,494,l),
(84,304,l),
(304,484,l),
(306,484,l),
(237,0,l)
);
}
);
width = 630;
},
{
layerId = "11CDF5B9-5D39-499F-A086-8A564624B78D";
shapes = (
{
closed = 1;
nodes = (
(398,0,l),
(502,730,l),
(360,730,l),
(72,490,l),
(95,353,l),
(335,552,l),
(337,552,l),
(258,0,l)
);
}
);
width = 630;
},
{
layerId = "BBD4F1D4-C528-4189-A814-DA4A859CEB77";
shapes = (
{
closed = 1;
nodes = (
(360,0,l),
(464,730,l),
(383,730,l),
(91,485,l),
(107,407,l),
(367,625,l),
(369,625,l),
(280,0,l)
);
}
);
width = 630;
},
{
layerId = "8CC5B2A3-F3A2-43C7-BF8D-A4D4BD884141";
shapes = (
{
closed = 1;
nodes = (
(319,0,l),
(423,730,l),
(403,730,l),
(105,480,l),
(116,465,l),
(397,702,l),
(399,702,l),
(299,0,l)
);
}
);
width = 630;
}
);
},
{
glyphname = two.lf;
layers = (
{
layerId = "6AE7522C-F5AE-4477-8831-CE4DC346C7C6";
shapes = (
{
closed = 1;
nodes = (
(519,0,l),
(543,165,l),
(299,165,l),
(299,167,l),
(472,276,o),
(570,395,o),
(588,520,cs),
(608,656,o),
(522,740,o),
(366,740,cs),
(273,740,o),
(164,709,o),
(91,660,c),
(107,495,l),
(198,547,o),
(260,570,o),
(312,570,cs),
(366,570,o),
(392,545,o),
(385,500,cs),
(374,422,o),
(274,326,o),
(36,165,c),
(12,0,l)
);
}
);
width = 630;
},
{
layerId = "11CDF5B9-5D39-499F-A086-8A564624B78D";
shapes = (
{
closed = 1;
nodes = (
(501,0,l),
(519,122,l),
(237,122,l),
(237,124,l),
(455,282,o),
(553,401,o),
(571,527,cs),
(589,659,o),
(510,740,o),
(365,740,cs),
(276,740,o),
(177,710,o),
(104,660,c),
(120,538,l),
(203,592,o),
(269,617,o),
(328,617,cs),
(400,617,o),
(437,578,o),
(428,513,cs),
(415,421,o),
(312,317,o),
(41,122,c),
(23,0,l)
);
}
);
width = 630;
},
{
layerId = "BBD4F1D4-C528-4189-A814-DA4A859CEB77";
shapes = (
{
closed = 1;
nodes = (
(484,0,l),
(494,73,l),
(163,73,l),
(164,75,l),
(430,284,o),
(533,404,o),
(552,533,cs),
(570,661,o),
(498,740,o),
(363,740,cs),
(280,740,o),
(189,710,o),
(118,660,c),
(131,588,l),
(206,640,o),
(278,667,o),
(343,667,cs),
(435,667,o),
(483,614,o),
(471,527,cs),
(455,418,o),
(349,304,o),
(45,73,c),
(35,0,l)
);
}
);
width = 630;
},
{
layerId = "8CC5B2A3-F3A2-43C7-BF8D-A4D4BD884141";
shapes = (
{
closed = 1;
nodes = (
(465,0,l),
(468,20,l),
(78,20,l),
(78,22,l),
(401,281,o),
(514,403,o),
(533,540,cs),
(551,664,o),
(485,740,o),
(361,740,cs),
(284,740,o),
(201,711,o),
(130,660,c),
(140,644,l),
(207,693,o),
(285,720,o),
(358,720,cs),
(471,720,o),
(530,653,o),
(514,540,cs),
(496,414,o),
(381,286,o),
(49,20,c),
(46,0,l)
);
}
);
width = 630;
}
);
},
{
glyphname = three.lf;
layers = (
{
layerId = "6AE7522C-F5AE-4477-8831-CE4DC346C7C6";
shapes = (
{
closed = 1;
nodes = (
(414,-10,o),
(525,77,o),
(547,230,cs),
(565,355,o),
(507,430,o),
(394,430,cs),
(385,430,l),
(386,432,l),
(585,565,l),
(608,730,l),
(116,730,l),
(93,565,l),
(357,565,l),
(356,563,l),
(172,440,l),
(151,295,l),
(190,295,ls),
(318,295,o),
(354,279,o),
(346,225,cs),
(339,177,o),
(307,155,o),
(243,155,cs),
(190,155,o),
(138,171,o),
(71,207,c),
(9,47,l),
(76,10,o),
(158,-10,o),
(240,-10,cs)
);
}
);
width = 630;
},
{
layerId = "11CDF5B9-5D39-499F-A086-8A564624B78D";
shapes = (
{
closed = 1;
nodes = (
(405,-10,o),
(510,74,o),
(531,223,cs),
(550,356,o),
(489,431,o),
(361,431,cs),
(351,431,l),
(351,433,l),
(580,610,l),
(598,730,l),
(131,730,l),
(113,610,l),
(404,610,l),
(404,608,l),
(184,438,l),
(168,323,l),
(222,323,ls),
(358,323,o),
(402,296,o),
(391,220,cs),
(381,147,o),
(331,110,o),
(242,110,cs),
(184,110,o),
(131,126,o),
(71,160,c),
(25,44,l),
(87,9,o),
(160,-10,o),
(238,-10,cs)
);
}
);
width = 630;
},
{
layerId = "BBD4F1D4-C528-4189-A814-DA4A859CEB77";
shapes = (
{
closed = 1;
nodes = (
(396,-10,o),
(495,71,o),
(515,217,cs),
(535,354,o),
(469,426,o),
(325,426,cs),
(302,426,l),
(302,428,l),
(576,658,l),
(586,730,l),
(145,730,l),
(135,658,l),
(465,658,l),
(465,656,l),
(197,430,l),
(186,356,l),
(254,356,ls),
(398,356,o),
(450,315,o),
(435,215,cs),
(421,114,o),
(355,62,o),
(240,62,cs),
(177,62,o),
(123,78,o),
(69,110,c),
(40,42,l),
(96,7,o),
(162,-10,o),
(236,-10,cs)
);
}
);
width = 630;
},
{
background = {
shapes = (
{
closed = 0;
nodes = (
(197,431,l),
(496,724,l)
);
}
);
};
layerId = "8CC5B2A3-F3A2-43C7-BF8D-A4D4BD884141";
shapes = (
{
closed = 1;
nodes = (
(386,-10,o),
(480,68,o),
(500,210,cs),
(520,349,o),
(451,415,o),
(288,415,cs),
(237,415,l),
(238,417,l),
(571,710,l),
(574,730,l),
(160,730,l),
(157,710,l),
(542,710,l),
(542,708,l),
(207,415,l),
(204,395,l),
(285,395,ls),
(437,395,o),
(498,337,o),
(480,210,cs),
(461,79,o),
(378,10,o),
(237,10,cs),
(171,10,o),
(116,25,o),
(67,56,c),
(56,39,l),
(106,6,o),
(166,-10,o),
(235,-10,cs)
);
}
);
width = 630;
}
);
},
{
glyphname = four.lf;
layers = (
{
layerId = "6AE7522C-F5AE-4477-8831-CE4DC346C7C6";
shapes = (
{
closed = 1;
nodes = (
(465,0,l),
(482,120,l),
(570,120,l),
(594,285,l),
(506,285,l),
(569,730,l),
(374,730,l),
(-1,285,l),
(-25,120,l),
(287,120,l),
(270,0,l)
);
},
{
closed = 1;
nodes = (
(174,277,l),
(347,483,l),
(349,483,l),
(319,275,l),
(173,275,l)
);
}
);
width = 630;
},
{
layerId = "11CDF5B9-5D39-499F-A086-8A564624B78D";
shapes = (
{
closed = 1;
nodes = (
(436,0,l),
(456,142,l),
(560,142,l),
(578,264,l),
(473,264,l),
(540,730,l),
(404,730,l),
(5,264,l),
(-12,142,l),
(320,142,l),
(299,0,l)
);
},
{
closed = 1;
nodes = (
(149,262,l),
(376,530,l),
(378,530,l),
(339,260,l),
(148,260,l)
);
}
);
width = 630;
},
{
layerId = "BBD4F1D4-C528-4189-A814-DA4A859CEB77";
shapes = (
{
closed = 1;
nodes = (
(407,0,l),
(430,165,l),
(550,165,l),
(561,239,l),
(441,239,l),
(511,730,l),
(433,730,l),
(12,239,l),
(1,165,l),
(352,165,l),
(329,0,l)
);
},
{
closed = 1;
nodes = (
(105,241,l),
(412,601,l),
(414,601,l),
(363,239,l),
(104,239,l)
);
}
);
width = 630;
},
{
layerId = "8CC5B2A3-F3A2-43C7-BF8D-A4D4BD884141";
shapes = (
{
closed = 1;
nodes = (
(377,0,l),
(404,190,l),
(541,190,l),
(544,210,l),
(407,210,l),
(481,730,l),
(462,730,l),
(17,210,l),
(14,190,l),
(385,190,l),
(358,0,l)
);
},
{
closed = 1;
nodes = (
(42,212,l),
(455,696,l),
(457,696,l),
(388,210,l),
(42,210,l)
);
}
);
width = 630;
}
);
},
